<?xml version="1.0" encoding="UTF-8" standalone="no"?>
<!-- Created with Keyshape -->
<svg xmlns="http://www.w3.org/2000/svg" xmlns:xlink="http://www.w3.org/1999/xlink" width="100%" height="100%" viewBox="0 0 220 262" clip-rule="evenodd" fill-rule="evenodd" stroke-linecap="round" stroke-linejoin="round" stroke-miterlimit="1.5" style="white-space: preserve-spaces;">
    <style>
@keyframes a0_t { 0% { transform: translate(45.191002px,162.085007px); } 16.6666% { transform: translate(50.198px,170.015994px); } 50% { transform: translate(63.1715px,154.035px); } 75% { transform: translate(51.100003px,157.829996px); } 100% { transform: translate(44.951001px,161.828999px); } }
@keyframes a1_t { 0% { transform: translate(103.988998px,80.772003px); } 20% { transform: translate(93.988998px,78.772004px); } 40% { transform: translate(88.988997px,84.772002px); } 100% { transform: translate(86.308612px,76.797812px); } }
@keyframes a2_t { 0% { transform: translate(92.938004px,75.016998px); } 14.2857% { transform: translate(101.046207px,83.011496px); } 42.8571% { transform: translate(72.039001px,79.016999px); } 64.2857% { transform: translate(69.962003px,70.096998px); } 100% { transform: translate(92.944px,75.108234px); } }
@keyframes a3_t { 0% { transform: translate(32.860001px,120.636002px); } 14.2857% { transform: translate(28.879001px,128.577px); } 42.8571% { transform: translate(39.919001px,151.573001px); } 64.2857% { transform: translate(26.827999px,140.435002px); } 100% { transform: translate(32.803px,120.531px); } }
@keyframes a4_t { 0% { transform: translate(83.549004px,95.283005px); } 16.6666% { transform: translate(87.485683px,102.331px); } 50% { transform: translate(75.4325px,110.368px); } 75% { transform: translate(77.490503px,102.606501px); } 100% { transform: translate(83.416003px,94.678795px); } }
@keyframes a5_t { 0% { transform: translate(114.267006px,130.393005px); } 16.6666% { transform: translate(123.383px,125.392505px); } 50% { transform: translate(112.361999px,136.398996px); } 75% { transform: translate(105.414997px,128.433994px); } 100% { transform: translate(114.49665px,130.453999px); } }
@keyframes a6_t { 0% { transform: translate(71.333px,152.322998px); } 100% { transform: translate(73.210976px,178.562228px); } }
@keyframes a7_t { 0% { transform: translate(31.771px,75.709px); } 13.3333% { transform: translate(34.774999px,86.736998px); } 40% { transform: translate(26.7335px,100.696003px); } 60% { transform: translate(33.743499px,98.610002px); } 80% { transform: translate(34.774999px,86.737px); } 100% { transform: translate(31.630998px,75.714px); } }
    </style>
    <defs>
        <symbol id="Symbol-9" preserveAspectRatio="none" width="2.004" height="2.004" viewBox="0 0 2.004 2.004" overflow="visible">
            <ellipse fill="rgb(255,184,10)" rx="1.002" ry="1.002" transform="translate(-114.33,-136.232) translate(115.332,137.234)"/>
        </symbol>
        <symbol id="Symbol-8" preserveAspectRatio="none" width="2.004" height="2.004" viewBox="0 0 2.004 2.004" overflow="visible">
            <ellipse fill="rgb(194,35,94)" rx="1.002" ry="1.002" transform="translate(-71.333,-152.323) translate(72.335,153.325)"/>
        </symbol>
        <symbol id="Symbol-7" preserveAspectRatio="none" width="2.004" height="2.004" viewBox="0 0 2.004 2.004" overflow="visible">
            <ellipse fill="rgb(255,184,10)" rx="1.002" ry="1.002" transform="translate(-103.989,-80.772) translate(104.991,81.774)"/>
        </symbol>
        <symbol id="Symbol-6" preserveAspectRatio="none" width="41.14" height="30.443" viewBox="0 0 41.14 30.443" overflow="visible">
            <ellipse fill="rgb(194,35,94)" rx="3.128" ry="3.128" transform="translate(-92.938,-75.017) translate(116.54,86.735)"/>
            <ellipse fill="rgb(177,201,71)" rx="1.784" ry="1.784" transform="translate(-92.938,-75.017) translate(94.722,82.889)"/>
            <ellipse fill="rgb(248,4,55)" rx="1.784" ry="1.784" transform="translate(-92.938,-75.017) translate(132.294,92.227)"/>
            <ellipse fill="rgb(156,195,89)" rx="1.784" ry="1.784" transform="translate(-92.938,-75.017) translate(122.869,102.485)"/>
            <ellipse fill="rgb(6,149,228)" rx="1.784" ry="1.784" transform="translate(-92.938,-75.017) translate(105.996,93.366)"/>
            <ellipse fill="rgb(248,4,55)" rx="1.002" ry="1.002" transform="translate(-92.938,-75.017) translate(105.074,104.458)"/>
            <ellipse fill="rgb(255,184,10)" rx="1.002" ry="1.002" transform="translate(-92.938,-75.017) translate(104.991,81.774)"/>
            <ellipse fill="rgb(6,149,228)" rx="1.002" ry="1.002" transform="translate(-92.938,-75.017) translate(114.415,76.019)"/>
            <ellipse fill="rgb(48,162,189)" rx="1.002" ry="1.002" transform="translate(-92.938,-75.017) translate(124.589,78.771)"/>
            <ellipse fill="rgb(255,136,0)" rx="1.002" ry="1.002" transform="translate(-92.938,-75.017) translate(124.756,87.695)"/>
            <ellipse fill="rgb(114,82,150)" rx="1.002" ry="1.002" transform="translate(-92.938,-75.017) translate(96.067,93.366)"/>
            <ellipse fill="rgb(196,207,54)" rx="1.002" ry="1.002" transform="translate(-92.938,-75.017) translate(115.538,98.871)"/>
        </symbol>
        <symbol id="Symbol-5" preserveAspectRatio="none" width="39.322" height="22.438" viewBox="0 0 39.322 22.438" overflow="visible">
            <ellipse fill="rgb(114,82,150)" rx="3.128" ry="3.128" transform="translate(-114.267,-130.393) translate(133.476,138.389)"/>
            <ellipse fill="rgb(196,207,54)" rx="1.784" ry="1.784" transform="translate(-114.267,-130.393) translate(151.704,132.177)"/>
            <ellipse fill="rgb(196,207,54)" rx="1.784" ry="1.784" transform="translate(-114.267,-130.393) translate(116.051,146.146)"/>
            <ellipse fill="rgb(118,197,240)" rx="1.002" ry="1.002" transform="translate(-114.267,-130.393) translate(118.917,151.829)"/>
            <ellipse fill="rgb(118,197,240)" rx="1.002" ry="1.002" transform="translate(-114.267,-130.393) translate(142.686,131.729)"/>
            <ellipse fill="rgb(248,4,55)" rx="1.002" ry="1.002" transform="translate(-114.267,-130.393) translate(128.748,146.708)"/>
            <ellipse fill="rgb(255,184,10)" rx="1.002" ry="1.002" transform="translate(-114.267,-130.393) translate(115.332,137.234)"/>
            <ellipse fill="rgb(255,136,0)" rx="1.002" ry="1.002" transform="translate(-114.267,-130.393) translate(152.587,142.825)"/>
        </symbol>
        <symbol id="Symbol-4" preserveAspectRatio="none" width="23.027" height="43.353" viewBox="0 0 23.027 43.353" overflow="visible">
            <ellipse fill="rgb(218,21,75)" rx="1.784" ry="1.784" transform="translate(-83.549,-95.283) translate(96.243,105.91)"/>
            <ellipse fill="rgb(248,4,54)" rx="1.784" ry="1.784" transform="translate(-83.549,-95.283) translate(104.792,130.196)"/>
            <ellipse fill="rgb(255,150,16)" rx="1.784" ry="1.784" transform="translate(-83.549,-95.283) translate(98.954,120.606)"/>
            <ellipse fill="rgb(118,197,240)" rx="1.002" ry="1.002" transform="translate(-83.549,-95.283) translate(86.308,96.285)"/>
            <ellipse fill="rgb(196,207,57)" rx="1.002" ry="1.002" transform="translate(-83.549,-95.283) translate(93.147,134.982)"/>
            <ellipse fill="rgb(6,149,228)" rx="1.002" ry="1.002" transform="translate(-83.549,-95.283) translate(102.928,137.634)"/>
            <ellipse fill="rgb(255,136,0)" rx="2.296" ry="2.296" transform="translate(-83.549,-95.283) translate(85.845,128.4)"/>
            <ellipse fill="rgb(48,162,189)" rx="1.002" ry="1.002" transform="translate(-83.549,-95.283) translate(87.84,112.574)"/>
        </symbol>
        <symbol id="Symbol-3" preserveAspectRatio="none" width="37.449" height="30.01" viewBox="0 0 37.449 30.01" overflow="visible">
            <ellipse fill="rgb(6,149,228)" rx="0.952" ry="0.952" transform="translate(-45.191,-162.085) translate(46.143,165.455)"/>
            <ellipse fill="rgb(156,195,89)" rx="1.784" ry="1.784" transform="translate(-45.191,-162.085) translate(74.456,163.869)"/>
            <ellipse fill="rgb(6,149,228)" rx="1.002" ry="1.002" transform="translate(-45.191,-162.085) translate(55.367,173.929)"/>
            <ellipse fill="rgb(196,207,54)" rx="1.002" ry="1.002" transform="translate(-45.191,-162.085) translate(70.763,176.014)"/>
            <ellipse fill="rgb(194,35,94)" rx="1.002" ry="1.002" transform="translate(-45.191,-162.085) translate(59.221,181.285)"/>
            <ellipse fill="rgb(248,4,55)" rx="1.002" ry="1.002" transform="translate(-45.191,-162.085) translate(81.638,191.093)"/>
        </symbol>
        <symbol id="Symbol-2" preserveAspectRatio="none" width="43.948" height="38.082" viewBox="0 0 43.948 38.082" overflow="visible">
            <ellipse fill="rgb(248,4,55)" rx="3.128" ry="3.128" transform="translate(-32.86,-120.636) translate(57.114,127.703)"/>
            <ellipse fill="rgb(255,184,10)" rx="3.128" ry="3.128" transform="translate(-32.86,-120.636) translate(50.858,155.59)"/>
            <ellipse fill="rgb(196,207,54)" rx="3.593" ry="3.593" transform="translate(-32.86,-120.636) translate(73.215,140.939)"/>
            <ellipse fill="rgb(177,201,71)" rx="0.915" ry="0.915" transform="translate(-32.86,-120.636) translate(34.779,137.33)"/>
            <ellipse fill="rgb(6,149,228)" rx="1.784" ry="1.784" transform="translate(-32.86,-120.636) translate(49.436,136.243)"/>
            <ellipse fill="rgb(114,82,150)" rx="1.784" ry="1.784" transform="translate(-32.86,-120.636) translate(69.852,129.575)"/>
            <ellipse fill="rgb(114,82,150)" rx="1.002" ry="1.002" transform="translate(-32.86,-120.636) translate(63.04,148.909)"/>
            <ellipse fill="rgb(255,184,10)" rx="1.002" ry="1.002" transform="translate(-32.86,-120.636) translate(69.963,121.638)"/>
            <ellipse fill="rgb(195,37,96)" rx="1.002" ry="1.002" transform="translate(-32.86,-120.636) translate(60.705,136.9)"/>
            <ellipse fill="rgb(255,210,0)" rx="1.798" ry="1.798" transform="translate(-32.86,-120.636) translate(34.658,123.227)"/>
        </symbol>
        <symbol id="Symbol-1" preserveAspectRatio="none" width="50.769" height="43.345" viewBox="0 0 50.769 43.345" overflow="visible">
            <ellipse fill="rgb(6,149,228)" rx="3.128" ry="3.128" transform="translate(-31.771,-75.709) translate(76.14,111.284)"/>
            <ellipse fill="rgb(156,195,89)" rx="3.128" ry="3.128" transform="translate(-31.771,-75.709) translate(74.834,90.174)"/>
            <ellipse fill="rgb(114,82,150)" rx="1.784" ry="1.784" transform="translate(-31.771,-75.709) translate(57.15,95.903)"/>
            <ellipse fill="rgb(240,9,61)" rx="1.784" ry="1.784" transform="translate(-31.771,-75.709) translate(63.509,113.834)"/>
            <ellipse fill="rgb(248,4,54)" rx="1.132" ry="1.132" transform="translate(-31.771,-75.709) translate(32.903,108.695)"/>
            <ellipse fill="rgb(248,4,54)" rx="1.132" ry="1.132" transform="translate(-31.771,-75.709) translate(81.408,76.841)"/>
            <ellipse fill="rgb(196,207,54)" rx="1.002" ry="1.002" transform="translate(-31.771,-75.709) translate(54.284,118.052)"/>
            <ellipse fill="rgb(48,162,189)" rx="1.002" ry="1.002" transform="translate(-31.771,-75.709) translate(72.382,99.955)"/>
            <ellipse fill="rgb(6,149,228)" rx="1.002" ry="1.002" transform="translate(-31.771,-75.709) translate(40.088,114.612)"/>
            <ellipse fill="rgb(255,184,10)" rx="1.002" ry="1.002" transform="translate(-31.771,-75.709) translate(65.184,103.333)"/>
        </symbol>
    </defs>
    <g>
        <path id="low.-path" d="M83.775,233.62C97.867,233.618,117.005,225.064,130.252,210.198C126.113,210.837,122.496,211.036,119.585,211.036C119.2,211.036,118.816,211.032,118.433,211.026C114.19,216.186,108.241,218.987,101.356,218.987C96.788,218.987,89.469,217.504,86.742,208.609C74.16,207.333,62.282,202.945,52.007,195.859C51.686,196.922,51.224,197.962,50.584,198.942C48.568,202.025,45.241,203.723,41.213,203.723C39.903,203.723,38.487,203.542,37.004,203.188C21.949,199.573,3.066,178.56,0.487,166.096C-0.78,159.975,0.444,154.248,3.929,149.966C7.085,146.089,11.837,143.866,16.965,143.866C18.029,143.866,19.095,143.961,20.156,144.145C19.704,140.813,19.476,137.447,19.476,134.067C19.476,120.676,23.022,107.654,29.763,96.181C29.494,95.453,29.286,94.687,29.133,93.884C28.384,89.887,29.687,85.621,32.803,81.867C33.273,81.3,33.779,80.753,34.309,80.23C29.713,78.717,27.653,75.461,27.334,72.563C26.893,68.543,29.539,64.964,33.625,64.056C36.061,63.515,45.073,58.45,49.863,53.894C64.038,31.924,90.213,19.142,119.776,20.049C133.42,20.46,145.88,29.662,156.581,37.443C163.263,37.826,212.188,32.913,213.543,33.252C216.773,34.06,218.914,36.923,218.999,40.545C219.158,47.407,211.544,59.917,194.693,64.972C191.957,65.793,189.063,66.21,186.094,66.21C184.821,66.21,183.53,66.133,182.221,65.983C183.085,67.998,183.891,70.061,184.636,72.169C195.38,102.528,197.949,170.615,165.53,195.382C156.678,225.291,126.246,252.484,92.282,260.528C88.332,261.463,84.182,261.938,79.947,261.938C60.782,261.938,42.898,252.328,33.677,242.804C28.195,237.142,25.388,231.319,25.561,225.963C25.881,216.072,32.422,209.426,41.837,209.426C50.8,209.426,59.893,215.353,65.566,224.895C69.853,232.106,77.832,233.62,83.771,233.62L83.775,233.62ZM33.636,99.338C26.221,110.44,22.075,129.48,24.56,142.191C28.41,138.472,35.905,139.767,37.398,142.563C38.236,133.154,46.646,114.067,49.844,109.268C49.68,105.794,44.124,103.751,41.828,103.347C39.081,102.863,36.329,102.156,33.636,99.338L33.636,99.338Z"/>
        <g id="wapuu.-body.-behind">
            <path id="belly" d="M61.407,75.714C63.91,80.053,69.605,85.308,66.541,94.818C63.476,104.327,52.888,108.315,46.627,125.032C40.366,141.749,37.81,161.691,45.721,178.633C46.886,181.128,47.228,183.046,49.844,185.408C58.992,193.665,75.084,202.273,89.659,203.064C114.572,204.416,133.459,204.259,148.857,197.733C165.08,190.858,177.553,175.174,181.565,153.412C185.578,131.65,161.367,122.961,153.345,100.036C145.539,77.728,123.148,63.028,82.18,68.228C69.048,69.894,60.697,74.482,61.407,75.714L61.407,75.714Z" fill="rgb(255,220,82)"/>
            <path id="arm" d="M42.73,100.054C48.941,101.25,51.093,104.071,52.118,106.237C55.868,101.408,60.089,99.349,61.688,95.538C63.287,91.727,63.393,88.274,62.391,85.9C61.389,83.527,56.905,82.969,54.13,83.153C54.265,88.307,54.689,90.784,51.636,93.971C48.584,97.157,46.37,99.838,42.73,100.054L42.73,100.054Z" fill="rgb(255,220,82)"/>
            <path d="M36.771,161.115C35.659,155.982,36.506,152.085,36.811,146.441C34.695,142.841,27.668,141.789,25.345,146.257C30.196,149.431,33.137,153.892,36.771,161.115z" fill="rgb(255,220,82)"/>
        </g>
        <g id="tour.-eiffel">
            <path id="sol" d="M97.877,157.707C130.986,163.797,155.985,178.962,153.67,191.551C151.354,204.14,122.594,209.416,89.485,203.326C56.377,197.235,31.377,182.07,33.693,169.481C36.009,156.892,64.769,151.616,97.877,157.707L97.877,157.707Z" fill="rgb(126,197,121)"/>
            <g id="tour">
                <g id="pied">
                    <path d="M106.443,167.387L106.509,166.284L113.871,163.495L120.951,166.944L120.868,168.046L113.179,172.027L106.443,167.387L106.443,167.387Z" fill="rgb(71,93,98)"/>
                    <path d="M106.521,166.282L113.948,162.39L120.945,166.94L113.256,170.922L106.521,166.282L106.521,166.282Z" fill="rgb(136,148,152)"/>
                </g>
                <g id="pied1">
                    <path d="M51.853,168.02L51.864,167.048L59.238,164.09L66.645,166.627L66.616,167.6L58.968,171.628L51.853,168.02L51.853,168.02Z" fill="rgb(71,93,98)"/>
                    <path d="M51.876,167.045L59.261,163.114L66.639,166.624L58.99,170.652L51.876,167.045L51.876,167.045Z" fill="rgb(136,148,152)"/>
                </g>
                <g id="pied2">
                    <path d="M77.809,182.581L77.729,181.425L85.611,178.32L94.044,181.751L94.104,182.906L86.02,187.268L77.809,182.581L77.809,182.581Z" fill="rgb(71,93,98)"/>
                    <path d="M77.742,181.422L85.544,177.161L94.037,181.747L85.953,186.109L77.742,181.422Z" fill="rgb(136,148,152)"/>
                </g>
                <path d="M112.991,170.172L107.538,166.432C107.538,166.432,108.389,163.277,105.685,161.473C107.801,161.645,113.957,163.219,112.991,170.172z" fill="rgb(0,53,84)"/>
                <path d="M65.559,166.659L59.121,170.181C58.607,168.153,60.959,162.168,66.321,161.49C65.318,163.494,64.658,164.154,65.559,166.659z" fill="rgb(3,39,58)"/>
                <g id="jambes">
                    <path d="M119.737,166.887L113.017,170.2C113.017,170.2,113.73,163.298,104.415,161.431C98.53,160.251,92.747,165.205,92.082,167.302C90.178,173.304,91.835,180.213,92.944,181.72C90.623,183.122,86.121,185.421,86.121,185.421C86.121,185.421,86.028,174.145,86.024,161.117C90.622,158.173,100.53,152.614,103.37,150.819C108.354,156.924,114.412,160.706,119.737,166.887z" fill="rgb(0,100,148)"/>
                    <path d="M52.41,166.876L59.128,170.191C59.128,170.191,58.418,163.289,67.733,161.425C73.618,160.247,79.4,165.202,80.065,167.3C81.967,173.303,80.307,180.211,79.198,181.717C81.519,183.12,86.1,185.501,86.1,185.501C86.1,185.501,86.116,174.145,86.125,161.117C81.528,158.172,71.621,152.61,68.782,150.813C63.796,156.917,57.737,160.697,52.41,166.876z" fill="rgb(0,53,84)"/>
                </g>
                <g id="étage">
                    <path d="M105.415,148.13L86.072,159.476L67.646,148.274L67.685,148.251L67.616,148.281L67.646,151.159L86.071,162.361L105.417,151.013L105.432,148.137L105.415,148.13L105.415,148.13Z" fill="rgb(71,93,98)"/>
                    <path d="M86.461,152.658L94.26,148.001L86.946,143.003L78.193,148.084L86.461,152.658Z" fill="rgb(53,72,76)"/>
                    <path d="M67.646,148.274L86.324,137.193L105.417,148.128L86.072,159.476L67.646,148.274L67.646,148.274ZM93.343,148.078L86.513,144.041L79.518,148.192L86.139,152.332L93.343,148.078L93.343,148.078Z" fill="rgb(136,148,152)"/>
                </g>
                <g id="top">
                    <path d="M97.087,150.287L93.402,147.963L91.019,141.632L93.242,141.632L97.087,150.287Z" fill="rgb(0,53,84)"/>
                    <path d="M79.616,148.333L75.258,150.283L79.316,140.695L82.221,141.63L79.616,148.333Z" fill="rgb(3,39,58)"/>
                    <path d="M97.557,140.982C98.636,143.638,100.793,148.102,100.793,148.102L96.977,150.285L93.158,141.675L89.391,143.042L90.356,154.037L86.125,156.492L86.135,96.476L88.549,95.681L97.557,140.982Z" fill="rgb(0,100,148)"/>
                    <path d="M74.699,140.979C73.619,143.634,71.461,148.097,71.461,148.097L75.276,150.281L79.098,141.673L82.865,143.041L81.896,154.035L86.125,156.492L86.135,96.476L83.723,95.68C83.723,95.68,82.755,121.174,74.699,140.979L74.699,140.979Z" fill="rgb(0,53,84)"/>
                </g>
                <g id="antenne">
                    <path d="M90.011,90.481L90.01,95.18L85.908,96.794L85.909,92.044L90.011,90.481Z" fill="rgb(0,100,148)"/>
                    <path d="M86.326,89.158L90.052,90.613L85.989,92.187L81.782,90.48L86.326,89.158Z" fill="rgb(0,130,186)"/>
                    <path d="M81.816,90.48L81.816,95.179L85.917,96.795L85.918,92.044L81.816,90.48L81.816,90.48Z" fill="rgb(0,53,84)"/>
                    <path d="M85.991,77.049L87.774,90.503L85.989,91.233L85.991,77.049L85.991,77.049Z" fill="rgb(0,100,148)"/>
                    <path d="M85.991,77.049L84.306,90.476L85.989,91.233L85.991,77.049Z" fill="rgb(0,53,84)"/>
                </g>
            </g>
        </g>
        <g id="confettis">
            <ellipse fill="white" rx="3.128" ry="3.128" transform="translate(0,0) translate(136.344,119.363)"/>
            <ellipse fill="white" rx="3.128" ry="3.128" transform="translate(0,0) translate(112.104,111.545)"/>
            <ellipse fill="white" rx="3.128" ry="3.128" transform="translate(0,0) translate(131.13,106.332)"/>
            <ellipse fill="white" rx="1.784" ry="1.784" transform="translate(0,0) translate(124.181,121.652)"/>
            <use width="37.449" height="30.01" xlink:href="#Symbol-3" transform="translate(63.9155,177.09) translate(-18.7245,-15.005)" style="animation: a0_t 12s linear infinite both;"/>
            <use width="2.004" height="2.004" xlink:href="#Symbol-7" transform="translate(104.991,81.774) translate(-1.002,-1.002)" style="animation: a1_t 10s linear infinite both;"/>
            <ellipse fill="white" rx="1.002" ry="1.002" transform="translate(0,0) translate(115.249,124.307)"/>
            <use width="41.14" height="30.443" xlink:href="#Symbol-6" transform="translate(113.508,90.2385) translate(-20.57,-15.2215)" style="animation: a2_t 14s linear infinite both;"/>
            <use width="43.948" height="38.082" xlink:href="#Symbol-2" transform="translate(54.834,139.677) translate(-21.974,-19.041)" style="animation: a3_t 14s linear infinite both;"/>
            <ellipse fill="white" rx="1.002" ry="1.002" transform="translate(0,0) translate(145.857,112.882)"/>
            <ellipse fill="white" rx="1.002" ry="1.002" transform="translate(0,0) translate(133.263,126.81)"/>
            <use width="23.027" height="43.353" xlink:href="#Symbol-4" transform="translate(95.0625,116.96) translate(-11.5135,-21.6765)" style="animation: a4_t 12s linear infinite both;"/>
            <use width="39.322" height="22.438" xlink:href="#Symbol-5" transform="translate(133.928,141.612) translate(-19.661,-11.219)" style="animation: a5_t 12s linear infinite both;"/>
            <use width="2.004" height="2.004" xlink:href="#Symbol-8" transform="translate(72.335,153.325) translate(-1.002,-1.002)" style="animation: a6_t 8.4s linear infinite both;"/>
            <ellipse fill="rgb(255,184,10)" rx="1.002" ry="1.002" transform="translate(0,0) translate(65.184,103.333)"/>
            <use width="50.769" height="43.345" xlink:href="#Symbol-1" transform="translate(57.1555,97.3815) translate(-25.3845,-21.6725)" style="animation: a7_t 15s linear infinite both;"/>
        </g>
        <g id="snowglobe">
            <g opacity="0.7">
                <path d="M159.945,112.223C149.628,84.764,136.07,75.26,119.653,69.167C116.482,67.99,107.263,70.82,104.148,70.097C90.539,71.446,84.959,68.876,82.723,66.18C82.134,66.073,81.559,65.964,80.988,65.854C77.978,74.619,62.305,80.823,57.799,80.599C55.858,80.501,54.405,79.486,53.34,78.248C35.593,89.551,23.893,111.938,23.893,134.501C23.893,164.96,54.625,201.464,91.348,203.064C91.348,203.064,106.224,190.85,117.548,170.663C123.458,155.4,143.644,147.521,160.611,153.798C162.472,147.546,163.47,140.922,163.47,134.067C163.47,126.432,159.945,112.223,159.945,112.223L159.945,112.223Z" fill="white" fill-opacity="0.298039" fill-rule="nonzero"/>
                <path d="M73.12,74.884C73.027,74.883,72.922,74.893,72.827,74.893C67.228,78.551,60.504,80.734,57.798,80.598C56.018,80.509,54.653,79.643,53.617,78.545C52.684,79.032,51.813,79.595,51.059,80.254C45.882,84.775,42.754,85.317,38.871,91.023C34.986,96.729,29.779,104.957,27.762,111.559C25.766,118.093,23.893,126.946,23.893,133.777C23.893,146.025,28.545,157.808,34.137,167.78C43.742,177.023,56.786,182.717,71.168,182.717C100.675,182.717,124.596,158.797,124.596,129.289C124.596,100.075,102.223,75.352,73.12,74.884" fill="white" fill-opacity="0.498039" fill-rule="nonzero"/>
                <path d="M71.077,80.259C56.752,90.599,47.429,107.391,47.429,126.333C47.429,157.726,73.039,183.214,104.583,183.214C110.518,183.214,116.244,182.311,121.628,180.637C112.212,187.434,100.634,191.444,88.123,191.444C56.578,191.444,30.968,165.956,30.968,134.563C30.968,109.077,47.847,87.483,71.077,80.259L71.077,80.259Z" fill="white" fill-opacity="0.8"/>
                <path d="M90.532,190.144C108.524,184.278,123.523,170.195,129.712,150.872C139.971,118.847,122.175,84.478,89.996,74.17C83.941,72.23,77.806,71.28,71.766,71.229C83.593,67.371,96.714,67.065,109.477,71.153C141.656,81.461,159.452,115.83,149.193,147.855C140.865,173.854,116.59,190.366,90.532,190.144L90.532,190.144Z" fill="white" fill-opacity="0.498039"/>
            </g>
        </g>
        <g id="wapuu.-color">
            <path d="M143.925,200.96C125.247,235.275,75.165,252.513,60.525,227.892C50.97,211.819,31.912,210.989,31.423,226.153C30.988,239.62,62.532,261.547,90.931,254.822C123.944,247.003,153.046,220.073,160.431,191.838L143.925,200.96L143.925,200.96Z" fill="rgb(255,136,0)"/>
            <path d="M49.667,73.689C32.726,78.467,30.988,70.649,34.897,69.78C38.807,68.911,49.231,62.831,54.444,57.618L49.667,73.689Z" fill="rgb(255,136,0)"/>
            <path d="M179.108,74.125C176.845,67.729,174.02,61.808,170.677,56.454C162.249,52.462,155.802,46.666,154.349,45.456C151.743,43.285,145.676,37.439,153.48,38.072C153.753,38.094,154.048,38.113,154.334,38.134C144.667,30.701,132.986,26.315,119.599,25.91C90.931,25.042,67.041,37.638,54.444,57.618C45.948,71.094,52.273,78.467,56.182,80.205C60.092,81.943,76.597,75.428,81.375,66.74C92.669,73.689,101.422,71.529,112.282,68.055C112.282,68.055,115.938,69.209,119.062,70.075C126.78,72.213,151.233,81.952,159.974,112.207C159.886,112.332,160.361,112.899,160.438,113.27C160.719,114.642,162.722,122.999,163.419,132.174C163.479,132.977,163.47,134.006,163.47,134.818C163.47,137.161,163.334,138.552,163.173,140.518C162.844,144.477,162.24,148.557,160.474,153.769C166.861,158.879,172.433,166.506,173.355,177.744C190.985,148.829,187.461,97.728,179.108,74.125" fill="rgb(255,210,0)" fill-rule="nonzero"/>
            <path d="M26.211,153.179C15.605,145.019,3.623,152.311,6.229,164.907C8.37,175.256,25.864,194.482,38.373,197.485C49.231,200.091,47.037,188.374,45.322,184.454C42.282,177.504,31.857,157.524,26.211,153.179" fill="rgb(255,210,0)" fill-rule="nonzero"/>
            <path d="M163.191,145.485C162.713,148.759,161.837,151.695,160.386,153.922C147.597,146.545,124.493,154.89,117.572,170.613C114.111,161.799,102.692,145.05,93.103,151.442C82.678,158.391,89.628,173.16,91.366,184.454C93.103,195.748,87.022,213.122,101.356,213.122C108.836,213.122,113.119,208.982,115.508,205.023C126.158,205.825,143.194,203.706,160.431,191.838C169.081,185.882,175.13,176.523,179.175,165.505C176.358,155.828,169.748,149.522,163.191,145.485" fill="rgb(255,210,0)" fill-rule="nonzero"/>
            <path d="M160.474,153.77C160.443,153.819,160.417,153.874,160.386,153.922C147.597,146.544,124.493,154.89,117.572,170.614C114.111,161.799,102.692,145.051,93.103,151.442C82.678,158.392,89.628,173.16,91.366,184.454C93.103,195.748,87.022,213.122,101.356,213.122C108.836,213.122,113.119,208.982,115.508,205.024C126.158,205.825,143.194,203.706,160.431,191.839C165.641,188.251,169.898,183.417,173.355,177.744C172.433,166.506,166.861,158.879,160.474,153.77" fill="rgb(255,210,0)" fill-rule="nonzero"/>
            <path d="M48.797,80.205C44.454,78.468,33.594,85.853,34.897,92.802C36.2,99.752,44.019,99.752,49.231,94.539C54.444,89.327,53.008,81.889,48.797,80.205" fill="rgb(255,210,0)" fill-rule="nonzero"/>
            <path d="M154.646,115.438L154.878,115.193C143.852,125.014,127.935,129.479,116.089,126.841C102.22,123.757,104.981,114.175,111.487,109.46C117.994,104.744,135.164,103.44,144.461,95.128C153.756,86.818,154.715,80.955,160.002,63.929C160.002,63.929,159.971,63.821,159.914,63.63C188.679,76.685,168.081,102.343,154.646,115.438" fill="rgb(255,210,0)" fill-rule="nonzero"/>
        </g>
        <g id="hight.-path">
            <path d="M173.792,57.806C171.442,56.886,169.209,55.785,167.144,54.622C171.182,60.484,174.593,67.222,177.265,74.776C187.222,102.912,189.915,169.165,159.323,190.228C139.886,203.611,121.848,203.634,114.995,203.03C113.942,202.94,112.971,203.727,112.875,204.803C112.78,205.878,113.574,206.828,114.65,206.923C115.925,207.037,117.566,207.129,119.517,207.129C128.679,207.129,144.65,205.077,161.539,193.448C179.938,180.78,185.746,154.958,187.379,135.529C189.438,111.028,185.634,86.706,180.95,73.472C178.948,67.81,176.547,62.579,173.792,57.806M116.72,69.036C105.225,72.714,93.104,75.244,82.022,69.362C75.855,77.925,60.204,84.13,55.388,81.992C53.075,80.962,50.153,78.387,48.896,74.249C47.821,70.709,47.624,64.771,52.791,56.576C66.212,35.288,91.205,23.082,119.657,23.955C134.139,24.394,147.081,29.405,157.715,38.332C156.182,38.259,154.753,38.175,153.48,38.072C152.412,37.984,151.612,38.023,151.019,38.154C141.894,31.779,131.247,28.218,119.541,27.863C92.485,27.045,68.772,38.558,56.097,58.661C52.632,64.157,51.434,69.155,52.637,73.111C53.513,75.993,55.522,77.772,56.976,78.419C59.438,79.516,75.109,74.077,79.662,65.798C79.92,65.329,80.358,64.986,80.877,64.851C81.395,64.715,81.945,64.796,82.4,65.076C93.091,71.654,105.107,68.647,115.529,65.312C116.561,64.985,117.657,65.55,117.987,66.578C118.315,67.607,117.75,68.706,116.72,69.036" fill-rule="nonzero"/>
            <path d="M80.082,258.01C64.88,258.01,49.971,251.5,40.516,243.772C33.323,237.892,29.296,231.447,29.469,226.09C29.677,219.656,32.916,215.162,38.357,213.761C45.266,211.977,55.68,215.919,62.205,226.893C67.578,235.927,77.341,237.678,84.542,237.522C106.004,237.115,130.794,220.995,142.208,200.026C142.723,199.078,143.911,198.727,144.859,199.243C145.806,199.759,146.158,200.946,145.642,201.894C133.609,224.001,107.373,240.999,84.617,241.43C72.88,241.624,63.786,237.198,58.846,228.89C53.303,219.57,44.838,216.128,39.333,217.547C35.641,218.498,33.526,221.576,33.376,226.216C33.246,230.287,36.839,235.719,42.989,240.746C54.047,249.786,73.023,257.056,90.481,252.92C122.573,245.32,151.196,219.423,158.54,191.344C158.814,190.299,159.874,189.674,160.926,189.948C161.97,190.22,162.595,191.289,162.322,192.334C154.633,221.728,124.799,248.808,91.382,256.725C87.651,257.607,83.856,258.01,80.082,258.01" fill-rule="nonzero"/>
            <path d="M151.684,82.938C149.644,86.829,147.123,90.155,143.8,93.235C138.58,98.074,130.506,100.797,123.383,103.199C117.982,105.019,113.32,106.588,110.326,108.86C105.725,112.347,103.394,117.286,104.39,121.442C105.093,124.37,107.685,128.177,116.058,129.684C131.699,132.501,152.24,123.836,162.819,109.957C163.473,109.099,163.308,107.873,162.45,107.217C161.59,106.563,160.363,106.728,159.71,107.588C149.942,120.4,131.074,128.416,116.751,125.837C111.839,124.952,108.799,123.068,108.193,120.531C107.568,117.925,109.373,114.486,112.687,111.976C115.18,110.092,119.769,108.542,124.633,106.904C132.127,104.377,140.625,101.512,146.459,96.102C150.005,92.815,153.187,88.243,155.396,84.19C157.358,80.587,153.441,79.585,151.684,82.938L151.684,82.938Z" fill-rule="nonzero"/>
            <path d="M97.627,152.628C96.547,152.628,95.54,152.95,94.549,153.611C88.393,157.714,89.635,165.141,92.235,175.998C92.877,178.685,93.542,181.463,93.942,184.057C94.461,187.43,94.335,191.2,94.214,194.842C94.025,200.502,93.831,206.354,96.271,208.876C97.338,209.979,99.002,210.516,101.355,210.516C113.272,210.516,115.633,198.004,115.73,197.472C115.748,197.36,115.777,197.243,115.811,197.135C118.134,189.779,118.82,183.826,115.794,173.456C113.859,166.488,104.657,152.628,97.627,152.628M101.355,215.729C97.567,215.729,94.597,214.642,92.524,212.5C88.548,208.388,88.78,201.414,89.004,194.67C89.118,191.264,89.235,187.743,88.791,184.85C88.425,182.468,87.813,179.914,87.166,177.211C84.752,167.129,82.017,155.7,91.658,149.274C93.507,148.04,95.515,147.416,97.627,147.416C108.947,147.416,118.925,165.25,120.807,172.029C124.156,183.507,123.364,190.47,120.833,198.541C119.727,204.592,114.302,215.729,101.355,215.729" fill-rule="nonzero"/>
            <path d="M143.667,150.073C131.68,151.287,121.792,158.121,116.542,168.825C116.065,169.794,116.466,170.964,117.435,171.441C117.712,171.577,118.007,171.641,118.295,171.641C119.016,171.641,119.711,171.238,120.051,170.547C126.409,157.589,137.823,154.595,144.061,153.961C152.555,153.106,161.154,155.653,164.532,160.022C165.19,160.877,166.42,161.033,167.272,160.373C168.125,159.713,168.284,158.486,167.624,157.632C166.411,156.062,164.72,154.695,162.706,153.556C164.504,147.248,165.424,140.697,165.424,134.067C165.424,126.384,164.206,118.827,161.799,111.605C161.457,110.581,160.351,110.028,159.328,110.368C158.303,110.71,157.75,111.816,158.09,112.84C160.364,119.663,161.515,126.804,161.515,134.067C161.515,140.127,160.699,146.117,159.112,151.895C154.607,150.227,149.144,149.516,143.667,150.073" fill-rule="nonzero"/>
            <path d="M9.5,151.441C5.054,154.195,6.448,160.335,6.318,161.905C5.505,171.701,25.255,194.781,36.841,197.561C37.727,197.774,39.865,198.12,42.255,198.12C44.062,198.12,45.311,196.428,46.31,194.201C47.368,191.844,46.528,187.229,45.337,184.698C39.131,171.501,30.483,156.885,25.345,152.932C22.757,150.942,19.125,148.809,16.442,148.809C16.442,148.809,11.774,150.033,9.5,151.441zM41.212,199.814C40.21,199.814,39.1,199.67,37.917,199.385C24.697,196.212,6.603,176.362,4.315,165.303C3.292,160.357,3.139,154.536,5.867,151.183C8.279,148.224,11.433,145.774,16.213,144.857C19.7,144.187,22.377,144.608,25.986,146.626C37.675,153.163,48.653,179.057,50.762,187.84C51.78,192.081,51.528,193.546,48.802,197.715C47.904,199.09,44.625,199.814,41.212,199.814" fill-rule="nonzero"/>
            <path d="M6.465,157.419C5.858,160.485,6.228,161.338,7.008,165.112C9,174.737,24.604,192.118,35.441,196.694C38.045,197.794,39.865,198.12,42.255,198.12C44.062,198.12,45.778,196.761,46.777,194.534C47.835,192.177,47.328,188.03,46.138,185.498C39.932,172.302,30.483,155.684,25.345,151.731C22.757,149.741,19.517,149.209,16.834,149.209C10.698,149.969,7.177,153.816,6.465,157.419zM41.212,199.814C40.21,199.814,39.1,199.67,37.917,199.385C24.697,196.212,6.603,176.362,4.315,165.303C3.292,160.357,3.139,154.536,5.867,151.183C8.279,148.224,11.433,145.774,16.213,144.857C19.7,144.187,22.377,144.608,25.986,146.626C37.675,153.163,48.653,179.057,50.762,187.84C51.78,192.081,51.528,193.546,48.802,197.715C47.904,199.09,44.625,199.814,41.212,199.814" fill-rule="nonzero"/>
            <path d="M45.328,81.485C42.963,80.693,39.383,83.491,36.212,86.963C34.764,88.548,33.725,91.995,35.045,93.901C36.893,96.568,39.532,96.299,41.202,96.299C43.397,96.299,45.88,95.125,47.849,93.157C50.045,90.962,51.029,88.064,50.484,85.405C50.145,83.754,47.26,82.07,46.09,81.602C45.897,81.525,45.634,81.485,45.328,81.485M41.202,100.209C36.944,100.209,32.018,98.969,31.203,94.622C30.672,91.79,30.844,87.31,33.204,84.468C36.266,80.776,41.727,77.575,45.328,77.575C46.138,77.575,46.883,77.71,47.541,77.973C49.936,78.931,53.708,81.676,54.313,84.618C55.125,88.568,53.742,92.794,50.613,95.921C47.888,98.646,44.457,100.209,41.202,100.209" fill-rule="nonzero"/>
            <path d="M40.232,77.188C35.81,77.188,33.6,75.849,32.539,74.777C31.38,73.603,30.934,72.059,31.35,70.647C31.76,69.253,32.928,68.216,34.473,67.872C37.841,67.123,47.923,61.374,53.062,56.236C53.826,55.473,55.062,55.473,55.826,56.236C56.59,56.999,56.59,58.238,55.826,59C50.442,64.385,39.711,70.713,35.322,71.689C35.139,71.729,35.082,71.792,35.081,71.792C35.1,71.785,35.215,72.003,35.647,72.296C36.462,72.846,39.832,74.432,49.136,71.808C50.173,71.519,51.255,72.12,51.548,73.159C51.841,74.198,51.235,75.277,50.198,75.571C46.019,76.75,42.762,77.188,40.232,77.188" fill-rule="nonzero"/>
            <path d="M110.044,42.416C107.884,42.416,106.134,44.166,106.134,46.325C106.134,48.485,107.884,50.235,110.044,50.235C112.203,50.235,113.953,48.485,113.953,46.325C113.953,44.166,112.203,42.416,110.044,42.416M64.869,53.275C62.711,53.275,60.959,55.025,60.959,57.184C60.959,59.343,62.711,61.094,64.869,61.094C67.028,61.094,68.778,59.343,68.778,57.184C68.778,55.025,67.028,53.275,64.869,53.275M86.154,52.84C90.063,52.404,89.628,56.749,86.154,59.355C82.949,61.758,82.678,61.527,79.203,61.094C75.729,60.66,74.792,57.777,77.9,55.446C79.638,54.143,82.244,53.275,86.154,52.84" fill-rule="nonzero"/>
            <path d="M116.187,67.486C116.187,67.486,134.36,70.405,148.259,89.299" fill="none" stroke="black" stroke-width="3px"/>
        </g>
        <path d="M166.777,81.51C162.275,81.508,158.145,84.509,156.928,89.051C155.476,94.472,158.713,100.067,164.145,101.523C165.026,101.758,165.911,101.871,166.782,101.872L166.813,101.872C171.303,101.86,175.416,98.862,176.631,94.33C178.083,88.91,174.846,83.315,169.414,81.86C168.544,81.627,167.669,81.514,166.809,81.51L166.777,81.51L166.777,81.51ZM166.728,92.506L162.005,99.5C162.736,99.945,163.541,100.298,164.411,100.531C165.442,100.807,166.479,100.894,167.486,100.818C167.473,100.773,167.462,100.727,167.455,100.679L166.728,92.506L166.728,92.506ZM175.688,89.533C175.65,89.824,175.591,90.132,175.504,90.458C175.264,91.354,174.825,92.317,173.982,93.443L169.185,100.524C172.229,99.698,174.763,97.325,175.636,94.064C176.048,92.527,176.042,90.977,175.688,89.533zM157.922,89.318C156.985,92.816,158.212,96.386,160.783,98.61L159.653,85.926C158.867,86.893,158.266,88.036,157.922,89.318zM172.878,92.847C173.171,91.754,172.98,90.893,172.801,90.214C172.547,89.365,172.291,88.636,172.486,87.907C172.704,87.095,173.524,86.504,174.394,86.737C174.433,86.748,174.469,86.762,174.507,86.775C173.317,84.912,171.454,83.469,169.148,82.852C166.053,82.022,162.907,82.878,160.68,84.853C160.886,84.915,161.081,84.972,161.247,85.016C162.173,85.264,163.638,85.536,163.638,85.536C164.123,85.636,163.991,86.351,163.499,86.28C163.499,86.28,163.004,86.207,162.463,86.092L163.123,96.531L166.616,91.249L166.247,87.106C165.777,86.95,165.341,86.773,165.341,86.773C164.871,86.617,165.122,85.904,165.592,86.06C165.592,86.06,167.024,86.564,167.895,86.797C168.821,87.046,170.285,87.318,170.285,87.318C170.77,87.418,170.639,88.133,170.147,88.061C170.147,88.061,169.651,87.988,169.111,87.874L169.765,98.233L171.438,95.524C172.149,94.403,172.675,93.604,172.878,92.847L172.878,92.847Z" fill="rgb(93,68,41)"/>
        <g id="casquette.-2">
            <path d="M88.824,23.944C81.266,24.294,79.728,29.01,78.034,34.738C73.12,35.024,68.248,37.06,65.279,40.745C62.766,38.856,60.756,36.746,59.601,34.53C57.615,30.721,56.843,24.444,60.993,19.006C63.815,15.306,69.691,8.72,78.565,10.769C87.439,12.818,95.316,18.208,110.828,24.439C120.982,28.517,130.038,32.588,130.038,32.588C130.038,32.588,129.92,37.525,122.365,34.92C114.809,32.315,96.382,23.593,88.824,23.944L88.824,23.944Z" fill="rgb(0,41,72)"/>
            <path d="M72.573,12.46C75.72,10.558,75.129,9.738,83.375,8.71C91.62,7.682,88.373,6.234,95.033,5.771C101.694,5.308,105.445,5.708,110.788,5.802C116.132,5.895,118.527,5.564,124.128,5.391C129.729,5.219,132.899,4.089,140.723,6.687C148.546,9.284,151.562,11.772,157.259,14.693C162.955,17.614,165.94,19.07,169.462,20.768C172.985,22.466,179.823,27.674,179.455,33.104C179.087,38.535,179.651,39.491,179.81,44.676C179.97,49.861,183.013,53.233,180.175,56.491C177.337,59.748,178.449,61.26,175.532,61.866C172.614,62.473,169.975,54.842,164.504,50.609C161.698,48.438,160.949,37.77,153.59,36.376C149.763,35.651,147.268,39.87,144.298,39.091C138.804,37.651,132.417,35.96,130.038,34.195C124.026,29.736,118.954,28.256,109.993,23.372C101.031,18.488,95.187,16.036,87.05,14.274C81.572,13.087,79.36,11.799,72.573,12.46L72.573,12.46Z" fill="rgb(0,84,128)"/>
            <g transform="translate(75.3921,5.72315) scale(0.446319,0.442249)">
                <path d="M60.8,31.29C61.9,31.81,63.013,32.35,64.14,32.91L221.14,39.38C220.427,38.827,219.72,38.303,219.02,37.81L60.8,31.29Z" fill="rgb(0,95,139)" fill-rule="nonzero"/>
            </g>
            <g transform="translate(75.3921,5.72315) scale(0.446319,0.442249)">
                <path d="M73.75,37.86L76.75,39.47L228,45.7C227.53,45.17,227,44.7,226.54,44.16L73.75,37.86Z" fill="rgb(0,95,139)" fill-rule="nonzero"/>
            </g>
            <g transform="translate(75.3921,5.72315) scale(0.446319,0.442249)">
                <path d="M86.13,44.4L89.36,46L232.51,51.9C232.223,51.387,231.92,50.88,231.6,50.38L86.13,44.4Z" fill="rgb(0,95,139)" fill-rule="nonzero"/>
            </g>
            <g transform="translate(75.3921,5.72315) scale(0.446319,0.442249)">
                <path d="M99.63,51L103,52.61L234.81,58C234.717,57.5,234.6,57,234.46,56.5L99.63,51Z" fill="rgb(0,95,139)" fill-rule="nonzero"/>
            </g>
            <g transform="translate(75.3921,5.72315) scale(0.446319,0.442249)">
                <path d="M112.37,57.55C113.27,58.07,114.17,58.55,115.07,59.14L234.93,64.08C234.93,63.61,234.98,63.08,235.02,62.6L112.37,57.55Z" fill="rgb(0,95,139)" fill-rule="nonzero"/>
            </g>
            <g transform="translate(75.3921,5.72315) scale(0.446319,0.442249)">
                <path d="M234.78,68.63L122.31,64L122.78,64.34C123.419,64.796,124.087,65.21,124.78,65.58L234.78,70.12C234.78,69.63,234.78,69.14,234.78,68.63z" fill="rgb(0,95,139)" fill-rule="nonzero"/>
            </g>
            <g transform="translate(75.3921,5.72315) scale(0.446319,0.442249)">
                <path d="M40.42,0C38.356,0.173,36.319,0.586,34.35,1.23L158.92,6.37C157.68,5.82,156.38,5.28,155.01,4.73L40.42,0Z" fill="rgb(0,95,139)" fill-rule="nonzero"/>
            </g>
            <g transform="translate(75.3921,5.72315) scale(0.446319,0.442249)">
                <path d="M23.52,5.34C21.73,5.72,19.52,6.09,16.76,6.43L16.11,6.51L171.79,12.93L168.91,11.33L23.52,5.34Z" fill="rgb(0,95,139)" fill-rule="nonzero"/>
            </g>
            <g transform="translate(75.3921,5.72315) scale(0.446319,0.442249)">
                <path d="M0.68,10.43L0.43,10.43L0.21,10.58L0.06,10.81L0,11.14L0,11.43L0.13,11.68C0.25,11.806,0.408,11.891,0.58,11.92L183.47,19.46C182.47,18.92,181.47,18.38,180.47,17.86L0.68,10.43Z" fill="rgb(0,95,139)" fill-rule="nonzero"/>
            </g>
            <g transform="translate(75.3921,5.72315) scale(0.446319,0.442249)">
                <path d="M17.12,17.13C19.34,17.7,21.71,18.31,24.44,18.91L196.44,26L193.23,24.39L17.12,17.13Z" fill="rgb(0,95,139)" fill-rule="nonzero"/>
            </g>
            <g transform="translate(75.3921,5.72315) scale(0.446319,0.442249)">
                <path d="M43.85,24.27C45.37,24.797,46.887,25.353,48.4,25.94L209.81,32.6L206.47,31L43.85,24.27Z" fill="rgb(0,95,139)" fill-rule="nonzero"/>
            </g>
            <path d="M131.608,3.045C132.21,3.053,132.811,3.075,133.41,3.12C134.261,3.185,135.109,3.292,135.95,3.438C138.038,3.799,140.076,4.393,142.078,5.081C143.404,5.538,144.716,6.034,146.008,6.581C147.194,7.084,148.361,7.63,149.508,8.215C151.455,9.208,153.34,10.315,155.244,11.387C155.553,11.559,155.863,11.731,156.174,11.903C156.83,12.26,157.488,12.612,158.152,12.954C159.128,13.454,160.105,13.952,161.083,14.449C162.856,15.347,164.633,16.239,166.417,17.116C167.28,17.54,168.145,17.961,169.011,18.38C169.508,18.62,170.006,18.858,170.502,19.101C170.698,19.2,170.698,19.2,170.894,19.303C171.868,19.826,172.803,20.416,173.702,21.061C174.333,21.514,174.947,21.994,175.539,22.499C176.004,22.897,176.456,23.31,176.892,23.74C177.225,24.069,177.548,24.408,177.86,24.758C178.104,25.031,178.341,25.312,178.57,25.599C179.917,27.29,181.011,29.263,181.331,31.426C181.403,31.916,181.429,32.408,181.421,32.902C181.405,33.327,181.373,33.75,181.349,34.174C181.292,35.35,181.266,36.525,181.317,37.7C181.368,38.901,181.49,40.097,181.585,41.294C181.612,41.663,181.638,42.032,181.662,42.401C181.696,42.977,181.726,43.553,181.747,44.129C181.759,44.43,181.766,44.729,181.784,45.029C181.793,45.166,181.805,45.301,181.817,45.437C181.853,45.771,181.896,46.103,181.952,46.434C182.04,46.957,182.156,47.473,182.281,47.987C182.474,48.758,182.689,49.522,182.884,50.292C183.081,51.088,183.249,51.89,183.312,52.709C183.37,53.452,183.325,54.208,183.151,54.934C183.028,55.444,182.841,55.938,182.597,56.402C182.419,56.74,182.212,57.062,181.981,57.367C181.806,57.597,181.613,57.813,181.428,58.035C181.328,58.157,181.231,58.28,181.135,58.404C180.834,58.807,180.557,59.226,180.316,59.668C180.068,60.123,179.857,60.597,179.624,61.061C179.571,61.164,179.516,61.266,179.459,61.368C179.33,61.592,179.193,61.81,179.035,62.015C178.79,62.333,178.503,62.618,178.179,62.855C177.746,63.173,177.256,63.403,176.746,63.568C176.533,63.636,176.317,63.694,176.099,63.743C175.795,63.812,175.491,63.858,175.178,63.856C174.981,63.854,174.785,63.837,174.591,63.803C174.45,63.78,174.311,63.747,174.174,63.708C173.068,63.389,172.17,62.607,171.41,61.773C171.27,61.619,171.133,61.462,170.999,61.302C170.834,61.106,170.674,60.907,170.516,60.705C170.242,60.356,169.978,60,169.715,59.642C169.159,58.879,168.612,58.11,168.054,57.349C167.058,56.001,166.021,54.675,164.827,53.494C164.517,53.187,164.196,52.89,163.864,52.607C163.644,52.419,163.416,52.242,163.19,52.061L163.078,51.964C162.9,51.802,162.732,51.633,162.576,51.45C162.158,50.963,161.821,50.411,161.522,49.845C161.191,49.218,160.907,48.567,160.63,47.915C160.283,47.085,159.949,46.25,159.6,45.421C159.362,44.862,159.119,44.305,158.855,43.758C158.704,43.444,158.547,43.134,158.382,42.827C158.244,42.572,158.1,42.319,157.95,42.07C157.157,40.762,156.14,39.516,154.753,38.813C154.388,38.628,154.004,38.484,153.608,38.382C153.413,38.331,153.214,38.287,153.014,38.264C152.797,38.239,152.577,38.241,152.36,38.266C151.564,38.36,150.83,38.747,150.141,39.133C149.633,39.422,149.133,39.727,148.623,40.014C148.152,40.276,147.672,40.523,147.169,40.717C146.46,40.991,145.709,41.157,144.947,41.142C144.599,41.135,144.257,41.087,143.918,41.011C143.531,40.915,143.146,40.81,142.761,40.709C142.23,40.569,141.7,40.428,141.17,40.287C138.747,39.635,136.323,38.968,133.952,38.144C133.136,37.861,132.326,37.558,131.534,37.216C130.661,36.84,129.811,36.415,129.026,35.876C128.796,35.709,128.567,35.54,128.336,35.373C127.146,34.525,125.92,33.733,124.653,33.003C123.031,32.068,121.356,31.232,119.674,30.412C118.412,29.801,117.147,29.196,115.884,28.585C114.285,27.806,112.693,27.014,111.117,26.189C109.748,25.471,108.395,24.724,107.031,23.997C106.516,23.725,106.001,23.455,105.485,23.187C103.725,22.281,101.95,21.404,100.143,20.596C98.31,19.775,96.446,19.025,94.547,18.369C92.779,17.759,90.983,17.231,89.168,16.775C88.572,16.625,87.974,16.483,87.375,16.348C86.871,16.234,86.366,16.126,85.863,16.011C85.463,15.919,85.064,15.823,84.666,15.726C83.702,15.486,82.741,15.235,81.777,14.996C81.469,14.922,81.161,14.85,80.851,14.78C80.37,14.676,79.887,14.579,79.4,14.501C78.765,14.399,78.126,14.326,77.484,14.283C75.907,14.179,74.327,14.259,72.756,14.406L72.48,14.413C72.388,14.402,72.296,14.397,72.205,14.38C71.934,14.328,71.674,14.218,71.448,14.058C71.297,13.952,71.162,13.825,71.046,13.681C70.698,13.246,70.551,12.67,70.648,12.121C70.68,11.939,70.738,11.763,70.819,11.597C70.941,11.349,71.116,11.128,71.33,10.952C71.464,10.842,71.555,10.792,71.693,10.708C71.815,10.632,71.937,10.554,72.058,10.476C72.206,10.38,72.352,10.281,72.498,10.182C72.839,9.946,73.177,9.705,73.518,9.469C73.664,9.371,73.809,9.274,73.956,9.18C74.423,8.887,74.906,8.625,75.414,8.407C76.548,7.921,77.76,7.635,78.969,7.402C79.976,7.208,80.992,7.054,82.009,6.916C82.62,6.833,83.233,6.759,83.844,6.676C84.168,6.63,84.167,6.63,84.49,6.581C85.579,6.407,86.68,6.21,87.719,5.83C87.963,5.741,88.201,5.64,88.435,5.528C88.767,5.368,89.091,5.19,89.42,5.025C89.544,4.965,89.667,4.906,89.792,4.849C90.138,4.697,90.49,4.562,90.851,4.452C91.774,4.171,92.733,4.026,93.69,3.925C94.702,3.818,95.719,3.761,96.735,3.71C98.658,3.613,100.583,3.58,102.508,3.606C104.643,3.635,106.776,3.732,108.91,3.801C109.384,3.815,109.859,3.827,110.333,3.838C111.911,3.868,113.489,3.873,115.067,3.829C117.107,3.772,119.146,3.645,121.185,3.548C121.804,3.521,122.423,3.495,123.043,3.472C123.632,3.451,124.221,3.435,124.809,3.408C125.049,3.397,125.288,3.384,125.527,3.37C126.604,3.302,127.679,3.215,128.756,3.141C129.065,3.122,129.373,3.104,129.683,3.088C130.16,3.066,130.637,3.051,131.116,3.045C131.362,3.044,131.362,3.044,131.608,3.045L131.608,3.045ZM131.148,6.955C129.514,6.975,127.886,7.129,126.257,7.241C125.835,7.268,125.414,7.293,124.991,7.314C124.389,7.34,123.787,7.357,123.185,7.379C122.723,7.395,122.261,7.414,121.799,7.434C120.102,7.51,118.405,7.606,116.707,7.682C114.89,7.756,113.073,7.788,111.255,7.764C108.921,7.733,106.589,7.625,104.256,7.555C103.808,7.542,103.359,7.532,102.91,7.523C100.916,7.491,98.924,7.513,96.932,7.614C95.988,7.662,95.041,7.713,94.101,7.813C93.392,7.887,92.676,7.983,91.992,8.191C91.787,8.254,91.587,8.329,91.391,8.417C91.003,8.591,90.633,8.801,90.253,8.991C90.121,9.055,89.988,9.117,89.855,9.179C89.536,9.32,89.213,9.451,88.883,9.566C88.233,9.792,87.567,9.967,86.895,10.113C86.065,10.293,85.226,10.431,84.385,10.548C83.657,10.65,82.928,10.736,82.2,10.836C81.989,10.866,81.778,10.897,81.567,10.928L81.546,10.931C81.798,10.986,82.049,11.043,82.3,11.101C83.403,11.366,84.5,11.656,85.601,11.93C86.058,12.042,86.516,12.151,86.975,12.255C87.523,12.378,88.072,12.497,88.619,12.622C88.996,12.71,89.373,12.799,89.749,12.891C91.442,13.312,93.121,13.781,94.779,14.323C96.902,15.017,98.987,15.822,101.034,16.715C103.421,17.757,105.757,18.914,108.064,20.123C109.432,20.84,110.784,21.584,112.146,22.311C112.661,22.584,113.178,22.855,113.696,23.124C114.765,23.673,115.84,24.212,116.919,24.741C118.403,25.467,119.895,26.176,121.382,26.895C121.976,27.185,122.568,27.476,123.159,27.771C124.816,28.608,126.451,29.487,128.028,30.467C128.709,30.89,129.378,31.33,130.036,31.788C130.455,32.079,130.865,32.381,131.278,32.68C131.368,32.742,131.459,32.801,131.552,32.859C131.989,33.122,132.447,33.347,132.914,33.553C133.4,33.768,133.895,33.964,134.394,34.15C135.759,34.657,137.151,35.089,138.548,35.499C139.929,35.903,141.317,36.282,142.707,36.651C143.057,36.744,143.407,36.836,143.757,36.928C144.054,37.007,144.495,37.143,144.865,37.216C144.918,37.226,144.971,37.231,145.026,37.233C145.311,37.235,145.592,37.141,145.852,37.033C146.192,36.893,146.515,36.715,146.835,36.535C147.297,36.268,147.755,35.993,148.22,35.728C148.597,35.517,148.979,35.313,149.372,35.132C150.003,34.842,150.662,34.608,151.344,34.472C151.917,34.358,152.503,34.314,153.087,34.348C153.45,34.369,153.81,34.422,154.166,34.498C154.916,34.657,155.647,34.904,156.339,35.236C156.817,35.466,157.276,35.736,157.71,36.04C157.974,36.225,158.229,36.423,158.475,36.632C160.459,38.317,161.759,40.643,162.806,42.988C163.028,43.484,163.239,43.985,163.447,44.487C163.71,45.123,163.967,45.762,164.233,46.397C164.334,46.636,164.437,46.874,164.542,47.112C164.733,47.531,164.928,47.949,165.161,48.347C165.304,48.591,165.46,48.845,165.67,49.038C165.726,49.085,165.786,49.129,165.843,49.175C165.971,49.275,165.999,49.299,166.125,49.401C166.582,49.781,167.025,50.177,167.451,50.592C168.386,51.503,169.243,52.492,170.051,53.517C171.084,54.825,172.032,56.195,173.02,57.537C173.163,57.731,173.308,57.924,173.454,58.115C173.777,58.531,174.105,58.944,174.471,59.323C174.683,59.541,174.909,59.764,175.176,59.914C175.195,59.924,175.195,59.924,175.215,59.933C175.222,59.937,175.221,59.934,175.232,59.931C175.262,59.924,175.292,59.917,175.322,59.91C175.375,59.897,175.427,59.883,175.479,59.867C175.539,59.85,175.598,59.83,175.656,59.808C175.731,59.779,175.81,59.747,175.874,59.697C175.921,59.66,175.955,59.608,175.988,59.558C176.033,59.488,176.074,59.414,176.113,59.34C176.151,59.267,176.171,59.226,176.213,59.142C176.37,58.818,176.525,58.494,176.686,58.172C177.041,57.484,177.442,56.824,177.902,56.201C178.066,55.978,178.237,55.76,178.413,55.546C178.55,55.381,178.694,55.221,178.829,55.053C178.89,54.974,178.948,54.893,179.003,54.81C179.135,54.604,179.243,54.386,179.314,54.151C179.438,53.738,179.443,53.299,179.403,52.873C179.35,52.32,179.224,51.777,179.092,51.24C178.914,50.538,178.721,49.841,178.54,49.14C178.287,48.131,178.071,47.113,177.954,46.079C177.919,45.769,177.892,45.459,177.875,45.148C177.85,44.711,177.841,44.274,177.823,43.836C177.804,43.438,177.784,43.041,177.76,42.643C177.684,41.469,177.574,40.298,177.485,39.125C177.463,38.814,177.444,38.503,177.426,38.192C177.373,37.088,177.366,35.984,177.405,34.88C177.421,34.414,177.444,33.948,177.472,33.483C177.486,33.254,177.505,33.026,177.513,32.798C177.514,32.71,177.514,32.622,177.512,32.534C177.503,32.323,177.483,32.114,177.449,31.906C177.326,31.169,177.048,30.464,176.697,29.808C176.04,28.581,175.13,27.496,174.144,26.522C173.776,26.158,173.393,25.808,173,25.472C172.431,24.986,171.838,24.528,171.226,24.097C170.483,23.575,169.712,23.096,168.908,22.676C168.379,22.408,167.842,22.157,167.309,21.899C166.436,21.477,165.564,21.051,164.693,20.624C161.905,19.251,159.132,17.848,156.366,16.431C156.098,16.293,155.83,16.154,155.563,16.014C154.975,15.702,154.39,15.384,153.808,15.062C152.598,14.387,151.396,13.696,150.188,13.017C148.831,12.262,147.461,11.533,146.053,10.878C144.344,10.083,142.588,9.391,140.806,8.778C138.92,8.129,136.999,7.567,135.028,7.247C133.885,7.062,132.733,6.969,131.575,6.955C131.361,6.954,131.362,6.954,131.148,6.955L131.148,6.955Z" fill-rule="nonzero"/>
            <path d="M92.535,6.307C93.001,6.321,93.465,6.356,93.926,6.428C94.714,6.55,95.485,6.767,96.227,7.057C97.561,7.578,98.787,8.328,100.032,9.025C100.274,9.158,100.273,9.158,100.516,9.289C100.926,9.506,101.338,9.716,101.76,9.905C102.335,10.163,102.925,10.386,103.53,10.562C104.324,10.793,105.14,10.943,105.964,11.02C106.481,11.068,107,11.085,107.52,11.084L107.619,11.088C107.72,11.099,107.816,11.114,107.913,11.145C108.135,11.215,108.337,11.346,108.493,11.52C108.831,11.899,108.917,12.456,108.71,12.92C108.655,13.041,108.582,13.154,108.494,13.254C108.405,13.353,108.301,13.439,108.187,13.507C108.011,13.612,107.822,13.663,107.621,13.687C107.457,13.693,107.457,13.69,107.293,13.691C106.697,13.684,106.102,13.656,105.509,13.594C104.472,13.484,103.447,13.273,102.453,12.958C101.7,12.719,100.967,12.421,100.254,12.079C99.749,11.838,99.256,11.573,98.767,11.303C98.203,10.988,97.644,10.665,97.079,10.352C96.14,9.842,95.177,9.371,94.132,9.122C93.766,9.035,93.393,8.975,93.018,8.942C91.361,8.797,89.715,9.183,88.154,9.709L88.059,9.737C87.96,9.758,87.864,9.775,87.762,9.776C87.529,9.781,87.296,9.721,87.093,9.606C86.977,9.54,86.872,9.456,86.782,9.358C86.437,8.985,86.34,8.43,86.54,7.962C86.592,7.84,86.663,7.726,86.75,7.625C86.883,7.47,87.046,7.36,87.229,7.274C87.391,7.213,87.391,7.216,87.555,7.16C88.491,6.857,89.442,6.603,90.416,6.454C90.997,6.365,91.58,6.318,92.168,6.306C92.352,6.305,92.351,6.305,92.535,6.307L92.535,6.307Z" fill-rule="nonzero"/>
            <path d="M151.5,31.062C151.966,31.076,152.43,31.112,152.892,31.183C153.68,31.305,154.45,31.522,155.193,31.812C156.526,32.333,157.752,33.083,158.998,33.78C159.239,33.913,159.239,33.913,159.482,34.044C159.891,34.261,160.303,34.471,160.726,34.66C161.3,34.918,161.891,35.141,162.495,35.317C163.29,35.548,164.106,35.698,164.93,35.775C165.447,35.823,165.966,35.84,166.485,35.839L166.585,35.843C166.685,35.855,166.782,35.869,166.879,35.9C167.101,35.97,167.303,36.101,167.458,36.275C167.797,36.654,167.883,37.211,167.676,37.675C167.621,37.796,167.548,37.909,167.459,38.009C167.371,38.108,167.267,38.194,167.153,38.262C166.977,38.367,166.788,38.418,166.587,38.442C166.423,38.448,166.423,38.446,166.259,38.446C165.662,38.439,165.068,38.411,164.475,38.349C163.438,38.239,162.413,38.028,161.419,37.713C160.666,37.474,159.932,37.176,159.22,36.834C158.715,36.593,158.222,36.328,157.732,36.058C157.169,35.743,156.609,35.42,156.044,35.107C155.106,34.597,154.143,34.126,153.098,33.877C152.732,33.79,152.359,33.73,151.984,33.697C150.327,33.552,148.68,33.938,147.12,34.464L147.024,34.492C146.826,34.534,146.63,34.546,146.431,34.503C145.934,34.396,145.536,33.997,145.43,33.5C145.402,33.37,145.394,33.235,145.407,33.103C145.42,32.97,145.453,32.84,145.506,32.717C145.597,32.503,145.747,32.314,145.935,32.177C146.017,32.117,146.104,32.072,146.195,32.029C146.357,31.968,146.357,31.971,146.52,31.916C147.457,31.612,148.408,31.358,149.382,31.209C149.962,31.12,150.546,31.073,151.133,31.061C151.317,31.06,151.317,31.06,151.5,31.062L151.5,31.062Z" fill-rule="nonzero"/>
            <path d="M124.803,1.311C127.895,1.216,130.429,1.916,130.458,2.874C130.488,3.831,128.001,4.685,124.91,4.781C121.818,4.876,119.284,4.176,119.255,3.218C119.225,2.261,121.711,1.407,124.803,1.311z" fill="rgb(0,84,128)"/>
            <path d="M125.528,0C125.965,0.006,126.402,0.023,126.838,0.059C127.199,0.088,127.559,0.13,127.916,0.186C128.166,0.225,128.415,0.271,128.661,0.326C128.855,0.369,129.047,0.418,129.238,0.473C129.383,0.516,129.528,0.562,129.67,0.613C130.443,0.891,131.247,1.338,131.597,2.122C131.656,2.254,131.7,2.393,131.728,2.534C131.757,2.683,131.768,2.834,131.76,2.985C131.748,3.225,131.688,3.461,131.588,3.68C131.286,4.345,130.653,4.784,130.012,5.087C129.911,5.135,129.81,5.179,129.707,5.221C129.021,5.504,128.293,5.685,127.564,5.817C126.55,6,125.518,6.084,124.488,6.092C124.044,6.095,123.6,6.083,123.157,6.054C122.789,6.03,122.422,5.994,122.057,5.944C121.76,5.904,121.465,5.854,121.172,5.792C120.975,5.75,120.78,5.704,120.587,5.65C120.439,5.61,120.293,5.565,120.148,5.516C120.043,5.48,119.939,5.442,119.836,5.401C119.177,5.138,118.519,4.738,118.176,4.093C118.11,3.969,118.057,3.837,118.019,3.701C117.979,3.557,117.956,3.408,117.951,3.259C117.945,3.061,117.971,2.862,118.027,2.672C118.053,2.583,118.086,2.496,118.125,2.412C118.443,1.712,119.123,1.264,119.801,0.958C120.423,0.678,121.088,0.492,121.755,0.352C122.795,0.133,123.856,0.033,124.918,0.005C125.121,0.001,125.324,-0.001,125.528,0L125.528,0ZM125.243,2.606C124.515,2.614,123.788,2.661,123.068,2.766C122.49,2.849,121.917,2.968,121.361,3.147L121.341,3.154C121.762,3.268,122.196,3.339,122.629,3.39C123.24,3.462,123.855,3.49,124.469,3.486C125.157,3.481,125.845,3.436,126.527,3.343C127.145,3.259,127.758,3.136,128.352,2.945L128.372,2.938C128.056,2.853,127.732,2.792,127.408,2.745C126.863,2.665,126.313,2.626,125.763,2.611C125.59,2.607,125.416,2.606,125.243,2.606L125.243,2.606Z" fill-rule="nonzero"/>
            <path d="M90.976,24.457C83.418,24.808,79.56,27.722,77.866,33.45C71.867,35.473,68.598,36.213,64.302,41.368C61.863,39.509,60.781,38.31,59.65,36.14C57.665,32.332,56.893,26.055,61.043,20.616C63.865,16.917,69.676,11.761,78.78,12.375C91.574,13.237,102.659,19.526,110.634,23.637C120.335,28.638,129.552,34.215,129.552,34.215C129.552,34.215,124.116,33.544,121.715,33.165C113.794,31.918,107.359,30.995,99.251,27.89C91.144,24.785,84.969,19.917,77.55,19.075C72.192,18.467,68.731,18.831,65.916,22.789" fill="none"/>
            <clipPath id="_clip1">
                <path d="M90.976,24.457C83.418,24.808,79.56,27.722,77.866,33.45C71.867,35.473,68.598,36.213,64.302,41.368C61.863,39.509,60.781,38.31,59.65,36.14C57.665,32.332,56.893,26.055,61.043,20.616C63.865,16.917,69.676,11.761,78.78,12.375C91.574,13.237,102.659,19.526,110.634,23.637C120.335,28.638,129.552,34.215,129.552,34.215C129.552,34.215,124.116,33.544,121.715,33.165C113.794,31.918,107.359,30.995,99.251,27.89C91.144,24.785,84.969,19.917,77.55,19.075C72.192,18.467,68.731,18.831,65.916,22.789"/>
            </clipPath>
            <g clip-path="url(#_clip1)">
                <path d="M59.788,26.801C63.155,11.549,77.933,11.686,88.284,14.235C103.418,17.962,130.65,33.95,123.854,32.182C114.43,29.73,90.764,24.307,86.491,21.064C81.137,16.118,67.559,16.029,59.788,26.801L59.788,26.801Z" fill="rgb(0,84,128)"/>
            </g>
            <path d="M90.976,24.457C83.418,24.808,79.56,27.722,77.866,33.45C71.867,35.473,68.598,36.213,64.302,41.368C61.863,39.509,60.781,38.31,59.65,36.14C57.665,32.332,56.893,26.055,61.043,20.616C63.865,16.917,69.676,11.761,78.78,12.375C91.574,13.237,102.659,19.526,110.634,23.637C120.335,28.638,129.552,34.215,129.552,34.215C129.552,34.215,124.116,33.544,121.715,33.165C113.794,31.918,107.359,30.995,99.251,27.89C91.144,24.785,84.969,19.917,77.55,19.075C72.192,18.467,68.731,18.831,65.916,22.789" fill="none" stroke="black" stroke-width="3px"/>
        </g>
        <path d="M154.968,39.181C147.142,38.823,153.469,44.897,156.171,47.138C158.874,49.379,178.302,66.935,195.427,60.566C212.55,54.197,217.109,38.464,213.596,37.669C210.086,36.873,171.086,39.919,154.968,39.181L154.968,39.181Z" fill="rgb(255,136,0)"/>
        <path d="M211.263,34.036L211.522,34.037L211.773,34.04L212.015,34.045L212.249,34.05L212.475,34.058L212.693,34.066L212.905,34.077L213.111,34.089L213.313,34.104L213.512,34.122L213.702,34.143L213.813,34.157L213.916,34.172L214.022,34.188L214.133,34.207L214.248,34.229L214.379,34.257L214.532,34.295L214.693,34.34L214.854,34.392L215.014,34.451L215.172,34.515L215.327,34.585L215.48,34.661L215.63,34.742L215.776,34.828L215.918,34.92L216.057,35.016L216.19,35.117L216.318,35.22L216.442,35.328L216.561,35.439L216.674,35.552L216.782,35.667L216.885,35.785L216.982,35.903L217.075,36.023L217.163,36.145L217.246,36.267L217.323,36.389L217.396,36.511L217.465,36.634L217.53,36.756L217.59,36.879L217.646,37L217.699,37.121L217.749,37.243L217.795,37.364L217.837,37.484L217.876,37.602L217.913,37.72L217.947,37.839L217.978,37.956L218.007,38.074L218.033,38.189L218.057,38.305L218.079,38.42L218.099,38.535L218.116,38.649L218.132,38.762L218.146,38.875L218.158,38.988L218.169,39.101L218.178,39.213L218.185,39.324L218.191,39.436L218.196,39.548L218.199,39.659L218.2,39.77L218.2,39.881L218.199,39.991L218.197,40.102L218.193,40.213L218.189,40.324L218.183,40.435L218.175,40.546L218.167,40.656L218.158,40.767L218.146,40.886L218.123,41.1L218.094,41.323L218.061,41.547L218.024,41.772L217.983,41.997L217.938,42.224L217.89,42.452L217.837,42.681L217.78,42.911L217.72,43.142L217.655,43.375L217.587,43.609L217.515,43.844L217.439,44.08L217.359,44.318L217.276,44.557L217.189,44.798L217.098,45.039L217.003,45.282L216.904,45.527L216.802,45.772L216.695,46.019L216.585,46.267L216.471,46.516L216.353,46.766L216.231,47.017L216.105,47.27L215.975,47.523L215.841,47.777L215.704,48.032L215.562,48.288L215.416,48.545L215.267,48.802L215.113,49.06L214.955,49.319L214.793,49.579L214.627,49.838L214.457,50.099L214.283,50.36L214.105,50.621L213.923,50.882L213.736,51.144L213.546,51.405L213.353,51.664L213.252,51.798L213.151,51.929L213.05,52.06L212.948,52.191L212.845,52.322L212.741,52.453L212.635,52.584L212.529,52.714L212.421,52.845L212.313,52.976L212.203,53.106L212.092,53.237L211.981,53.367L211.868,53.498L211.754,53.628L211.639,53.758L211.523,53.888L211.405,54.018L211.287,54.147L211.168,54.277L211.047,54.406L210.926,54.536L210.803,54.665L210.679,54.794L210.554,54.922L210.428,55.05L210.301,55.179L210.173,55.307L210.044,55.435L209.913,55.562L209.782,55.689L209.649,55.816L209.515,55.943L209.38,56.07L209.244,56.196L209.107,56.322L208.969,56.447L208.83,56.573L208.689,56.698L208.548,56.822L208.405,56.947L208.261,57.071L208.116,57.194L207.97,57.317L207.823,57.44L207.674,57.563L207.525,57.685L207.374,57.807L207.222,57.928L207.069,58.049L206.915,58.169L206.76,58.289L206.604,58.408L206.446,58.528L206.287,58.646L206.127,58.764L205.967,58.882L205.804,58.999L205.641,59.116L205.477,59.232L205.311,59.347L205.144,59.462L204.976,59.577L204.807,59.69L204.637,59.804L204.466,59.917L204.293,60.029L204.119,60.14L203.944,60.251L203.768,60.362L203.591,60.471L203.413,60.58L203.233,60.689L203.052,60.797L202.87,60.904L202.687,61.01L202.503,61.116L202.318,61.221L202.131,61.326L201.943,61.429L201.754,61.532L201.564,61.635L201.373,61.736L201.181,61.837L200.987,61.937L200.792,62.036L200.596,62.135L200.399,62.232L200.2,62.329L200.001,62.426L199.8,62.521L199.598,62.615L199.395,62.709L199.191,62.802L198.985,62.894L198.779,62.985L198.571,63.075L198.362,63.164L198.151,63.253L197.94,63.34L197.728,63.427L197.514,63.513L197.299,63.597L197.083,63.681L196.865,63.764L196.643,63.848L196.413,63.932L196.18,64.015L195.946,64.095L195.712,64.173L195.478,64.249L195.243,64.322L195.008,64.392L194.774,64.46L194.539,64.526L194.304,64.589L194.069,64.65L193.833,64.708L193.598,64.765L193.363,64.818L193.127,64.87L192.892,64.919L192.657,64.966L192.421,65.01L192.186,65.052L191.951,65.092L191.715,65.13L191.48,65.166L191.245,65.199L191.01,65.23L190.775,65.259L190.54,65.286L190.306,65.311L190.071,65.334L189.837,65.354L189.603,65.373L189.369,65.389L189.135,65.404L188.902,65.416L188.668,65.426L188.435,65.435L188.202,65.441L187.97,65.446L187.737,65.449L187.505,65.45L187.273,65.448L187.042,65.446L186.811,65.441L186.58,65.434L186.349,65.426L186.119,65.416L185.889,65.404L185.659,65.39L185.43,65.375L185.201,65.358L184.973,65.339L184.744,65.319L184.517,65.297L184.289,65.273L184.062,65.248L183.836,65.221L183.61,65.193L183.384,65.163L183.159,65.132L182.934,65.099L182.709,65.064L182.485,65.028L182.262,64.991L182.039,64.952L181.816,64.912L181.594,64.87L181.372,64.827L181.151,64.783L180.93,64.738L180.71,64.691L180.49,64.642L180.271,64.593L180.052,64.542L179.834,64.49L179.616,64.436L179.399,64.382L179.182,64.326L178.966,64.269L178.75,64.211L178.535,64.152L178.321,64.091L178.107,64.03L177.893,63.967L177.68,63.904L177.468,63.839L177.256,63.773L177.045,63.706L176.834,63.638L176.625,63.569L176.415,63.5L176.206,63.429L175.998,63.357L175.79,63.284L175.583,63.211L175.377,63.136L175.171,63.061L174.966,62.985L174.761,62.907L174.557,62.829L174.354,62.751L174.152,62.671L173.95,62.591L173.748,62.51L173.548,62.428L173.347,62.345L173.148,62.261L172.949,62.177L172.751,62.092L172.554,62.007L172.357,61.921L172.161,61.834L171.966,61.746L171.771,61.658L171.578,61.57L171.384,61.48L171.192,61.39L171,61.3L170.809,61.209L170.616,61.116L170.24,60.933L169.865,60.746L169.492,60.558L169.123,60.367L168.757,60.176L168.393,59.982L168.033,59.788L167.677,59.592L167.323,59.394L166.973,59.196L166.626,58.997L166.282,58.797L165.942,58.597L165.606,58.396L165.273,58.194L164.943,57.992L164.617,57.79L164.295,57.588L163.976,57.385L163.662,57.183L163.351,56.981L163.044,56.779L162.74,56.578L162.441,56.378L162.146,56.178L161.854,55.978L161.567,55.78L161.284,55.583L161.005,55.387L160.73,55.192L160.46,54.998L160.194,54.806L159.932,54.616L159.675,54.427L159.422,54.24L159.174,54.055L158.93,53.872L158.691,53.691L158.456,53.512L158.227,53.336L158.002,53.162L157.782,52.991L157.567,52.823L157.357,52.657L157.15,52.493L156.757,52.179L156.383,51.876L156.03,51.588L155.699,51.315L155.39,51.058L155.105,50.819L154.843,50.598L154.606,50.398L154.211,50.063L154.058,49.933L153.928,49.824L153.793,49.711L153.643,49.585L153.49,49.454L153.331,49.318L153.169,49.176L153.004,49.03L152.835,48.879L152.664,48.723L152.489,48.563L152.313,48.399L152.135,48.231L151.955,48.059L151.774,47.883L151.592,47.703L151.41,47.52L151.228,47.333L151.045,47.143L150.864,46.949L150.683,46.753L150.503,46.553L150.328,46.354L150.236,46.247L150.148,46.143L150.06,46.038L149.973,45.933L149.886,45.827L149.8,45.72L149.715,45.611L149.63,45.502L149.546,45.392L149.463,45.281L149.381,45.168L149.299,45.055L149.218,44.94L149.138,44.824L149.06,44.707L148.982,44.588L148.905,44.468L148.829,44.346L148.754,44.222L148.681,44.097L148.608,43.969L148.537,43.839L148.468,43.707L148.4,43.573L148.333,43.435L148.269,43.295L148.206,43.151L148.145,43.004L148.086,42.853L148.03,42.699L147.977,42.54L147.926,42.376L147.879,42.208L147.836,42.034L147.797,41.855L147.763,41.67L147.735,41.479L147.712,41.282L147.697,41.079L147.689,40.869L147.69,40.654L147.699,40.453L147.71,40.321L147.722,40.207L147.736,40.093L147.754,39.976L147.774,39.86L147.798,39.742L147.825,39.624L147.856,39.505L147.889,39.387L147.926,39.268L147.967,39.148L148.011,39.03L148.058,38.912L148.109,38.795L148.164,38.678L148.222,38.564L148.283,38.45L148.347,38.338L148.414,38.227L148.485,38.118L148.558,38.012L148.634,37.908L148.713,37.806L148.794,37.707L148.876,37.611L148.962,37.517L149.049,37.426L149.138,37.339L149.228,37.253L149.32,37.171L149.413,37.092L149.507,37.016L149.602,36.943L149.697,36.873L149.794,36.805L149.891,36.74L149.988,36.679L150.086,36.619L150.184,36.563L150.281,36.509L150.38,36.457L150.478,36.407L150.577,36.36L150.675,36.316L150.773,36.273L150.871,36.233L150.969,36.194L151.068,36.157L151.166,36.122L151.264,36.089L151.361,36.058L151.471,36.024L151.654,35.973L151.849,35.923L152.044,35.879L152.24,35.84L152.436,35.806L152.632,35.776L152.83,35.75L153.029,35.728L153.229,35.709L153.431,35.694L153.634,35.682L153.84,35.673L154.048,35.668L154.258,35.665L154.471,35.666L154.687,35.669L154.906,35.675L155.114,35.684L155.495,35.7L155.87,35.715L156.254,35.728L156.647,35.74L157.048,35.751L157.457,35.761L157.874,35.77L158.299,35.777L158.732,35.783L159.172,35.788L159.619,35.792L160.074,35.795L160.534,35.796L161.002,35.797L161.476,35.796L161.956,35.795L162.442,35.792L162.934,35.789L163.432,35.784L163.935,35.779L164.444,35.772L164.957,35.765L165.476,35.757L165.999,35.748L166.527,35.738L167.058,35.727L168.137,35.703L169.229,35.675L170.336,35.645L171.455,35.612L172.586,35.577L173.727,35.539L174.876,35.499L176.033,35.457L177.195,35.413L178.362,35.367L179.533,35.32L180.705,35.271L181.877,35.221L183.049,35.17L184.218,35.119L185.384,35.066L186.545,35.014L188.847,34.907L191.113,34.801L193.333,34.696L195.496,34.594L197.592,34.496L199.609,34.404L200.586,34.36L201.539,34.319L202.467,34.279L203.37,34.242L204.245,34.208L205.093,34.176L205.91,34.146L206.697,34.12L207.452,34.097L208.174,34.077L208.861,34.061L209.194,34.054L209.516,34.049L209.83,34.044L210.134,34.04L210.43,34.037L210.717,34.036L210.994,34.035L211.263,34.036ZM210.73,37.536L210.456,37.537L210.172,37.54L209.878,37.544L209.574,37.548L209.261,37.554L208.937,37.56L208.263,37.576L207.553,37.596L206.809,37.618L206.031,37.644L205.221,37.673L204.381,37.705L203.511,37.739L202.614,37.776L201.689,37.816L200.74,37.857L199.766,37.9L197.753,37.992L195.66,38.09L193.498,38.192L191.278,38.297L189.01,38.403L186.705,38.51L185.542,38.563L184.374,38.615L183.202,38.667L182.027,38.718L180.852,38.768L179.676,38.817L178.502,38.864L177.33,38.91L176.163,38.954L175.001,38.997L173.846,39.037L172.699,39.075L171.562,39.111L170.435,39.144L169.32,39.174L168.219,39.202L167.133,39.226L166.596,39.237L166.063,39.247L165.534,39.256L165.01,39.265L164.491,39.272L163.977,39.279L163.467,39.284L162.963,39.289L162.464,39.292L161.971,39.295L161.483,39.296L161.002,39.297L160.526,39.296L160.057,39.295L159.594,39.292L159.137,39.288L158.687,39.283L158.244,39.276L157.808,39.269L157.38,39.26L156.958,39.25L156.545,39.239L156.139,39.226L155.74,39.212L155.35,39.197L154.968,39.181L154.787,39.173L154.612,39.168L154.441,39.166L154.276,39.166L154.115,39.167L153.959,39.172L153.808,39.178L153.662,39.186L153.521,39.197L153.385,39.21L153.253,39.224L153.126,39.241L153.003,39.26L152.885,39.281L152.771,39.303L152.662,39.328L152.557,39.354L152.457,39.383L152.408,39.397L152.361,39.413L152.314,39.429L152.269,39.445L152.224,39.461L152.181,39.478L152.138,39.496L152.097,39.514L152.057,39.532L152.017,39.551L151.979,39.57L151.942,39.59L151.905,39.61L151.87,39.63L151.835,39.651L151.802,39.673L151.77,39.694L151.738,39.716L151.708,39.739L151.678,39.762L151.649,39.785L151.622,39.808L151.595,39.832L151.569,39.857L151.544,39.881L151.52,39.907L151.497,39.932L151.475,39.958L151.453,39.984L151.433,40.01L151.413,40.037L151.394,40.064L151.377,40.092L151.36,40.12L151.343,40.148L151.328,40.177L151.314,40.205L151.3,40.235L151.287,40.264L151.275,40.294L151.264,40.324L151.254,40.354L151.244,40.385L151.235,40.416L151.227,40.447L151.22,40.479L151.213,40.511L151.208,40.543L151.203,40.576L151.199,40.608L151.195,40.641L151.193,40.675L151.189,40.742L151.189,40.81L151.192,40.88L151.197,40.95L151.205,41.021L151.216,41.094L151.23,41.167L151.246,41.241L151.264,41.316L151.285,41.391L151.309,41.468L151.335,41.545L151.363,41.622L151.393,41.701L151.426,41.78L151.461,41.86L151.498,41.94L151.537,42.021L151.578,42.103L151.622,42.185L151.667,42.267L151.714,42.35L151.762,42.433L151.813,42.517L151.865,42.601L151.919,42.685L151.975,42.77L152.032,42.855L152.091,42.94L152.151,43.026L152.212,43.111L152.275,43.197L152.339,43.283L152.405,43.369L152.472,43.455L152.54,43.541L152.609,43.627L152.679,43.713L152.75,43.799L152.822,43.885L152.895,43.971L152.969,44.056L153.119,44.227L153.271,44.397L153.427,44.566L153.584,44.733L153.743,44.899L153.903,45.063L154.064,45.224L154.225,45.384L154.386,45.541L154.547,45.695L154.707,45.846L154.866,45.993L155.023,46.138L155.178,46.278L155.33,46.415L155.48,46.547L155.626,46.675L155.769,46.798L155.908,46.917L156.042,47.03L156.171,47.138L156.31,47.254L156.473,47.391L156.869,47.728L157.102,47.925L157.357,48.139L157.633,48.371L157.932,48.619L158.251,48.883L158.59,49.16L158.95,49.451L159.33,49.755L159.527,49.911L159.729,50.07L159.935,50.232L160.147,50.396L160.362,50.563L160.583,50.732L160.808,50.903L161.037,51.077L161.271,51.252L161.509,51.43L161.751,51.609L161.997,51.79L162.248,51.972L162.503,52.156L162.761,52.341L163.024,52.528L163.291,52.716L163.562,52.904L163.836,53.094L164.114,53.284L164.396,53.475L164.682,53.666L164.971,53.858L165.264,54.051L165.561,54.243L165.86,54.436L166.164,54.628L166.47,54.821L166.78,55.013L167.093,55.205L167.41,55.396L167.729,55.587L168.052,55.777L168.377,55.967L168.706,56.155L169.037,56.343L169.371,56.529L169.708,56.714L170.048,56.898L170.391,57.08L170.736,57.261L171.084,57.44L171.434,57.618L171.787,57.793L172.142,57.966L172.32,58.052L172.499,58.137L172.679,58.222L172.859,58.306L173.04,58.39L173.221,58.473L173.403,58.555L173.586,58.637L173.769,58.718L173.952,58.798L174.136,58.878L174.506,59.036L174.691,59.113L174.877,59.19L175.251,59.342L175.627,59.49L175.815,59.563L176.193,59.707L176.573,59.847L176.764,59.916L176.955,59.984L177.146,60.051L177.338,60.117L177.531,60.182L177.723,60.246L177.916,60.31L178.11,60.372L178.498,60.494L178.692,60.553L178.887,60.611L179.083,60.669L179.278,60.725L179.474,60.78L179.67,60.834L179.867,60.887L180.064,60.939L180.261,60.99L180.459,61.039L180.656,61.088L180.855,61.135L181.053,61.181L181.252,61.226L181.45,61.27L181.65,61.312L181.849,61.353L182.049,61.393L182.249,61.432L182.449,61.47L182.649,61.506L182.85,61.541L183.05,61.574L183.251,61.606L183.453,61.637L183.654,61.667L183.855,61.695L184.057,61.722L184.259,61.747L184.461,61.771L184.663,61.793L184.866,61.814L185.068,61.834L185.271,61.852L185.474,61.869L185.677,61.884L185.88,61.897L186.083,61.909L186.286,61.92L186.489,61.929L186.693,61.936L186.896,61.942L187.1,61.946L187.303,61.949L187.507,61.95L187.711,61.949L187.915,61.946L188.119,61.942L188.322,61.937L188.526,61.929L188.73,61.92L188.934,61.909L189.138,61.897L189.342,61.882L189.546,61.866L189.75,61.848L189.954,61.829L190.158,61.807L190.362,61.784L190.565,61.759L190.769,61.732L190.973,61.703L191.176,61.672L191.38,61.639L191.583,61.605L191.787,61.568L191.99,61.53L192.193,61.489L192.397,61.447L192.6,61.402L192.803,61.356L193.005,61.308L193.208,61.257L193.41,61.205L193.613,61.151L193.815,61.094L194.017,61.035L194.219,60.975L194.421,60.912L194.622,60.847L194.824,60.78L195.025,60.711L195.226,60.639L195.427,60.566L195.627,60.491L195.826,60.415L196.023,60.338L196.22,60.26L196.416,60.182L196.61,60.103L196.803,60.023L196.995,59.942L197.186,59.86L197.376,59.778L197.565,59.695L197.752,59.611L197.939,59.526L198.124,59.441L198.308,59.355L198.491,59.268L198.673,59.18L198.854,59.092L199.033,59.003L199.212,58.913L199.389,58.823L199.566,58.732L199.741,58.64L199.915,58.548L200.088,58.455L200.26,58.361L200.43,58.267L200.6,58.172L200.769,58.076L200.936,57.98L201.102,57.883L201.268,57.786L201.432,57.688L201.595,57.59L201.757,57.491L201.918,57.391L202.077,57.291L202.236,57.19L202.394,57.089L202.55,56.987L202.705,56.885L202.86,56.782L203.013,56.679L203.165,56.575L203.316,56.471L203.466,56.367L203.615,56.261L203.763,56.156L203.91,56.05L204.055,55.943L204.2,55.837L204.344,55.729L204.486,55.622L204.627,55.514L204.768,55.405L204.907,55.296L205.045,55.187L205.182,55.078L205.319,54.968L205.454,54.857L205.588,54.747L205.721,54.636L205.853,54.525L205.983,54.413L206.113,54.301L206.242,54.189L206.37,54.077L206.496,53.964L206.622,53.851L206.747,53.738L206.87,53.624L206.993,53.511L207.114,53.397L207.235,53.283L207.354,53.168L207.472,53.054L207.59,52.939L207.706,52.824L207.822,52.709L207.936,52.593L208.049,52.478L208.161,52.362L208.273,52.246L208.383,52.13L208.492,52.014L208.6,51.898L208.707,51.782L208.814,51.666L208.919,51.549L209.023,51.433L209.126,51.316L209.228,51.199L209.329,51.082L209.429,50.966L209.529,50.849L209.627,50.732L209.724,50.615L209.82,50.498L209.915,50.381L210.009,50.264L210.102,50.147L210.195,50.031L210.286,49.914L210.376,49.797L210.465,49.68L210.554,49.563L210.727,49.33L210.897,49.097L211.063,48.865L211.224,48.633L211.382,48.401L211.537,48.17L211.687,47.94L211.833,47.711L211.976,47.482L212.115,47.254L212.25,47.027L212.381,46.801L212.509,46.577L212.633,46.353L212.753,46.131L212.869,45.91L212.982,45.69L213.09,45.472L213.196,45.255L213.297,45.04L213.395,44.826L213.489,44.615L213.58,44.405L213.667,44.196L213.75,43.99L213.83,43.786L213.906,43.584L213.979,43.384L214.048,43.186L214.113,42.99L214.175,42.797L214.233,42.606L214.288,42.418L214.34,42.232L214.388,42.049L214.432,41.869L214.473,41.691L214.511,41.516L214.545,41.344L214.576,41.175L214.603,41.009L214.627,40.846L214.647,40.686L214.664,40.53L214.672,40.453L214.678,40.377L214.684,40.302L214.689,40.227L214.693,40.153L214.696,40.081L214.698,40.009L214.7,39.938L214.7,39.868L214.7,39.799L214.699,39.731L214.697,39.663L214.695,39.597L214.691,39.531L214.687,39.467L214.682,39.403L214.676,39.341L214.669,39.279L214.662,39.219L214.654,39.159L214.645,39.101L214.635,39.043L214.624,38.986L214.612,38.931L214.6,38.876L214.587,38.823L214.573,38.771L214.558,38.719L214.543,38.669L214.527,38.62L214.509,38.572L214.492,38.525L214.473,38.479L214.453,38.434L214.433,38.39L214.412,38.348L214.39,38.307L214.368,38.266L214.344,38.227L214.32,38.189L214.295,38.153L214.27,38.117L214.243,38.083L214.216,38.05L214.188,38.018L214.159,37.987L214.13,37.958L214.1,37.929L214.068,37.902L214.037,37.877L214.004,37.852L213.971,37.829L213.937,37.807L213.902,37.786L213.866,37.767L213.83,37.749L213.793,37.732L213.755,37.717L213.716,37.703L213.677,37.69L213.637,37.679L213.596,37.669L213.554,37.66L213.508,37.651L213.458,37.642L213.406,37.634L213.35,37.627L213.292,37.619L213.165,37.605L213.026,37.593L212.875,37.581L212.712,37.572L212.536,37.563L212.35,37.555L212.152,37.549L211.942,37.544L211.721,37.54L211.49,37.537L211.247,37.536L210.994,37.535L210.73,37.536L210.73,37.536Z"/>
    </g>
</svg>
