<?xml version="1.0" encoding="UTF-8" standalone="no"?><!DOCTYPE svg PUBLIC "-//W3C//DTD SVG 1.1//EN" "http://www.w3.org/Graphics/SVG/1.1/DTD/svg11.dtd"><svg width="100%" height="100%" viewBox="0 0 416 411" version="1.1" xmlns="http://www.w3.org/2000/svg" xmlns:xlink="http://www.w3.org/1999/xlink" xml:space="preserve" xmlns:serif="http://www.serif.com/" style="fill-rule:evenodd;clip-rule:evenodd;stroke-linejoin:round;stroke-miterlimit:1.41421;"><path d="M213.619,406.827c0.231,-1.992 2.037,-3.422 4.029,-3.19c1.992,0.232 3.421,2.037 3.19,4.029c-0.232,1.992 -2.037,3.421 -4.029,3.19c-1.992,-0.232 -3.422,-2.037 -3.19,-4.029Zm-55.469,-9.785c0.511,-4.394 4.494,-7.548 8.889,-7.037c4.395,0.511 7.548,4.494 7.037,8.889c-0.511,4.395 -4.494,7.548 -8.889,7.037c-4.394,-0.511 -7.548,-4.494 -7.037,-8.889Zm120.02,-0.792c0.322,-2.766 2.828,-4.75 5.594,-4.429c2.766,0.322 4.75,2.828 4.429,5.594c-0.322,2.766 -2.828,4.75 -5.594,4.428c-2.766,-0.321 -4.75,-2.827 -4.429,-5.593Zm-46.307,-1.287c0.372,-3.193 3.266,-5.485 6.459,-5.114c3.194,0.372 5.485,3.266 5.114,6.459c-0.371,3.194 -3.265,5.485 -6.459,5.114c-3.193,-0.371 -5.485,-3.265 -5.114,-6.459Zm-41.322,-3.357c0.328,-2.817 2.88,-4.837 5.697,-4.51c2.816,0.327 4.837,2.88 4.51,5.696c-0.328,2.817 -2.88,4.838 -5.697,4.51c-2.816,-0.327 -4.837,-2.88 -4.51,-5.696Zm22.664,-4.46c0.371,-3.193 3.265,-5.485 6.459,-5.113c3.193,0.371 5.484,3.265 5.113,6.458c-0.371,3.194 -3.265,5.485 -6.459,5.114c-3.193,-0.371 -5.485,-3.265 -5.113,-6.459Zm-93.828,-6.09c0.707,-6.076 6.213,-10.435 12.289,-9.729c6.076,0.706 10.436,6.213 9.729,12.289c-0.706,6.076 -6.212,10.435 -12.288,9.729c-6.076,-0.706 -10.436,-6.213 -9.73,-12.289Zm54.465,-9.539c0.885,-7.619 7.791,-13.086 15.41,-12.2c7.62,0.885 13.087,7.79 12.201,15.41c-0.886,7.619 -7.791,13.086 -15.41,12.201c-7.62,-0.886 -13.087,-7.791 -12.201,-15.411Zm-11.653,8.098c0.367,-3.158 3.229,-5.424 6.388,-5.057c3.158,0.367 5.424,3.229 5.057,6.388c-0.367,3.158 -3.229,5.424 -6.388,5.057c-3.158,-0.367 -5.424,-3.229 -5.057,-6.388Zm154.642,2.883c0.172,-1.478 1.512,-2.539 2.991,-2.367c1.478,0.172 2.539,1.511 2.367,2.99c-0.172,1.478 -1.512,2.539 -2.99,2.367c-1.479,-0.171 -2.539,-1.511 -2.368,-2.99Zm-171.375,-7.473c0.519,-4.463 4.563,-7.665 9.026,-7.147c4.463,0.519 7.665,4.564 7.146,9.026c-0.518,4.463 -4.563,7.665 -9.026,7.147c-4.463,-0.519 -7.665,-4.564 -7.146,-9.026Zm98.615,4.582c0.239,-2.061 2.107,-3.54 4.168,-3.3c2.061,0.239 3.54,2.107 3.3,4.168c-0.239,2.061 -2.107,3.54 -4.168,3.3c-2.061,-0.239 -3.54,-2.107 -3.3,-4.168Zm-20.366,-8.267c0.613,-5.273 5.392,-9.056 10.664,-8.443c5.273,0.613 9.056,5.391 8.443,10.664c-0.613,5.273 -5.391,9.056 -10.664,8.443c-5.272,-0.613 -9.056,-5.391 -8.443,-10.664Zm39.104,-4.098c0.774,-6.659 6.808,-11.436 13.466,-10.662c6.659,0.774 11.436,6.808 10.662,13.466c-0.774,6.659 -6.808,11.436 -13.466,10.662c-6.659,-0.774 -11.436,-6.808 -10.662,-13.466Zm-47.497,6.622c0.232,-1.992 2.037,-3.422 4.029,-3.19c1.993,0.231 3.422,2.037 3.19,4.029c-0.231,1.992 -2.037,3.421 -4.029,3.19c-1.992,-0.232 -3.421,-2.037 -3.19,-4.029Zm-12.984,-7.791c0.451,-3.879 3.966,-6.663 7.846,-6.212c3.879,0.451 6.663,3.967 6.212,7.846c-0.451,3.88 -3.967,6.663 -7.846,6.212c-3.88,-0.451 -6.663,-3.967 -6.212,-7.846Zm40.962,-3.305c0.603,-5.183 5.3,-8.901 10.483,-8.299c5.183,0.603 8.902,5.3 8.299,10.483c-0.602,5.183 -5.299,8.902 -10.482,8.299c-5.183,-0.602 -8.902,-5.299 -8.3,-10.483Zm-142.863,1.852c0.494,-4.258 4.352,-7.312 8.61,-6.817c4.257,0.495 7.311,4.353 6.816,8.61c-0.495,4.257 -4.353,7.311 -8.61,6.817c-4.257,-0.495 -7.311,-4.353 -6.816,-8.61Zm59.568,0.247c0.439,-3.776 3.862,-6.486 7.638,-6.047c3.777,0.439 6.487,3.862 6.048,7.638c-0.439,3.777 -3.862,6.486 -7.638,6.047c-3.777,-0.439 -6.487,-3.861 -6.048,-7.638Zm-11.588,-285.756c-0.457,-1.118 -0.647,-2.363 -0.498,-3.646c0.472,-4.055 4.147,-6.964 8.202,-6.493c1.142,0.133 2.194,0.52 3.104,1.098c-0.556,-2.014 -0.741,-4.167 -0.485,-6.369c1.065,-9.163 9.368,-15.737 18.531,-14.672c3.501,0.407 6.624,1.871 9.088,4.036c-0.299,-2 -0.342,-4.071 -0.097,-6.175c1.493,-12.848 13.137,-22.067 25.985,-20.573c12.848,1.493 22.066,13.137 20.572,25.985c-0.237,2.042 -0.731,3.992 -1.445,5.822c2.153,-1.282 4.727,-1.893 7.406,-1.582c6.06,0.704 10.519,5.884 10.459,11.852c1.048,0.272 2.091,0.556 3.13,0.852c-1.278,-1.873 -1.913,-4.196 -1.631,-6.623c0.622,-5.351 5.471,-9.191 10.822,-8.569c5.351,0.622 9.191,5.472 8.569,10.823c-0.186,1.598 -0.749,3.061 -1.59,4.311c1.7,-0.642 3.574,-0.898 5.502,-0.674c6.451,0.75 11.079,6.595 10.329,13.046c-0.041,0.353 -0.098,0.701 -0.169,1.043l0.333,0.192l0.277,0.161c3.317,-7.705 11.401,-12.669 20.157,-11.651c10.685,1.242 18.352,10.925 17.11,21.611c-0.113,0.977 -0.298,1.929 -0.547,2.851c4.395,-3.203 9.958,-4.826 15.779,-4.149c12.286,1.428 21.1,12.561 19.672,24.847c-0.841,7.235 -5.048,13.266 -10.874,16.711c7.719,1.178 13.185,8.28 12.276,16.098c-0.665,5.717 -4.559,10.279 -9.648,12.075c0.164,0.512 0.329,1.024 0.498,1.535c0.291,0.905 0.574,1.812 0.848,2.72c1.08,-4.613 5.478,-7.787 10.297,-7.227c5.184,0.603 8.903,5.301 8.3,10.484c-0.601,5.171 -5.275,8.884 -10.443,8.306c1.232,1.859 1.84,4.146 1.562,6.533c-0.36,3.101 -2.136,5.696 -4.606,7.214c0.022,0.194 0.043,0.388 0.064,0.582c0.831,-0.068 1.681,-0.055 2.541,0.045c7.062,0.821 12.129,7.221 11.308,14.284c-0.786,6.762 -6.688,11.696 -13.388,11.381c-0.04,0.579 -0.083,1.157 -0.13,1.735c4.463,1.548 7.418,6.037 6.85,10.921c-0.602,5.178 -4.954,9.015 -10.026,9.111l-0.047,0.175l-0.046,0.171c3.77,0.716 6.405,4.24 5.955,8.112c-0.428,3.681 -3.499,6.418 -7.096,6.533c3.985,2.005 6.494,6.347 5.949,11.033c-0.697,5.993 -6.128,10.294 -12.122,9.597c-1.663,-0.194 -3.197,-0.752 -4.529,-1.586c3.03,2.396 4.788,6.261 4.309,10.376c-0.734,6.316 -6.458,10.848 -12.774,10.114c-1.505,-0.175 -2.908,-0.633 -4.163,-1.315c-0.426,0.574 -0.866,1.139 -1.335,1.686c8.422,3.388 13.897,12.096 12.799,21.544c-1.316,11.32 -11.575,19.442 -22.895,18.127c-5.536,-0.644 -10.307,-3.426 -13.584,-7.425c0.012,0.598 -0.016,1.204 -0.087,1.815c-0.844,7.26 -7.423,12.469 -14.683,11.626c-3.989,-0.464 -7.359,-2.66 -9.446,-5.748c-0.651,0.37 -1.313,0.721 -1.983,1.06c1.829,2.706 2.736,6.053 2.329,9.548c-0.901,7.757 -7.931,13.323 -15.688,12.421c-6.54,-0.76 -11.523,-5.877 -12.384,-12.112c-0.185,0.038 -0.371,0.065 -0.558,0.071c-0.008,0.015 -0.016,0.03 -0.025,0.045c-0.118,0.043 -0.237,0.084 -0.356,0.124c-0.954,3.451 -4.308,5.79 -7.974,5.364c-1.931,-0.225 -3.603,-1.177 -4.772,-2.551l-0.36,0.062l-0.221,0.036c0.052,0.817 0.032,1.65 -0.066,2.491c-0.883,7.597 -7.767,13.047 -15.363,12.164c-4.898,-0.569 -8.904,-3.634 -10.895,-7.775c-2.209,3.864 -6.577,6.248 -11.275,5.702c-5.176,-0.602 -9.147,-4.573 -9.975,-9.466c-1.98,5.812 -7.808,9.667 -14.152,8.93c-5.114,-0.594 -9.216,-4.016 -10.927,-8.521c-2.836,11.215 -13.621,18.88 -25.422,17.508c-12.848,-1.493 -22.066,-13.137 -20.573,-25.985c0.565,-4.861 2.583,-9.203 5.57,-12.641c-2.15,0.786 -4.51,1.095 -6.937,0.812c-8.31,-0.966 -14.272,-8.496 -13.307,-16.806c0.137,-1.171 0.403,-2.296 0.784,-3.361c-2.998,2.751 -6.976,4.405 -11.254,4.424l-0.053,0.001c-0.653,0 -1.314,-0.037 -1.978,-0.114c-9.199,-1.069 -15.799,-9.406 -14.73,-18.605c0.938,-8.072 7.473,-14.143 15.275,-14.786c-0.196,-0.333 -0.391,-0.667 -0.584,-1.002c-1.479,0.958 -3.288,1.428 -5.175,1.208c-4.308,-0.5 -7.4,-4.405 -6.899,-8.714c0.334,-2.872 2.181,-5.204 4.653,-6.291c-0.116,-0.242 -0.23,-0.485 -0.343,-0.729c-2.886,3.17 -7.205,4.954 -11.784,4.421c-7.551,-0.877 -12.969,-7.72 -12.091,-15.271c0.68,-5.852 4.943,-10.423 10.342,-11.775c-1.582,-0.979 -2.544,-2.814 -2.315,-4.782c0.148,-1.274 0.768,-2.379 1.665,-3.16c-0.058,-0.006 -0.117,-0.012 -0.176,-0.019c-4.82,-0.56 -8.278,-4.928 -7.718,-9.748c0.553,-4.759 4.819,-8.191 9.566,-7.738c-0.044,-0.581 -0.082,-1.163 -0.118,-1.745c-0.746,-0.809 -1.149,-1.926 -1.012,-3.104c0.085,-0.727 0.364,-1.384 0.779,-1.925c-0.014,-0.505 -0.027,-1.009 -0.039,-1.514c-1.015,0.252 -2.091,0.33 -3.19,0.202c-4.912,-0.571 -8.436,-5.022 -7.865,-9.933c0.571,-4.912 5.022,-8.436 9.934,-7.865c0.614,0.071 1.206,0.204 1.772,0.39c0.036,-0.284 0.075,-0.567 0.116,-0.849c0.014,0.014 0.027,0.029 0.039,0.043c0.002,-0.012 0.004,-0.025 0.006,-0.038c0.003,-0.096 0.008,-0.191 0.013,-0.286c-0.876,0.138 -1.784,0.16 -2.707,0.053c-5.47,-0.636 -9.394,-5.592 -8.758,-11.062c0.636,-5.469 5.592,-9.393 11.062,-8.757c1.276,0.148 2.469,0.532 3.539,1.103c0.469,-1.958 0.976,-3.901 1.527,-5.83c-2.197,0.732 -4.585,1.005 -7.035,0.721c-8.959,-1.042 -15.387,-9.161 -14.346,-18.12c1.042,-8.959 9.161,-15.388 18.12,-14.346c5.411,0.629 9.899,3.84 12.376,8.258c0.075,-0.139 0.17,-0.276 0.245,-0.415l0.006,-0.013c0.937,-2.16 2.102,-4.171 3.242,-6.219c-0.649,-0.913 -0.975,-2.06 -0.836,-3.26c0.3,-2.574 2.633,-4.421 5.207,-4.122l0.052,0.006c0.074,-0.116 0.149,-0.232 0.224,-0.349c0.114,-0.21 0.267,-0.372 0.426,-0.577l0.001,-0.004c0.044,-0.166 0.114,-0.329 0.217,-0.473c-1.372,-1.312 -2.135,-3.229 -1.9,-5.258c0.265,-2.277 1.721,-4.127 3.674,-5.001c-5.901,-2.877 -9.634,-9.254 -8.834,-16.14c1.014,-8.721 8.917,-14.978 17.638,-13.965c4.045,0.471 7.56,2.423 10.065,5.252c1.923,-3.919 6.165,-6.397 10.746,-5.865c0.717,0.084 1.409,0.237 2.07,0.453c-1.127,-1.972 -1.657,-4.308 -1.375,-6.736c0.703,-6.046 6.182,-10.384 12.229,-9.682c4.738,0.551 8.428,4.036 9.464,8.427c0.384,-0.199 0.769,-0.396 1.156,-0.592Zm150.802,281.303c0.46,-3.957 4.046,-6.796 8.003,-6.336c3.958,0.46 6.797,4.046 6.337,8.003c-0.46,3.958 -4.046,6.797 -8.004,6.337c-3.957,-0.46 -6.796,-4.046 -6.336,-8.004Zm-232.002,-16.857c0.938,-8.066 8.248,-13.854 16.314,-12.916c8.066,0.938 13.854,8.248 12.916,16.314c-0.938,8.066 -8.248,13.854 -16.314,12.916c-8.066,-0.938 -13.854,-8.248 -12.916,-16.314Zm169.624,11.906c0.251,-2.163 2.212,-3.715 4.376,-3.464c2.163,0.252 3.715,2.212 3.464,4.376c-0.252,2.163 -2.212,3.715 -4.376,3.464c-2.163,-0.252 -3.715,-2.212 -3.464,-4.376Zm42.611,-6.643c0.571,-4.909 5.019,-8.431 9.928,-7.861c4.909,0.571 8.431,5.02 7.861,9.929c-0.571,4.909 -5.019,8.431 -9.928,7.86c-4.909,-0.57 -8.432,-5.019 -7.861,-9.928Zm45.704,-1.189c0.576,-4.957 5.067,-8.513 10.024,-7.937c4.956,0.576 8.512,5.068 7.936,10.024c-0.576,4.956 -5.068,8.513 -10.024,7.936c-4.956,-0.576 -8.512,-5.067 -7.936,-10.023Zm-226.898,-8.782c0.611,-5.252 5.371,-9.021 10.624,-8.411c5.253,0.611 9.022,5.371 8.411,10.624c-0.611,5.253 -5.371,9.022 -10.624,8.411c-5.252,-0.611 -9.021,-5.371 -8.411,-10.624Zm214.473,4.036c0.367,-3.159 3.229,-5.425 6.388,-5.058c3.158,0.367 5.424,3.23 5.057,6.388c-0.367,3.159 -3.229,5.425 -6.388,5.058c-3.158,-0.368 -5.424,-3.23 -5.057,-6.388Zm-14.146,-1.015c0.367,-3.158 3.229,-5.424 6.388,-5.057c3.158,0.367 5.424,3.229 5.057,6.388c-0.367,3.158 -3.229,5.424 -6.388,5.057c-3.158,-0.367 -5.424,-3.229 -5.057,-6.388Zm-248.232,2.397c0.21,-1.806 1.848,-3.103 3.654,-2.893c1.807,0.21 3.104,1.848 2.894,3.654c-0.211,1.807 -1.848,3.104 -3.655,2.894c-1.807,-0.21 -3.103,-1.848 -2.893,-3.655Zm159.007,-305.265l0,-6.635c0,-0.084 -0.033,-0.165 -0.092,-0.224c-0.06,-0.06 -0.14,-0.093 -0.225,-0.093c-0.019,0 -0.039,0 -0.059,0c-0.084,0 -0.165,0.033 -0.224,0.093c-0.06,0.059 -0.093,0.14 -0.093,0.224l0,6.635l-1.143,0l-0.226,1.823l-0.611,0l-0.364,1.552l-0.375,0l0.466,2.117l0.618,0c-0.036,0.322 -0.062,0.674 -0.079,1.058c-1.019,23.839 -2.77,39.535 -3.922,47.869l-0.835,0l0.145,4.622c-0.282,1.744 -0.452,2.599 -0.452,2.599c0,0 -2.737,10.319 -5.485,13.607l-1.548,0l0,5.601l-0.002,0.005c0,0 -6.721,11.911 -9.611,17.947c-5.091,-0.322 -8.717,-0.601 -8.717,-0.601c-6.582,-0.385 -7.354,9.671 -0.775,10.06c0,0 6.227,0.773 12.805,1.16l19.017,52.111l-26.718,80.12l-44.452,-132.231c7.355,-0.387 13.972,-1.16 13.972,-1.16c6.573,-0.778 5.796,-10.445 -0.782,-10.06c0,0 -19.769,1.552 -32.535,1.552c-2.29,0 -4.99,-0.056 -7.856,-0.148c19.504,-29.611 51.536,-50.236 88.562,-54.291l-1.894,-13.57c-67.677,7.637 -120.448,65.228 -120.448,134.912c0,74.867 60.909,135.781 135.775,135.781c74.865,0 135.777,-60.914 135.777,-135.781c0,-71.05 -54.862,-129.529 -124.447,-135.304l-1.034,13.659c27.713,2.316 52.789,13.894 72.138,31.622c-0.527,-0.033 -1.04,-0.097 -1.582,-0.097c-11.991,0 -20.5,10.445 -20.5,21.665c0,10.06 5.805,18.57 11.992,28.631c4.643,8.131 10.064,18.575 10.064,33.667c0,10.447 -4.018,22.57 -9.289,39.463l-12.178,40.682l-44.116,-131.223c7.347,-0.387 13.969,-1.16 13.969,-1.16c6.578,-0.778 5.802,-10.445 -0.778,-10.06c0,0 -3.484,0.273 -8.471,0.591c-2.893,-6.04 -9.609,-17.937 -9.609,-17.937l-0.053,-0.125l0,-5.481l-1.345,0c-2.748,-3.289 -5.636,-13.607 -5.636,-13.607c0,0 -0.185,-1.198 -0.483,-3.276l0.124,-3.945l-0.676,0c-1.592,-11.651 -4.411,-34.704 -3.937,-48.781c0.006,-0.047 0.009,-0.096 0.01,-0.146l0.385,0l0.466,-2.117l-0.375,0l-0.364,-1.552l-0.611,0l-0.226,-1.823l-1.052,0Zm126.838,291.929c0.357,-3.067 3.136,-5.267 6.202,-4.91c3.067,0.356 5.267,3.135 4.911,6.202c-0.357,3.066 -3.136,5.267 -6.202,4.91c-3.067,-0.356 -5.267,-3.135 -4.911,-6.202Zm-246.56,-6.757c0.399,-3.431 3.508,-5.893 6.939,-5.494c3.431,0.399 5.892,3.508 5.493,6.939c-0.398,3.43 -3.508,5.892 -6.938,5.493c-3.431,-0.399 -5.892,-3.508 -5.494,-6.938Zm123.702,-107.84l-36.631,106.429c10.94,3.217 22.506,4.974 34.487,4.974c14.216,0 27.851,-2.454 40.54,-6.92c-0.325,-0.524 -0.628,-1.079 -0.875,-1.682l-37.521,-102.801Zm133.109,98.808c0.706,-6.074 6.21,-10.432 12.284,-9.726c6.074,0.706 10.432,6.211 9.726,12.285c-0.706,6.074 -6.211,10.431 -12.284,9.725c-6.074,-0.706 -10.432,-6.21 -9.726,-12.284Zm-281.598,-5.524c0.294,0 0.592,0.018 0.891,0.052c4.257,0.495 7.311,4.353 6.817,8.61c-0.459,3.942 -3.799,6.852 -7.67,6.87l-0.025,0c-0.302,0 -0.608,-0.017 -0.915,-0.053c-4.257,-0.495 -7.312,-4.353 -6.817,-8.61c0.459,-3.949 3.813,-6.864 7.694,-6.869l0.025,0Zm18.146,4.23c0.175,0.001 0.352,0.012 0.53,0.033c2.678,0.311 4.6,2.738 4.288,5.417c-0.288,2.479 -2.39,4.311 -4.825,4.322l-0.031,0c-0.185,-0.001 -0.372,-0.012 -0.561,-0.033c-2.678,-0.312 -4.6,-2.739 -4.288,-5.417c0.289,-2.491 2.407,-4.327 4.856,-4.322l0.031,0Zm6.127,-108.192c0,48.317 28.078,90.079 68.803,109.862l-58.232,-159.544c-6.773,15.181 -10.571,31.983 -10.571,49.682Zm-68.722,86.194c1.146,-9.853 10.074,-16.922 19.926,-15.776c9.852,1.145 16.921,10.073 15.776,19.926c-1.145,9.852 -10.074,16.921 -19.926,15.775c-9.852,-1.145 -16.921,-10.073 -15.776,-19.925Zm297.915,-144.758c0.525,3.888 0.821,8.059 0.821,12.553c0,12.382 -2.319,26.308 -9.284,43.723l-37.284,107.802c36.292,-21.159 60.698,-60.479 60.698,-105.515c0,-21.224 -5.422,-41.177 -14.951,-58.563Zm59.972,154.568c0.291,-2.507 2.563,-4.306 5.07,-4.014c2.507,0.291 4.305,2.563 4.014,5.07c-0.292,2.506 -2.563,4.305 -5.07,4.014c-2.507,-0.292 -4.306,-2.563 -4.014,-5.07Zm-38.676,-5.03c0.528,-4.54 4.643,-7.798 9.183,-7.27c4.541,0.528 7.798,4.643 7.271,9.183c-0.528,4.541 -4.643,7.798 -9.184,7.271c-4.54,-0.528 -7.798,-4.643 -7.27,-9.184Zm-274.137,3.376c0.291,-2.507 2.563,-4.305 5.07,-4.014c2.507,0.292 4.305,2.563 4.014,5.07c-0.291,2.507 -2.563,4.306 -5.07,4.015c-2.507,-0.292 -4.306,-2.564 -4.014,-5.071Zm-8.109,-18.878c0.726,-6.244 6.385,-10.725 12.629,-9.999c6.245,0.726 10.725,6.385 9.999,12.629c-0.726,6.245 -6.385,10.725 -12.629,9.999c-6.244,-0.726 -10.725,-6.385 -9.999,-12.629Zm305.561,5.215c0.321,-2.765 2.827,-4.749 5.592,-4.428c2.765,0.322 4.749,2.827 4.427,5.592c-0.321,2.765 -2.827,4.749 -5.592,4.428c-2.765,-0.321 -4.749,-2.827 -4.427,-5.592Zm-16.853,-4.651c0.403,-3.46 3.538,-5.943 6.998,-5.541c3.46,0.403 5.942,3.538 5.54,6.998c-0.402,3.46 -3.538,5.942 -6.998,5.54c-3.459,-0.402 -5.942,-3.538 -5.54,-6.997Zm36.055,-2.244c0.273,-2.353 2.406,-4.041 4.759,-3.767c2.353,0.273 4.041,2.406 3.767,4.758c-0.273,2.353 -2.405,4.042 -4.758,3.768c-2.353,-0.273 -4.042,-2.406 -3.768,-4.759Zm-374.826,-4.781c0.349,-3.003 3.07,-5.158 6.073,-4.809c3.003,0.35 5.157,3.071 4.808,6.074c-0.349,3.002 -3.07,5.157 -6.073,4.808c-3.002,-0.349 -5.157,-3.07 -4.808,-6.073Zm351.447,-7.831c0.679,-5.839 5.97,-10.028 11.809,-9.349c5.839,0.678 10.029,5.97 9.35,11.809c-0.679,5.839 -5.97,10.028 -11.809,9.349c-5.839,-0.678 -10.028,-5.97 -9.35,-11.809Zm-313.018,0.547c0.486,-4.179 4.274,-7.178 8.453,-6.692c4.18,0.485 7.179,4.273 6.693,8.453c-0.486,4.179 -4.274,7.178 -8.453,6.692c-4.18,-0.485 -7.179,-4.273 -6.693,-8.453Zm336.402,-3.717c0.321,-2.765 2.827,-4.749 5.592,-4.427c2.765,0.321 4.749,2.827 4.428,5.592c-0.322,2.765 -2.827,4.749 -5.593,4.427c-2.765,-0.321 -4.748,-2.827 -4.427,-5.592Zm12.714,-9.341c0.247,-2.122 2.169,-3.643 4.29,-3.397c2.121,0.247 3.643,2.169 3.397,4.29c-0.247,2.121 -2.169,3.643 -4.29,3.397c-2.122,-0.247 -3.644,-2.169 -3.397,-4.29Zm-32.854,-15.282c1.049,-9.028 9.231,-15.506 18.26,-14.456c9.028,1.049 15.506,9.231 14.456,18.259c-1.049,9.029 -9.231,15.506 -18.259,14.457c-9.029,-1.049 -15.507,-9.231 -14.457,-18.26Zm-326.382,5.14c0.553,-4.751 4.859,-8.16 9.61,-7.608c4.751,0.553 8.161,4.858 7.608,9.61c-0.552,4.751 -4.858,8.16 -9.609,7.608c-4.752,-0.552 -8.161,-4.858 -7.609,-9.61Zm19.633,-4.783c0.339,-2.921 2.987,-5.017 5.908,-4.678c2.922,0.34 5.018,2.988 4.678,5.909c-0.339,2.921 -2.987,5.018 -5.908,4.678c-2.922,-0.34 -5.018,-2.987 -4.678,-5.909Zm-10.393,-12.507c0.46,-3.951 4.04,-6.785 7.991,-6.326c3.951,0.459 6.785,4.039 6.326,7.99c-0.459,3.951 -4.04,6.786 -7.99,6.326c-3.951,-0.459 -6.786,-4.039 -6.327,-7.99Zm-25.988,-1.212c0.334,-2.876 2.94,-4.939 5.815,-4.605c2.876,0.335 4.939,2.941 4.605,5.816c-0.334,2.876 -2.94,4.939 -5.816,4.605c-2.875,-0.334 -4.939,-2.94 -4.604,-5.816Zm340.991,-6.69c0.2,-1.722 1.761,-2.958 3.483,-2.758c1.722,0.201 2.958,1.761 2.758,3.483c-0.201,1.723 -1.761,2.958 -3.483,2.758c-1.723,-0.2 -2.958,-1.761 -2.758,-3.483Zm6.575,-3.504c0.399,-3.434 3.511,-5.898 6.944,-5.498c3.434,0.399 5.898,3.511 5.499,6.944c-0.4,3.434 -3.511,5.898 -6.945,5.499c-3.434,-0.4 -5.898,-3.511 -5.498,-6.945Zm-330.285,-8.384c0.744,-6.399 6.543,-10.99 12.941,-10.246c6.399,0.744 10.99,6.543 10.247,12.941c-0.744,6.399 -6.543,10.99 -12.942,10.246c-6.399,-0.743 -10.99,-6.542 -10.246,-12.941Zm22.857,7.193c0.292,-2.51 2.566,-4.31 5.076,-4.018c2.51,0.291 4.31,2.566 4.019,5.075c-0.292,2.51 -2.566,4.311 -5.076,4.019c-2.51,-0.292 -4.31,-2.566 -4.019,-5.076Zm337.076,-2.599c0.329,-2.829 2.893,-4.859 5.723,-4.53c2.829,0.329 4.859,2.893 4.53,5.722c-0.328,2.83 -2.893,4.86 -5.722,4.531c-2.83,-0.329 -4.86,-2.893 -4.531,-5.723Zm-25.941,-11.847c0.626,-5.389 5.511,-9.256 10.9,-8.63c5.39,0.627 9.257,5.511 8.63,10.901c-0.626,5.389 -5.51,9.256 -10.9,8.63c-5.39,-0.627 -9.257,-5.511 -8.63,-10.901Zm-345.39,-2.373c0.309,-2.66 2.72,-4.568 5.38,-4.259c2.66,0.309 4.568,2.72 4.259,5.38c-0.309,2.66 -2.72,4.568 -5.38,4.259c-2.659,-0.309 -4.568,-2.72 -4.259,-5.38Zm31.717,-6.159c0.196,-1.686 1.723,-2.896 3.409,-2.7c1.686,0.196 2.896,1.724 2.7,3.41c-0.196,1.686 -1.724,2.896 -3.41,2.7c-1.686,-0.196 -2.895,-1.724 -2.699,-3.41Zm304.922,-6.995c0.503,-4.326 4.423,-7.43 8.75,-6.927c4.326,0.503 7.43,4.423 6.927,8.749c-0.503,4.327 -4.423,7.431 -8.75,6.928c-4.326,-0.503 -7.43,-4.424 -6.927,-8.75Zm-318.432,-1.163c0.512,-4.402 4.501,-7.56 8.903,-7.049c4.402,0.512 7.56,4.501 7.048,8.903c-0.511,4.402 -4.5,7.56 -8.902,7.049c-4.402,-0.512 -7.561,-4.501 -7.049,-8.903Zm-10.942,2.418c0.161,-1.389 1.419,-2.385 2.808,-2.224c1.389,0.162 2.385,1.42 2.224,2.809c-0.162,1.388 -1.42,2.385 -2.809,2.223c-1.389,-0.161 -2.385,-1.42 -2.223,-2.808Zm361.205,-6.586c0.31,-2.662 2.722,-4.572 5.384,-4.262c2.661,0.309 4.571,2.721 4.262,5.383c-0.31,2.661 -2.722,4.571 -5.384,4.262c-2.661,-0.31 -4.571,-2.722 -4.262,-5.383Zm-393.157,-3.049c0.479,-4.12 4.213,-7.076 8.333,-6.597c4.121,0.479 7.077,4.213 6.598,8.333c-0.479,4.12 -4.213,7.077 -8.333,6.598c-4.121,-0.479 -7.077,-4.213 -6.598,-8.334Zm23.375,-0.926c0.248,-2.136 2.184,-3.669 4.321,-3.421c2.136,0.249 3.669,2.185 3.421,4.321c-0.248,2.137 -2.185,3.67 -4.321,3.422c-2.137,-0.249 -3.67,-2.185 -3.421,-4.322Zm347.976,-10.989c0.8,-6.879 7.034,-11.814 13.913,-11.015c6.879,0.8 11.815,7.034 11.015,13.913c-0.799,6.879 -7.034,11.815 -13.913,11.015c-6.879,-0.799 -11.814,-7.034 -11.015,-13.913Zm-340.447,-0.085c0.683,-5.878 6.01,-10.095 11.888,-9.412c5.878,0.683 10.095,6.01 9.412,11.888c-0.684,5.878 -6.01,10.096 -11.888,9.412c-5.878,-0.683 -10.096,-6.01 -9.412,-11.888Zm23.026,5.387c0.302,-2.598 2.657,-4.462 5.255,-4.16c2.599,0.302 4.463,2.656 4.161,5.255c-0.302,2.598 -2.657,4.463 -5.255,4.161c-2.599,-0.302 -4.463,-2.657 -4.161,-5.256Zm353.576,-9.395c0.242,-2.081 2.128,-3.574 4.209,-3.332c2.082,0.242 3.575,2.128 3.333,4.209c-0.242,2.081 -2.128,3.575 -4.209,3.333c-2.082,-0.242 -3.575,-2.128 -3.333,-4.21Zm-48.967,-10.437c0.528,-4.541 4.643,-7.798 9.183,-7.271c4.54,0.528 7.798,4.643 7.27,9.183c-0.527,4.54 -4.642,7.798 -9.183,7.27c-4.54,-0.527 -7.798,-4.642 -7.27,-9.182Zm-322.074,-9.191c0.435,-3.744 3.828,-6.43 7.573,-5.995c3.744,0.435 6.43,3.828 5.995,7.573c-0.435,3.744 -3.828,6.43 -7.573,5.995c-3.744,-0.435 -6.43,-3.828 -5.995,-7.573Zm343.347,3.338c0.242,-2.081 2.128,-3.575 4.21,-3.333c2.081,0.242 3.574,2.128 3.332,4.21c-0.242,2.081 -2.128,3.574 -4.209,3.332c-2.082,-0.241 -3.575,-2.128 -3.333,-4.209Zm-24.586,-11.75c0.473,-4.07 4.161,-6.99 8.23,-6.517c4.07,0.473 6.99,4.161 6.517,8.231c-0.473,4.07 -4.161,6.99 -8.231,6.517c-4.069,-0.474 -6.989,-4.162 -6.516,-8.231Zm-273.882,5.073c0.177,-1.519 1.554,-2.609 3.073,-2.433c1.519,0.177 2.61,1.554 2.433,3.073c-0.177,1.519 -1.554,2.61 -3.073,2.433c-1.519,-0.177 -2.609,-1.554 -2.433,-3.073Zm140.47,1.425c-0.576,-3.474 -3.004,-12.215 -12.88,-12.302c-9.887,0.087 -12.31,8.844 -12.882,12.311c4.411,0.204 8.874,0.351 12.564,0.351c3.987,0 8.659,-0.152 13.198,-0.36Zm-156.119,-16.999c0.797,-6.854 7.008,-11.771 13.862,-10.975c6.853,0.797 11.771,7.008 10.974,13.862c-0.796,6.854 -7.008,11.771 -13.861,10.975c-6.854,-0.797 -11.772,-7.008 -10.975,-13.862Zm320.58,6.647c0.411,-3.533 3.613,-6.068 7.146,-5.657c3.533,0.411 6.068,3.612 5.657,7.145c-0.411,3.533 -3.612,6.068 -7.145,5.658c-3.533,-0.411 -6.068,-3.613 -5.658,-7.146Zm-337.226,3.147c0.175,-1.506 1.54,-2.587 3.046,-2.412c1.506,0.175 2.587,1.54 2.412,3.046c-0.175,1.506 -1.54,2.587 -3.046,2.412c-1.507,-0.175 -2.587,-1.54 -2.412,-3.046Zm11.778,-0.49c0.175,-1.506 1.54,-2.587 3.046,-2.412c1.506,0.175 2.587,1.54 2.411,3.046c-0.175,1.506 -1.539,2.587 -3.046,2.412c-1.506,-0.175 -2.586,-1.54 -2.411,-3.046Zm299.483,-16.771c0.692,-5.956 6.09,-10.229 12.046,-9.537c5.956,0.693 10.23,6.09 9.537,12.046c-0.692,5.956 -6.09,10.23 -12.046,9.538c-5.956,-0.693 -10.23,-6.09 -9.537,-12.047Zm-307.552,2.637c0.399,-3.437 3.514,-5.902 6.95,-5.503c3.436,0.4 5.902,3.514 5.502,6.95c-0.399,3.436 -3.513,5.902 -6.95,5.502c-3.436,-0.399 -5.901,-3.513 -5.502,-6.949Zm-25.976,-1.356c0.272,-2.343 2.396,-4.024 4.739,-3.752c2.343,0.273 4.024,2.396 3.752,4.739c-0.273,2.343 -2.396,4.024 -4.739,3.752c-2.343,-0.272 -4.024,-2.396 -3.752,-4.739Zm179.719,-11.383l-2.153,10.95l9.172,0l-1.965,-10.856l-5.054,-0.094Zm-146.379,-2.133c0.576,-4.96 5.071,-8.518 10.03,-7.942c4.96,0.577 8.518,5.071 7.942,10.031c-0.577,4.959 -5.071,8.518 -10.031,7.941c-4.959,-0.576 -8.518,-5.071 -7.941,-10.03Zm317.563,-3.129c0.351,-3.022 3.09,-5.191 6.112,-4.839c3.023,0.351 5.191,3.09 4.84,6.112c-0.352,3.022 -3.09,5.19 -6.113,4.839c-3.022,-0.351 -5.19,-3.09 -4.839,-6.112Zm-21.581,-4.609c0.508,-4.371 4.469,-7.508 8.84,-6.999c4.372,0.508 7.508,4.469 7,8.84c-0.508,4.372 -4.47,7.508 -8.841,7c-4.371,-0.508 -7.508,-4.47 -6.999,-8.841Zm-278,-4.459c0.235,-2.02 2.065,-3.469 4.085,-3.234c2.019,0.235 3.468,2.065 3.233,4.084c-0.235,2.02 -2.065,3.469 -4.084,3.234c-2.02,-0.235 -3.469,-2.065 -3.234,-4.084Zm255.996,-13.542c0.863,-7.423 7.59,-12.75 15.014,-11.887c7.423,0.863 12.75,7.591 11.887,15.014c-0.863,7.424 -7.591,12.75 -15.014,11.887c-7.424,-0.863 -12.75,-7.59 -11.887,-15.014Zm-12.179,7.179c0.384,-3.307 3.382,-5.68 6.689,-5.296c3.307,0.385 5.68,3.382 5.296,6.689c-0.384,3.308 -3.382,5.681 -6.689,5.296c-3.307,-0.384 -5.68,-3.382 -5.296,-6.689Zm-218.948,-1.748c0.375,-3.226 3.298,-5.54 6.524,-5.165c3.225,0.375 5.54,3.298 5.165,6.524c-0.375,3.226 -3.298,5.54 -6.524,5.165c-3.226,-0.375 -5.54,-3.298 -5.165,-6.524Zm-19.369,-5.12c0.476,-4.09 4.182,-7.025 8.272,-6.549c4.09,0.475 7.025,4.182 6.549,8.272c-0.475,4.09 -4.182,7.024 -8.272,6.549c-4.09,-0.476 -7.024,-4.182 -6.549,-8.272Zm281.271,5.065c0.186,-1.601 1.636,-2.75 3.237,-2.564c1.601,0.186 2.75,1.637 2.564,3.238c-0.187,1.601 -1.637,2.749 -3.238,2.563c-1.601,-0.186 -2.749,-1.637 -2.563,-3.237Zm-296.583,-4.396c0.361,-3.107 3.177,-5.336 6.284,-4.974c3.106,0.361 5.335,3.176 4.974,6.283c-0.361,3.106 -3.176,5.335 -6.283,4.974c-3.107,-0.361 -5.336,-3.176 -4.975,-6.283Zm49.814,-1.223c0.237,-2.039 2.084,-3.502 4.123,-3.265c2.039,0.237 3.502,2.085 3.265,4.123c-0.237,2.039 -2.085,3.502 -4.124,3.265c-2.039,-0.237 -3.501,-2.085 -3.264,-4.123Zm196.454,-8.934c0.612,-5.263 5.381,-9.039 10.644,-8.427c5.263,0.612 9.039,5.381 8.427,10.644c-0.611,5.263 -5.381,9.039 -10.644,8.427c-5.263,-0.612 -9.039,-5.381 -8.427,-10.644Zm-216.757,-1.97c0.506,-4.352 4.45,-7.475 8.802,-6.969c4.352,0.506 7.474,4.45 6.968,8.802c-0.505,4.352 -4.449,7.475 -8.801,6.969c-4.352,-0.506 -7.475,-4.45 -6.969,-8.802Zm183.014,1.967c0.375,-3.23 3.302,-5.548 6.533,-5.172c3.23,0.375 5.548,3.302 5.172,6.533c-0.375,3.23 -3.303,5.548 -6.533,5.172c-3.23,-0.375 -5.548,-3.303 -5.172,-6.533Zm-164.093,-4.804c0.516,-4.441 4.541,-7.628 8.981,-7.111c4.441,0.516 7.628,4.54 7.112,8.981c-0.517,4.441 -4.541,7.627 -8.982,7.111c-4.441,-0.516 -7.627,-4.54 -7.111,-8.981Zm17.065,-5.329c0.772,-6.637 6.787,-11.399 13.424,-10.628c6.637,0.772 11.399,6.787 10.627,13.424c-0.771,6.637 -6.786,11.399 -13.423,10.627c-6.637,-0.771 -11.399,-6.786 -10.628,-13.423Zm155.836,-6.269c0.875,-7.526 7.696,-12.927 15.223,-12.052c7.527,0.875 12.927,7.696 12.052,15.223c-0.875,7.527 -7.696,12.927 -15.223,12.052c-7.526,-0.875 -12.927,-7.696 -12.052,-15.223Zm-16.13,4.586c0.423,-3.642 3.724,-6.256 7.366,-5.832c3.643,0.423 6.256,3.724 5.833,7.366c-0.424,3.642 -3.725,6.255 -7.367,5.832c-3.642,-0.423 -6.255,-3.724 -5.832,-7.366Zm101.954,-1.226c0.282,-2.423 2.477,-4.161 4.9,-3.879c2.423,0.281 4.162,2.477 3.88,4.9c-0.282,2.423 -2.477,4.161 -4.9,3.88c-2.423,-0.282 -4.162,-2.478 -3.88,-4.901Zm-141.613,-10.802c0.811,-6.977 7.135,-11.984 14.112,-11.173c6.978,0.811 11.984,7.135 11.173,14.112c-0.811,6.978 -7.134,11.984 -14.112,11.173c-6.977,-0.811 -11.984,-7.134 -11.173,-14.112Zm-161.397,5.746c0.372,-3.202 3.273,-5.499 6.475,-5.127c3.201,0.372 5.498,3.274 5.126,6.475c-0.372,3.202 -3.273,5.499 -6.475,5.127c-3.201,-0.372 -5.499,-3.274 -5.126,-6.475Zm50.934,-1.622c0.384,-3.309 3.383,-5.683 6.691,-5.298c3.309,0.385 5.683,3.383 5.298,6.691c-0.385,3.309 -3.383,5.683 -6.692,5.298c-3.308,-0.384 -5.682,-3.383 -5.297,-6.691Zm-25.055,-4.637c0.634,-5.454 5.577,-9.367 11.03,-8.733c5.454,0.634 9.367,5.576 8.733,11.03c-0.634,5.454 -5.576,9.367 -11.03,8.733c-5.454,-0.634 -9.367,-5.576 -8.733,-11.03Zm228.487,1.969c0.444,-3.821 3.907,-6.562 7.727,-6.118c3.821,0.444 6.562,3.907 6.118,7.728c-0.444,3.82 -3.906,6.562 -7.727,6.117c-3.821,-0.444 -6.562,-3.906 -6.118,-7.727Zm-64.237,3.104c0.26,-2.242 2.292,-3.851 4.534,-3.59c2.242,0.26 3.851,2.292 3.59,4.534c-0.26,2.242 -2.292,3.851 -4.534,3.59c-2.242,-0.26 -3.851,-2.292 -3.59,-4.534Zm-108.77,-4.413c0.465,-4.003 4.093,-6.875 8.096,-6.41c4.003,0.466 6.875,4.094 6.41,8.097c-0.465,4.003 -4.093,6.875 -8.096,6.41c-4.003,-0.466 -6.876,-4.093 -6.41,-8.097Zm14.938,-5.731c0.603,-5.188 5.304,-8.909 10.491,-8.306c5.187,0.603 8.909,5.303 8.306,10.491c-0.603,5.187 -5.304,8.909 -10.491,8.306c-5.187,-0.603 -8.909,-5.304 -8.306,-10.491Zm-23.693,2.014c0.222,-1.913 1.956,-3.286 3.869,-3.063c1.914,0.222 3.286,1.956 3.064,3.869c-0.222,1.913 -1.956,3.286 -3.87,3.064c-1.913,-0.223 -3.285,-1.957 -3.063,-3.87Zm121.771,-11.492c0.423,-3.643 3.724,-6.256 7.366,-5.832c3.643,0.423 6.256,3.724 5.833,7.366c-0.424,3.642 -3.725,6.255 -7.367,5.832c-3.642,-0.423 -6.255,-3.724 -5.832,-7.366Zm-42.032,-2.787c0.481,-4.137 4.229,-7.105 8.366,-6.624c4.136,0.481 7.104,4.23 6.624,8.366c-0.481,4.137 -4.23,7.105 -8.367,6.624c-4.136,-0.481 -7.104,-4.23 -6.623,-8.366Zm-50.134,-11.047c0.859,-7.389 7.556,-12.691 14.945,-11.832c7.39,0.859 12.692,7.556 11.833,14.945c-0.859,7.39 -7.556,12.692 -14.945,11.833c-7.39,-0.859 -12.692,-7.556 -11.833,-14.946Zm-58.186,4.981c0.26,-2.243 2.292,-3.851 4.534,-3.591c2.242,0.261 3.851,2.293 3.59,4.535c-0.26,2.242 -2.292,3.851 -4.534,3.59c-2.242,-0.261 -3.851,-2.292 -3.59,-4.534Zm32.449,-3.339c0.423,-3.642 3.724,-6.256 7.366,-5.832c3.642,0.423 6.256,3.724 5.832,7.366c-0.423,3.642 -3.724,6.256 -7.366,5.832c-3.642,-0.423 -6.256,-3.724 -5.832,-7.366Zm56.808,3.428c0.223,-1.913 1.957,-3.286 3.87,-3.063c1.913,0.222 3.286,1.956 3.063,3.869c-0.222,1.913 -1.956,3.286 -3.869,3.064c-1.913,-0.223 -3.286,-1.956 -3.064,-3.87Zm8.344,-10.984c0.332,-2.859 2.924,-4.911 5.784,-4.579c2.86,0.332 4.912,2.924 4.579,5.784c-0.332,2.86 -2.924,4.912 -5.784,4.579c-2.859,-0.332 -4.911,-2.924 -4.579,-5.784Zm85.427,-3.405c0.339,-2.922 2.986,-5.017 5.908,-4.678c2.921,0.34 5.017,2.987 4.677,5.908c-0.339,2.921 -2.987,5.017 -5.908,4.677c-2.921,-0.339 -5.017,-2.986 -4.677,-5.907Zm-52.997,0.225c0.26,-2.242 2.292,-3.85 4.534,-3.59c2.242,0.261 3.851,2.293 3.59,4.535c-0.26,2.242 -2.292,3.85 -4.534,3.59c-2.242,-0.261 -3.851,-2.293 -3.59,-4.535Z" style="fill:#fff;fill-rule:nonzero;"/></svg>