<?xml version="1.0" encoding="UTF-8" standalone="no"?><!DOCTYPE svg PUBLIC "-//W3C//DTD SVG 1.1//EN" "http://www.w3.org/Graphics/SVG/1.1/DTD/svg11.dtd"><svg width="100%" height="100%" viewBox="0 0 567 567" version="1.1" xmlns="http://www.w3.org/2000/svg" xmlns:xlink="http://www.w3.org/1999/xlink" xml:space="preserve" xmlns:serif="http://www.serif.com/" style="fill-rule:evenodd;clip-rule:evenodd;stroke-linejoin:round;stroke-miterlimit:1.41421;"><rect id="wcparis18-logo-black" x="0" y="0" width="566.929" height="566.929" style="fill:none;"/><g id="logo-rvb" serif:id="logo rvb"><path d="M293.847,442.853c0.232,-1.992 2.037,-3.422 4.029,-3.19c1.992,0.232 3.422,2.037 3.19,4.029c-0.231,1.992 -2.037,3.421 -4.029,3.19c-1.992,-0.232 -3.421,-2.037 -3.19,-4.029Zm-55.468,-9.785c0.51,-4.394 4.493,-7.548 8.888,-7.037c4.395,0.511 7.549,4.494 7.038,8.889c-0.511,4.395 -4.494,7.548 -8.889,7.037c-4.395,-0.511 -7.548,-4.494 -7.037,-8.889Zm120.02,-0.792c0.321,-2.766 2.828,-4.75 5.593,-4.429c2.766,0.322 4.751,2.828 4.429,5.594c-0.321,2.766 -2.828,4.75 -5.594,4.428c-2.765,-0.321 -4.75,-2.828 -4.428,-5.593Zm-46.307,-1.287c0.371,-3.193 3.265,-5.485 6.459,-5.114c3.193,0.372 5.485,3.266 5.113,6.459c-0.371,3.194 -3.265,5.485 -6.458,5.114c-3.194,-0.371 -5.485,-3.265 -5.114,-6.459Zm-41.322,-3.357c0.327,-2.817 2.88,-4.837 5.696,-4.51c2.817,0.327 4.837,2.88 4.51,5.696c-0.327,2.817 -2.88,4.838 -5.696,4.51c-2.817,-0.327 -4.838,-2.88 -4.51,-5.696Zm22.663,-4.46c0.371,-3.193 3.266,-5.485 6.459,-5.113c3.194,0.371 5.485,3.265 5.114,6.458c-0.371,3.194 -3.266,5.485 -6.459,5.114c-3.194,-0.371 -5.485,-3.265 -5.114,-6.459Zm-93.827,-6.09c0.706,-6.076 6.212,-10.435 12.288,-9.729c6.077,0.706 10.436,6.213 9.73,12.289c-0.706,6.076 -6.213,10.435 -12.289,9.729c-6.076,-0.706 -10.435,-6.213 -9.729,-12.289Zm54.464,-9.539c0.886,-7.619 7.791,-13.086 15.411,-12.2c7.619,0.885 13.086,7.79 12.2,15.41c-0.885,7.619 -7.79,13.086 -15.41,12.201c-7.619,-0.886 -13.086,-7.791 -12.201,-15.411Zm-11.653,8.098c0.367,-3.158 3.23,-5.424 6.388,-5.057c3.159,0.367 5.425,3.229 5.058,6.388c-0.368,3.158 -3.23,5.424 -6.388,5.057c-3.159,-0.367 -5.425,-3.229 -5.058,-6.388Zm154.643,2.883c0.172,-1.478 1.512,-2.539 2.99,-2.367c1.479,0.172 2.54,1.511 2.368,2.99c-0.172,1.478 -1.512,2.539 -2.991,2.367c-1.478,-0.172 -2.539,-1.511 -2.367,-2.99Zm-171.375,-7.473c0.518,-4.463 4.563,-7.665 9.026,-7.147c4.462,0.519 7.665,4.564 7.146,9.026c-0.519,4.463 -4.563,7.665 -9.026,7.147c-4.463,-0.519 -7.665,-4.564 -7.146,-9.026Zm98.614,4.582c0.24,-2.061 2.108,-3.54 4.169,-3.3c2.061,0.239 3.539,2.107 3.3,4.168c-0.24,2.061 -2.107,3.54 -4.169,3.3c-2.061,-0.239 -3.539,-2.107 -3.3,-4.168Zm-20.365,-8.267c0.613,-5.273 5.391,-9.056 10.664,-8.443c5.272,0.613 9.055,5.391 8.443,10.664c-0.613,5.273 -5.392,9.056 -10.664,8.443c-5.273,-0.613 -9.056,-5.391 -8.443,-10.664Zm39.103,-4.098c0.774,-6.659 6.808,-11.436 13.467,-10.662c6.658,0.774 11.436,6.808 10.662,13.466c-0.774,6.659 -6.808,11.436 -13.467,10.662c-6.658,-0.774 -11.436,-6.808 -10.662,-13.466Zm-47.496,6.622c0.232,-1.992 2.037,-3.422 4.029,-3.19c1.992,0.231 3.422,2.037 3.19,4.029c-0.232,1.992 -2.037,3.421 -4.029,3.19c-1.992,-0.232 -3.422,-2.037 -3.19,-4.029Zm-12.985,-7.791c0.451,-3.879 3.967,-6.663 7.846,-6.212c3.88,0.451 6.663,3.967 6.212,7.846c-0.451,3.88 -3.967,6.663 -7.846,6.212c-3.879,-0.451 -6.663,-3.967 -6.212,-7.846Zm40.963,-3.305c0.602,-5.183 5.299,-8.901 10.482,-8.299c5.184,0.603 8.902,5.3 8.3,10.483c-0.603,5.183 -5.3,8.902 -10.483,8.299c-5.183,-0.602 -8.902,-5.299 -8.299,-10.483Zm-142.864,1.852c0.495,-4.258 4.353,-7.312 8.61,-6.817c4.257,0.495 7.312,4.353 6.817,8.61c-0.495,4.257 -4.353,7.311 -8.61,6.817c-4.257,-0.495 -7.312,-4.353 -6.817,-8.61Zm59.569,0.247c0.439,-3.776 3.861,-6.486 7.638,-6.047c3.777,0.439 6.486,3.862 6.047,7.638c-0.439,3.777 -3.861,6.486 -7.638,6.047c-3.776,-0.439 -6.486,-3.861 -6.047,-7.638Zm-11.589,-285.756c-0.457,-1.118 -0.646,-2.363 -0.497,-3.646c0.471,-4.055 4.146,-6.964 8.201,-6.493c1.143,0.133 2.194,0.52 3.105,1.098c-0.557,-2.014 -0.742,-4.167 -0.486,-6.369c1.065,-9.163 9.369,-15.737 18.531,-14.672c3.501,0.407 6.625,1.871 9.088,4.036c-0.299,-2 -0.341,-4.072 -0.097,-6.175c1.494,-12.848 13.137,-22.067 25.985,-20.573c12.848,1.493 22.066,13.137 20.573,25.985c-0.237,2.042 -0.731,3.992 -1.445,5.822c2.152,-1.282 4.727,-1.893 7.405,-1.582c6.06,0.704 10.52,5.884 10.46,11.852c1.047,0.272 2.09,0.556 3.13,0.852c-1.278,-1.873 -1.914,-4.197 -1.632,-6.623c0.622,-5.351 5.472,-9.191 10.823,-8.569c5.351,0.622 9.19,5.472 8.568,10.823c-0.186,1.598 -0.748,3.061 -1.589,4.311c1.7,-0.642 3.574,-0.898 5.502,-0.674c6.45,0.75 11.078,6.595 10.328,13.046c-0.041,0.353 -0.097,0.701 -0.168,1.043l0.332,0.192l0.278,0.161c3.317,-7.705 11.4,-12.669 20.156,-11.651c10.686,1.242 18.353,10.925 17.111,21.611c-0.114,0.977 -0.298,1.929 -0.547,2.851c4.394,-3.203 9.957,-4.826 15.779,-4.149c12.285,1.428 21.1,12.561 19.672,24.847c-0.841,7.235 -5.048,13.266 -10.875,16.711c7.719,1.178 13.185,8.28 12.276,16.098c-0.664,5.717 -4.559,10.279 -9.648,12.075c0.165,0.512 0.329,1.024 0.499,1.535c0.291,0.905 0.573,1.812 0.847,2.72c1.081,-4.613 5.479,-7.787 10.297,-7.227c5.184,0.603 8.904,5.301 8.301,10.484c-0.601,5.171 -5.276,8.884 -10.443,8.306c1.232,1.859 1.839,4.146 1.562,6.533c-0.361,3.101 -2.136,5.696 -4.606,7.214c0.022,0.194 0.043,0.388 0.064,0.582c0.831,-0.068 1.681,-0.055 2.54,0.045c7.063,0.821 12.13,7.221 11.309,14.284c-0.786,6.762 -6.688,11.696 -13.389,11.381c-0.039,0.579 -0.083,1.157 -0.129,1.735c4.463,1.548 7.417,6.037 6.85,10.921c-0.602,5.178 -4.955,9.015 -10.027,9.111l-0.046,0.175l-0.046,0.171c3.77,0.716 6.404,4.24 5.954,8.112c-0.428,3.681 -3.498,6.418 -7.095,6.533c3.984,2.005 6.493,6.347 5.949,11.033c-0.697,5.993 -6.129,10.294 -12.122,9.597c-1.664,-0.194 -3.197,-0.752 -4.529,-1.586c3.03,2.396 4.787,6.261 4.309,10.376c-0.734,6.316 -6.458,10.848 -12.774,10.114c-1.505,-0.175 -2.909,-0.633 -4.164,-1.315c-0.425,0.574 -0.865,1.139 -1.335,1.686c8.422,3.388 13.898,12.096 12.8,21.544c-1.316,11.32 -11.575,19.442 -22.896,18.127c-5.536,-0.644 -10.307,-3.426 -13.583,-7.425c0.012,0.598 -0.016,1.204 -0.087,1.815c-0.844,7.26 -7.424,12.469 -14.684,11.626c-3.989,-0.464 -7.359,-2.66 -9.446,-5.748c-0.65,0.37 -1.312,0.721 -1.982,1.06c1.828,2.706 2.735,6.053 2.329,9.548c-0.902,7.757 -7.932,13.323 -15.689,12.421c-6.54,-0.76 -11.522,-5.877 -12.384,-12.112c-0.184,0.038 -0.37,0.065 -0.557,0.071c-0.008,0.015 -0.017,0.03 -0.026,0.045c-0.118,0.043 -0.236,0.084 -0.355,0.124c-0.954,3.451 -4.309,5.79 -7.974,5.364c-1.932,-0.225 -3.603,-1.177 -4.772,-2.551l-0.361,0.061l-0.22,0.037c0.052,0.817 0.032,1.65 -0.066,2.491c-0.883,7.597 -7.767,13.047 -15.363,12.164c-4.899,-0.569 -8.904,-3.634 -10.895,-7.775c-2.209,3.864 -6.578,6.248 -11.276,5.702c-5.175,-0.602 -9.146,-4.573 -9.974,-9.466c-1.981,5.812 -7.808,9.667 -14.153,8.93c-5.113,-0.594 -9.215,-4.016 -10.926,-8.521c-2.837,11.215 -13.622,18.88 -25.423,17.508c-12.847,-1.493 -22.066,-13.137 -20.572,-25.985c0.565,-4.861 2.583,-9.203 5.57,-12.641c-2.15,0.786 -4.511,1.095 -6.938,0.812c-8.31,-0.966 -14.272,-8.496 -13.306,-16.806c0.136,-1.171 0.403,-2.296 0.783,-3.361c-2.998,2.751 -6.976,4.405 -11.253,4.424l-0.053,0c-0.654,0.001 -1.314,-0.036 -1.979,-0.113c-9.199,-1.069 -15.799,-9.406 -14.73,-18.605c0.939,-8.072 7.473,-14.143 15.276,-14.786c-0.197,-0.333 -0.392,-0.667 -0.584,-1.002c-1.48,0.958 -3.289,1.428 -5.175,1.208c-4.309,-0.5 -7.4,-4.405 -6.899,-8.714c0.334,-2.872 2.181,-5.204 4.652,-6.291c-0.116,-0.242 -0.23,-0.485 -0.342,-0.729c-2.886,3.17 -7.205,4.954 -11.785,4.421c-7.551,-0.877 -12.968,-7.72 -12.091,-15.271c0.681,-5.852 4.943,-10.423 10.342,-11.775c-1.582,-0.979 -2.544,-2.814 -2.315,-4.782c0.148,-1.274 0.769,-2.379 1.666,-3.16c-0.059,-0.006 -0.117,-0.012 -0.176,-0.019c-4.82,-0.56 -8.279,-4.928 -7.718,-9.748c0.553,-4.759 4.818,-8.191 9.566,-7.738c-0.044,-0.581 -0.083,-1.163 -0.118,-1.745c-0.747,-0.809 -1.149,-1.926 -1.012,-3.104c0.084,-0.727 0.363,-1.384 0.779,-1.925c-0.015,-0.505 -0.027,-1.009 -0.04,-1.514c-1.014,0.252 -2.091,0.33 -3.19,0.202c-4.911,-0.571 -8.435,-5.022 -7.864,-9.933c0.571,-4.912 5.022,-8.436 9.933,-7.865c0.614,0.071 1.207,0.204 1.772,0.39c0.036,-0.284 0.075,-0.567 0.117,-0.849c0.014,0.014 0.027,0.029 0.039,0.043c0.001,-0.012 0.003,-0.025 0.005,-0.038c0.004,-0.096 0.008,-0.191 0.013,-0.286c-0.875,0.138 -1.784,0.16 -2.707,0.053c-5.469,-0.636 -9.393,-5.592 -8.758,-11.062c0.636,-5.469 5.593,-9.393 11.062,-8.757c1.277,0.148 2.469,0.532 3.539,1.103c0.469,-1.958 0.977,-3.901 1.527,-5.83c-2.197,0.732 -4.584,1.005 -7.034,0.721c-8.959,-1.042 -15.387,-9.161 -14.346,-18.12c1.041,-8.959 9.161,-15.388 18.12,-14.346c5.411,0.629 9.899,3.84 12.375,8.258c0.076,-0.139 0.171,-0.276 0.246,-0.415l0.006,-0.013c0.937,-2.16 2.102,-4.171 3.242,-6.219c-0.649,-0.913 -0.976,-2.06 -0.836,-3.26c0.299,-2.574 2.632,-4.421 5.207,-4.122l0.051,0.006c0.075,-0.116 0.15,-0.232 0.225,-0.349c0.114,-0.21 0.267,-0.372 0.425,-0.578l0.001,-0.003c0.044,-0.166 0.115,-0.329 0.217,-0.473c-1.372,-1.312 -2.135,-3.229 -1.899,-5.258c0.265,-2.277 1.721,-4.127 3.673,-5.001c-5.9,-2.877 -9.634,-9.254 -8.833,-16.14c1.014,-8.721 8.917,-14.978 17.638,-13.965c4.045,0.471 7.56,2.423 10.065,5.252c1.922,-3.919 6.165,-6.397 10.745,-5.865c0.717,0.084 1.409,0.237 2.071,0.453c-1.127,-1.972 -1.658,-4.308 -1.375,-6.736c0.702,-6.046 6.182,-10.384 12.228,-9.682c4.739,0.551 8.428,4.036 9.464,8.427c0.385,-0.199 0.77,-0.396 1.156,-0.592Zm150.802,281.303c0.46,-3.957 4.047,-6.796 8.004,-6.336c3.957,0.46 6.797,4.046 6.337,8.003c-0.46,3.958 -4.047,6.797 -8.004,6.337c-3.957,-0.46 -6.797,-4.046 -6.337,-8.004Zm-232.002,-16.857c0.938,-8.066 8.248,-13.854 16.314,-12.916c8.066,0.938 13.854,8.248 12.916,16.314c-0.937,8.066 -8.247,13.854 -16.313,12.916c-8.067,-0.938 -13.854,-8.248 -12.917,-16.314Zm169.625,11.906c0.251,-2.163 2.212,-3.715 4.375,-3.464c2.163,0.252 3.716,2.212 3.464,4.376c-0.251,2.163 -2.212,3.715 -4.375,3.464c-2.164,-0.252 -3.716,-2.212 -3.464,-4.376Zm42.611,-6.643c0.57,-4.909 5.019,-8.431 9.928,-7.861c4.909,0.571 8.431,5.02 7.86,9.929c-0.57,4.909 -5.019,8.431 -9.928,7.86c-4.909,-0.57 -8.431,-5.019 -7.86,-9.928Zm45.703,-1.189c0.576,-4.957 5.068,-8.513 10.024,-7.937c4.956,0.576 8.513,5.068 7.936,10.024c-0.576,4.956 -5.067,8.513 -10.024,7.936c-4.956,-0.576 -8.512,-5.067 -7.936,-10.023Zm-226.897,-8.782c0.61,-5.252 5.371,-9.021 10.623,-8.411c5.253,0.611 9.022,5.371 8.411,10.624c-0.61,5.253 -5.37,9.021 -10.623,8.411c-5.253,-0.611 -9.022,-5.371 -8.411,-10.624Zm214.472,4.036c0.367,-3.159 3.23,-5.425 6.388,-5.058c3.158,0.367 5.425,3.23 5.057,6.388c-0.367,3.159 -3.229,5.425 -6.387,5.058c-3.159,-0.368 -5.425,-3.23 -5.058,-6.388Zm-14.145,-1.015c0.367,-3.158 3.229,-5.424 6.387,-5.057c3.159,0.367 5.425,3.229 5.058,6.388c-0.367,3.158 -3.23,5.424 -6.388,5.057c-3.158,-0.367 -5.425,-3.229 -5.057,-6.388Zm-248.232,2.397c0.21,-1.806 1.847,-3.103 3.654,-2.893c1.807,0.21 3.103,1.848 2.893,3.654c-0.21,1.807 -1.847,3.104 -3.654,2.894c-1.807,-0.21 -3.103,-1.848 -2.893,-3.655Zm159.007,-305.265l0,-6.635c0,-0.084 -0.033,-0.165 -0.093,-0.224c-0.059,-0.06 -0.14,-0.093 -0.224,-0.093c-0.02,0 -0.04,0 -0.06,0c-0.084,0 -0.164,0.033 -0.224,0.093c-0.059,0.059 -0.093,0.14 -0.093,0.224l0,6.635l-1.143,0l-0.225,1.823l-0.611,0l-0.364,1.552l-0.376,0l0.467,2.117l0.617,0c-0.035,0.322 -0.062,0.674 -0.078,1.058c-1.019,23.839 -2.77,39.535 -3.923,47.869l-0.835,0l0.146,4.622c-0.283,1.744 -0.453,2.599 -0.453,2.599c0,0 -2.736,10.319 -5.484,13.607l-1.548,0l0,5.601l-0.002,0.005c0,0 -6.721,11.911 -9.612,17.947c-5.091,-0.322 -8.717,-0.601 -8.717,-0.601c-6.582,-0.385 -7.353,9.671 -0.774,10.06c0,0 6.227,0.773 12.804,1.16l19.018,52.111l-26.719,80.12l-44.451,-132.231c7.355,-0.387 13.971,-1.16 13.971,-1.16c6.573,-0.778 5.796,-10.445 -0.782,-10.06c0,0 -19.768,1.552 -32.534,1.552c-2.29,0 -4.99,-0.056 -7.857,-0.148c19.505,-29.611 51.536,-50.236 88.563,-54.291l-1.895,-13.57c-67.677,7.637 -120.448,65.228 -120.448,134.912c0,74.867 60.91,135.781 135.775,135.781c74.866,0 135.777,-60.914 135.777,-135.781c0,-71.05 -54.862,-129.529 -124.447,-135.304l-1.034,13.659c27.713,2.316 52.79,13.894 72.139,31.622c-0.528,-0.033 -1.041,-0.097 -1.582,-0.097c-11.992,0 -20.5,10.445 -20.5,21.665c0,10.06 5.804,18.57 11.991,28.631c4.644,8.131 10.065,18.575 10.065,33.667c0,10.447 -4.019,22.57 -9.289,39.463l-12.178,40.682l-44.117,-131.223c7.348,-0.387 13.97,-1.16 13.97,-1.16c6.578,-0.778 5.802,-10.445 -0.779,-10.06c0,0 -3.484,0.273 -8.47,0.591c-2.894,-6.04 -9.61,-17.937 -9.61,-17.937l-0.053,-0.125l0,-5.481l-1.344,0c-2.749,-3.289 -5.637,-13.607 -5.637,-13.607c0,0 -0.184,-1.198 -0.482,-3.276l0.124,-3.945l-0.677,0c-1.592,-11.651 -4.411,-34.704 -3.936,-48.781c0.005,-0.047 0.009,-0.096 0.01,-0.146l0.384,0l0.467,-2.117l-0.376,0l-0.364,-1.552l-0.611,0l-0.225,-1.823l-1.052,0Zm126.838,291.929c0.356,-3.067 3.135,-5.267 6.202,-4.91c3.066,0.356 5.267,3.135 4.91,6.202c-0.356,3.066 -3.135,5.267 -6.202,4.91c-3.066,-0.356 -5.267,-3.135 -4.91,-6.202Zm-246.56,-6.757c0.399,-3.431 3.508,-5.893 6.938,-5.494c3.431,0.399 5.893,3.508 5.494,6.939c-0.399,3.43 -3.508,5.892 -6.939,5.493c-3.43,-0.399 -5.892,-3.508 -5.493,-6.938Zm123.702,-107.84l-36.631,106.429c10.939,3.217 22.506,4.974 34.487,4.974c14.216,0 27.851,-2.454 40.539,-6.92c-0.325,-0.524 -0.628,-1.079 -0.875,-1.682l-37.52,-102.801Zm133.108,98.808c0.706,-6.074 6.211,-10.432 12.285,-9.726c6.073,0.706 10.431,6.211 9.725,12.285c-0.706,6.073 -6.21,10.431 -12.284,9.725c-6.074,-0.706 -10.432,-6.21 -9.726,-12.284Zm-281.598,-5.524c0.295,0 0.592,0.018 0.891,0.052c4.257,0.495 7.312,4.353 6.817,8.61c-0.458,3.942 -3.799,6.852 -7.67,6.87l-0.024,0c-0.303,0 -0.608,-0.017 -0.916,-0.053c-4.257,-0.495 -7.311,-4.353 -6.817,-8.61c0.459,-3.949 3.813,-6.864 7.695,-6.869l0.024,0Zm18.146,4.23c0.175,0.001 0.352,0.012 0.53,0.033c2.679,0.311 4.6,2.738 4.289,5.417c-0.288,2.479 -2.39,4.311 -4.826,4.322l-0.031,0c-0.185,-0.001 -0.372,-0.012 -0.56,-0.033c-2.679,-0.312 -4.6,-2.739 -4.289,-5.417c0.289,-2.491 2.408,-4.327 4.856,-4.322l0.031,0Zm6.128,-108.192c0,48.317 28.078,90.079 68.802,109.862l-58.232,-159.544c-6.773,15.181 -10.57,31.983 -10.57,49.682Zm-68.722,86.194c1.145,-9.853 10.074,-16.922 19.926,-15.776c9.852,1.145 16.921,10.073 15.776,19.926c-1.146,9.852 -10.074,16.921 -19.926,15.775c-9.852,-1.145 -16.921,-10.073 -15.776,-19.925Zm297.915,-144.758c0.524,3.888 0.82,8.059 0.82,12.553c0,12.382 -2.319,26.308 -9.283,43.723l-37.285,107.802c36.292,-21.159 60.699,-60.479 60.699,-105.515c0,-21.224 -5.423,-41.177 -14.951,-58.563Zm59.971,154.568c0.292,-2.507 2.564,-4.306 5.07,-4.014c2.507,0.291 4.306,2.563 4.014,5.07c-0.291,2.506 -2.563,4.305 -5.07,4.014c-2.506,-0.292 -4.305,-2.563 -4.014,-5.07Zm-38.676,-5.03c0.528,-4.54 4.643,-7.798 9.184,-7.27c4.54,0.528 7.798,4.643 7.27,9.183c-0.528,4.541 -4.642,7.798 -9.183,7.271c-4.541,-0.528 -7.798,-4.643 -7.271,-9.184Zm-274.137,3.376c0.292,-2.507 2.563,-4.305 5.07,-4.014c2.507,0.292 4.306,2.563 4.015,5.07c-0.292,2.507 -2.564,4.306 -5.071,4.015c-2.507,-0.292 -4.305,-2.564 -4.014,-5.071Zm-8.108,-18.878c0.726,-6.244 6.384,-10.725 12.629,-9.999c6.244,0.726 10.725,6.385 9.999,12.629c-0.726,6.245 -6.385,10.725 -12.629,9.999c-6.245,-0.726 -10.725,-6.385 -9.999,-12.629Zm305.56,5.215c0.322,-2.765 2.827,-4.749 5.592,-4.428c2.765,0.322 4.749,2.827 4.428,5.592c-0.322,2.765 -2.827,4.749 -5.592,4.428c-2.765,-0.321 -4.749,-2.827 -4.428,-5.592Zm-16.852,-4.651c0.402,-3.46 3.538,-5.943 6.997,-5.541c3.46,0.403 5.943,3.538 5.541,6.998c-0.403,3.46 -3.538,5.942 -6.998,5.54c-3.46,-0.402 -5.942,-3.538 -5.54,-6.997Zm36.054,-2.244c0.274,-2.353 2.406,-4.041 4.759,-3.767c2.353,0.273 4.041,2.406 3.768,4.758c-0.274,2.353 -2.406,4.042 -4.759,3.768c-2.353,-0.273 -4.041,-2.406 -3.768,-4.759Zm-374.825,-4.781c0.349,-3.003 3.07,-5.158 6.073,-4.809c3.002,0.35 5.157,3.071 4.808,6.074c-0.349,3.002 -3.07,5.157 -6.073,4.808c-3.003,-0.349 -5.157,-3.071 -4.808,-6.073Zm351.447,-7.831c0.678,-5.839 5.97,-10.028 11.809,-9.349c5.839,0.678 10.028,5.97 9.349,11.809c-0.678,5.839 -5.97,10.028 -11.809,9.349c-5.839,-0.678 -10.028,-5.97 -9.349,-11.809Zm-313.018,0.547c0.485,-4.179 4.273,-7.178 8.453,-6.692c4.179,0.485 7.178,4.273 6.692,8.453c-0.485,4.179 -4.273,7.178 -8.453,6.692c-4.179,-0.485 -7.178,-4.273 -6.692,-8.453Zm336.402,-3.717c0.321,-2.765 2.827,-4.749 5.592,-4.427c2.765,0.321 4.749,2.827 4.427,5.592c-0.321,2.765 -2.827,4.749 -5.592,4.427c-2.765,-0.321 -4.749,-2.827 -4.427,-5.592Zm12.713,-9.341c0.247,-2.122 2.169,-3.644 4.291,-3.397c2.121,0.247 3.643,2.169 3.396,4.29c-0.246,2.121 -2.169,3.643 -4.29,3.397c-2.121,-0.247 -3.643,-2.169 -3.397,-4.29Zm-32.854,-15.282c1.05,-9.028 9.232,-15.506 18.26,-14.456c9.028,1.049 15.506,9.231 14.457,18.259c-1.05,9.029 -9.232,15.506 -18.26,14.457c-9.028,-1.049 -15.506,-9.231 -14.457,-18.26Zm-326.381,5.14c0.552,-4.751 4.858,-8.16 9.61,-7.608c4.751,0.552 8.16,4.858 7.608,9.61c-0.553,4.751 -4.859,8.16 -9.61,7.608c-4.751,-0.552 -8.161,-4.858 -7.608,-9.61Zm19.632,-4.783c0.34,-2.921 2.987,-5.017 5.909,-4.678c2.921,0.34 5.017,2.988 4.678,5.909c-0.34,2.921 -2.987,5.018 -5.909,4.678c-2.921,-0.34 -5.017,-2.987 -4.678,-5.909Zm-10.392,-12.507c0.459,-3.951 4.04,-6.785 7.99,-6.326c3.951,0.459 6.786,4.039 6.327,7.99c-0.46,3.951 -4.04,6.786 -7.991,6.326c-3.951,-0.459 -6.785,-4.039 -6.326,-7.99Zm-25.989,-1.212c0.334,-2.876 2.94,-4.939 5.816,-4.605c2.875,0.335 4.939,2.941 4.604,5.816c-0.334,2.876 -2.94,4.939 -5.815,4.605c-2.876,-0.334 -4.939,-2.94 -4.605,-5.816Zm340.992,-6.69c0.2,-1.722 1.76,-2.958 3.483,-2.758c1.722,0.201 2.957,1.761 2.757,3.483c-0.2,1.723 -1.761,2.958 -3.483,2.758c-1.722,-0.2 -2.958,-1.761 -2.757,-3.483Zm6.574,-3.504c0.399,-3.434 3.511,-5.898 6.945,-5.498c3.434,0.399 5.897,3.511 5.498,6.944c-0.399,3.434 -3.511,5.898 -6.945,5.499c-3.433,-0.4 -5.897,-3.511 -5.498,-6.945Zm-330.284,-8.384c0.743,-6.399 6.542,-10.99 12.941,-10.246c6.399,0.744 10.99,6.543 10.246,12.941c-0.744,6.399 -6.543,10.99 -12.941,10.246c-6.399,-0.743 -10.99,-6.542 -10.246,-12.941Zm22.857,7.193c0.292,-2.51 2.566,-4.31 5.076,-4.018c2.509,0.291 4.31,2.566 4.018,5.075c-0.292,2.51 -2.566,4.311 -5.076,4.019c-2.509,-0.292 -4.31,-2.566 -4.018,-5.076Zm337.075,-2.599c0.329,-2.829 2.894,-4.859 5.723,-4.53c2.83,0.329 4.86,2.893 4.531,5.722c-0.329,2.83 -2.893,4.86 -5.723,4.531c-2.829,-0.329 -4.859,-2.893 -4.531,-5.723Zm-25.941,-11.847c0.627,-5.389 5.511,-9.256 10.901,-8.63c5.389,0.627 9.256,5.511 8.63,10.901c-0.627,5.389 -5.511,9.256 -10.9,8.63c-5.39,-0.627 -9.257,-5.511 -8.631,-10.901Zm-345.389,-2.373c0.309,-2.66 2.719,-4.568 5.379,-4.259c2.66,0.309 4.569,2.72 4.259,5.38c-0.309,2.66 -2.719,4.568 -5.379,4.259c-2.66,-0.309 -4.568,-2.72 -4.259,-5.38Zm31.716,-6.159c0.196,-1.686 1.724,-2.896 3.41,-2.7c1.686,0.196 2.896,1.724 2.7,3.41c-0.196,1.686 -1.724,2.896 -3.41,2.7c-1.686,-0.196 -2.896,-1.724 -2.7,-3.41Zm304.922,-6.995c0.503,-4.326 4.424,-7.43 8.75,-6.927c4.326,0.503 7.43,4.423 6.928,8.749c-0.503,4.327 -4.424,7.431 -8.75,6.928c-4.326,-0.503 -7.43,-4.424 -6.928,-8.75Zm-318.431,-1.163c0.511,-4.402 4.5,-7.56 8.902,-7.049c4.402,0.512 7.561,4.501 7.049,8.903c-0.512,4.402 -4.501,7.56 -8.903,7.049c-4.402,-0.512 -7.56,-4.501 -7.048,-8.903Zm-10.943,2.418c0.161,-1.389 1.42,-2.385 2.809,-2.224c1.388,0.162 2.385,1.42 2.223,2.809c-0.161,1.388 -1.42,2.385 -2.808,2.223c-1.389,-0.161 -2.385,-1.42 -2.224,-2.808Zm361.206,-6.586c0.309,-2.662 2.721,-4.572 5.383,-4.262c2.662,0.309 4.571,2.721 4.262,5.383c-0.309,2.661 -2.721,4.571 -5.383,4.262c-2.662,-0.31 -4.572,-2.722 -4.262,-5.383Zm-393.158,-3.049c0.479,-4.12 4.213,-7.076 8.334,-6.597c4.12,0.479 7.077,4.213 6.598,8.333c-0.479,4.12 -4.213,7.077 -8.334,6.598c-4.12,-0.479 -7.077,-4.213 -6.598,-8.334Zm23.375,-0.926c0.248,-2.136 2.185,-3.669 4.321,-3.421c2.137,0.249 3.67,2.185 3.421,4.321c-0.248,2.137 -2.184,3.67 -4.321,3.422c-2.136,-0.249 -3.669,-2.185 -3.421,-4.322Zm347.977,-10.989c0.799,-6.879 7.034,-11.814 13.913,-11.015c6.879,0.8 11.814,7.034 11.015,13.913c-0.8,6.879 -7.034,11.815 -13.913,11.015c-6.879,-0.799 -11.815,-7.034 -11.015,-13.913Zm-340.448,-0.085c0.683,-5.878 6.01,-10.095 11.888,-9.412c5.878,0.683 10.095,6.01 9.412,11.888c-0.683,5.878 -6.01,10.096 -11.888,9.412c-5.878,-0.683 -10.095,-6.01 -9.412,-11.888Zm23.026,5.387c0.302,-2.598 2.657,-4.462 5.256,-4.16c2.598,0.302 4.463,2.656 4.161,5.255c-0.302,2.598 -2.657,4.463 -5.256,4.161c-2.598,-0.302 -4.463,-2.657 -4.161,-5.256Zm353.576,-9.395c0.242,-2.081 2.128,-3.574 4.21,-3.332c2.081,0.242 3.575,2.128 3.333,4.209c-0.242,2.081 -2.129,3.575 -4.21,3.333c-2.081,-0.242 -3.575,-2.128 -3.333,-4.21Zm-48.966,-10.437c0.528,-4.541 4.642,-7.798 9.183,-7.271c4.54,0.528 7.798,4.643 7.27,9.183c-0.528,4.54 -4.643,7.798 -9.183,7.27c-4.54,-0.527 -7.798,-4.642 -7.27,-9.182Zm-322.075,-9.191c0.436,-3.744 3.829,-6.43 7.573,-5.995c3.744,0.435 6.431,3.828 5.996,7.573c-0.436,3.744 -3.829,6.43 -7.573,5.995c-3.744,-0.435 -6.431,-3.828 -5.996,-7.573Zm343.348,3.338c0.242,-2.081 2.128,-3.575 4.209,-3.333c2.081,0.242 3.575,2.128 3.333,4.21c-0.242,2.081 -2.128,3.574 -4.21,3.332c-2.081,-0.242 -3.574,-2.128 -3.332,-4.209Zm-24.587,-11.75c0.473,-4.07 4.161,-6.99 8.231,-6.517c4.07,0.473 6.99,4.161 6.516,8.231c-0.473,4.07 -4.161,6.99 -8.23,6.517c-4.07,-0.474 -6.99,-4.162 -6.517,-8.231Zm-273.881,5.073c0.176,-1.519 1.553,-2.609 3.073,-2.433c1.519,0.177 2.609,1.554 2.432,3.073c-0.176,1.519 -1.553,2.61 -3.072,2.433c-1.52,-0.177 -2.61,-1.554 -2.433,-3.073Zm140.469,1.425c-0.575,-3.474 -3.003,-12.215 -12.88,-12.302c-9.887,0.087 -12.309,8.844 -12.881,12.311c4.41,0.204 8.873,0.351 12.563,0.351c3.988,0 8.659,-0.152 13.198,-0.36Zm-156.118,-16.999c0.796,-6.854 7.007,-11.771 13.861,-10.975c6.854,0.797 11.771,7.008 10.975,13.862c-0.797,6.854 -7.008,11.771 -13.862,10.975c-6.854,-0.797 -11.771,-7.008 -10.974,-13.862Zm320.58,6.647c0.411,-3.533 3.612,-6.068 7.145,-5.657c3.533,0.411 6.068,3.612 5.657,7.145c-0.41,3.533 -3.612,6.068 -7.145,5.658c-3.533,-0.411 -6.068,-3.613 -5.657,-7.146Zm-337.227,3.147c0.176,-1.506 1.54,-2.587 3.047,-2.412c1.506,0.175 2.586,1.54 2.411,3.046c-0.175,1.506 -1.54,2.587 -3.046,2.412c-1.506,-0.175 -2.587,-1.54 -2.412,-3.046Zm11.778,-0.49c0.175,-1.506 1.54,-2.587 3.046,-2.412c1.506,0.175 2.587,1.54 2.412,3.046c-0.175,1.506 -1.54,2.587 -3.046,2.412c-1.506,-0.175 -2.587,-1.54 -2.412,-3.046Zm299.483,-16.771c0.693,-5.956 6.09,-10.229 12.046,-9.537c5.957,0.693 10.23,6.09 9.538,12.046c-0.693,5.956 -6.09,10.23 -12.046,9.538c-5.956,-0.693 -10.23,-6.09 -9.538,-12.047Zm-307.551,2.637c0.399,-3.437 3.513,-5.902 6.949,-5.503c3.437,0.4 5.902,3.514 5.503,6.95c-0.4,3.436 -3.514,5.902 -6.95,5.502c-3.436,-0.399 -5.902,-3.513 -5.502,-6.949Zm-25.976,-1.356c0.272,-2.343 2.395,-4.024 4.738,-3.752c2.344,0.273 4.025,2.396 3.752,4.739c-0.272,2.343 -2.395,4.024 -4.738,3.752c-2.344,-0.272 -4.025,-2.396 -3.752,-4.739Zm179.718,-11.383l-2.153,10.95l9.172,0l-1.965,-10.856l-5.054,-0.094Zm-146.379,-2.133c0.577,-4.96 5.071,-8.518 10.031,-7.942c4.959,0.577 8.518,5.071 7.941,10.031c-0.576,4.959 -5.071,8.518 -10.03,7.941c-4.96,-0.576 -8.518,-5.071 -7.942,-10.03Zm317.564,-3.129c0.351,-3.022 3.09,-5.191 6.112,-4.839c3.022,0.351 5.191,3.09 4.839,6.112c-0.351,3.022 -3.09,5.19 -6.112,4.839c-3.022,-0.351 -5.191,-3.09 -4.839,-6.112Zm-21.582,-4.609c0.508,-4.371 4.47,-7.508 8.841,-6.999c4.371,0.508 7.508,4.469 6.999,8.84c-0.508,4.372 -4.469,7.508 -8.84,7c-4.372,-0.508 -7.508,-4.47 -7,-8.841Zm-277.999,-4.459c0.234,-2.02 2.065,-3.469 4.084,-3.234c2.019,0.235 3.468,2.065 3.234,4.084c-0.235,2.02 -2.065,3.469 -4.085,3.234c-2.019,-0.235 -3.468,-2.065 -3.233,-4.084Zm255.995,-13.542c0.863,-7.423 7.591,-12.75 15.014,-11.887c7.424,0.863 12.75,7.591 11.887,15.014c-0.863,7.424 -7.59,12.75 -15.014,11.887c-7.423,-0.863 -12.749,-7.59 -11.887,-15.014Zm-12.179,7.179c0.385,-3.307 3.382,-5.68 6.69,-5.296c3.307,0.385 5.68,3.382 5.296,6.689c-0.385,3.308 -3.382,5.681 -6.69,5.296c-3.307,-0.384 -5.68,-3.382 -5.296,-6.689Zm-218.948,-1.748c0.375,-3.226 3.298,-5.54 6.524,-5.165c3.226,0.375 5.54,3.298 5.165,6.524c-0.375,3.226 -3.298,5.54 -6.524,5.165c-3.225,-0.375 -5.54,-3.298 -5.165,-6.524Zm-19.368,-5.12c0.475,-4.09 4.182,-7.025 8.272,-6.549c4.09,0.475 7.024,4.182 6.549,8.272c-0.476,4.09 -4.182,7.024 -8.272,6.549c-4.09,-0.476 -7.025,-4.182 -6.549,-8.272Zm281.27,5.065c0.186,-1.601 1.637,-2.75 3.238,-2.564c1.601,0.186 2.749,1.637 2.563,3.238c-0.186,1.601 -1.637,2.749 -3.238,2.563c-1.6,-0.186 -2.749,-1.637 -2.563,-3.237Zm-296.582,-4.396c0.361,-3.107 3.176,-5.336 6.283,-4.974c3.107,0.361 5.336,3.176 4.975,6.283c-0.362,3.106 -3.177,5.335 -6.284,4.974c-3.106,-0.361 -5.335,-3.176 -4.974,-6.283Zm49.813,-1.223c0.237,-2.039 2.085,-3.502 4.123,-3.265c2.039,0.237 3.502,2.085 3.265,4.123c-0.237,2.039 -2.085,3.502 -4.123,3.265c-2.039,-0.237 -3.502,-2.085 -3.265,-4.123Zm196.455,-8.934c0.611,-5.263 5.381,-9.039 10.644,-8.427c5.263,0.612 9.039,5.381 8.427,10.644c-0.612,5.263 -5.381,9.039 -10.644,8.427c-5.263,-0.612 -9.039,-5.381 -8.427,-10.644Zm-216.757,-1.97c0.505,-4.352 4.449,-7.475 8.801,-6.969c4.352,0.506 7.475,4.45 6.969,8.802c-0.506,4.352 -4.45,7.475 -8.802,6.969c-4.352,-0.506 -7.474,-4.45 -6.968,-8.802Zm183.013,1.967c0.376,-3.23 3.303,-5.548 6.533,-5.172c3.23,0.375 5.548,3.302 5.173,6.533c-0.376,3.23 -3.303,5.548 -6.533,5.172c-3.231,-0.375 -5.548,-3.303 -5.173,-6.533Zm-164.093,-4.804c0.517,-4.441 4.541,-7.628 8.982,-7.111c4.441,0.516 7.627,4.54 7.111,8.981c-0.516,4.441 -4.541,7.627 -8.982,7.111c-4.441,-0.516 -7.627,-4.541 -7.111,-8.981Zm17.066,-5.329c0.771,-6.637 6.786,-11.399 13.423,-10.628c6.637,0.772 11.399,6.787 10.628,13.424c-0.772,6.637 -6.786,11.399 -13.423,10.627c-6.637,-0.771 -11.4,-6.786 -10.628,-13.423Zm155.836,-6.269c0.875,-7.526 7.696,-12.927 15.222,-12.052c7.527,0.875 12.928,7.696 12.053,15.223c-0.875,7.527 -7.696,12.927 -15.223,12.052c-7.527,-0.875 -12.927,-7.696 -12.052,-15.223Zm-16.13,4.586c0.423,-3.642 3.724,-6.256 7.366,-5.832c3.642,0.423 6.255,3.724 5.832,7.366c-0.423,3.642 -3.724,6.255 -7.366,5.832c-3.642,-0.423 -6.256,-3.724 -5.832,-7.366Zm101.953,-1.226c0.282,-2.423 2.478,-4.161 4.901,-3.879c2.423,0.281 4.161,2.477 3.88,4.9c-0.282,2.423 -2.478,4.161 -4.901,3.88c-2.423,-0.282 -4.161,-2.478 -3.88,-4.901Zm-141.612,-10.802c0.811,-6.977 7.134,-11.984 14.112,-11.173c6.978,0.811 11.984,7.135 11.173,14.112c-0.811,6.978 -7.135,11.984 -14.112,11.173c-6.978,-0.811 -11.984,-7.134 -11.173,-14.112Zm-161.398,5.746c0.372,-3.202 3.274,-5.499 6.475,-5.127c3.202,0.372 5.499,3.274 5.127,6.475c-0.372,3.202 -3.274,5.499 -6.475,5.127c-3.202,-0.372 -5.499,-3.274 -5.127,-6.475Zm50.934,-1.622c0.385,-3.309 3.383,-5.683 6.692,-5.298c3.308,0.385 5.682,3.383 5.297,6.691c-0.384,3.309 -3.382,5.683 -6.691,5.298c-3.309,-0.384 -5.682,-3.383 -5.298,-6.691Zm-25.054,-4.637c0.634,-5.454 5.576,-9.367 11.03,-8.733c5.454,0.634 9.367,5.576 8.733,11.03c-0.634,5.454 -5.577,9.367 -11.03,8.733c-5.454,-0.634 -9.367,-5.576 -8.733,-11.03Zm228.487,1.969c0.444,-3.821 3.906,-6.562 7.727,-6.118c3.821,0.444 6.562,3.907 6.118,7.728c-0.444,3.82 -3.907,6.561 -7.727,6.117c-3.821,-0.444 -6.562,-3.906 -6.118,-7.727Zm-64.238,3.104c0.261,-2.242 2.293,-3.851 4.535,-3.59c2.242,0.26 3.85,2.292 3.59,4.534c-0.261,2.242 -2.293,3.851 -4.535,3.59c-2.242,-0.26 -3.851,-2.292 -3.59,-4.534Zm-108.77,-4.413c0.465,-4.003 4.093,-6.875 8.096,-6.41c4.003,0.466 6.876,4.094 6.41,8.097c-0.465,4.003 -4.093,6.875 -8.096,6.41c-4.003,-0.466 -6.875,-4.093 -6.41,-8.097Zm14.938,-5.731c0.603,-5.188 5.304,-8.909 10.492,-8.306c5.187,0.602 8.909,5.303 8.306,10.491c-0.603,5.187 -5.304,8.909 -10.492,8.306c-5.187,-0.603 -8.909,-5.304 -8.306,-10.491Zm-23.693,2.014c0.223,-1.913 1.957,-3.286 3.87,-3.063c1.913,0.222 3.286,1.956 3.063,3.869c-0.222,1.913 -1.956,3.286 -3.869,3.064c-1.913,-0.223 -3.286,-1.957 -3.064,-3.87Zm121.772,-11.492c0.423,-3.643 3.724,-6.256 7.366,-5.832c3.642,0.423 6.255,3.724 5.832,7.366c-0.423,3.642 -3.724,6.255 -7.366,5.832c-3.642,-0.423 -6.256,-3.724 -5.832,-7.366Zm-42.033,-2.787c0.481,-4.137 4.23,-7.105 8.366,-6.624c4.137,0.481 7.105,4.23 6.624,8.366c-0.481,4.137 -4.229,7.105 -8.366,6.624c-4.136,-0.481 -7.104,-4.23 -6.624,-8.366Zm-50.133,-11.047c0.858,-7.389 7.555,-12.691 14.945,-11.832c7.389,0.859 12.691,7.556 11.832,14.945c-0.859,7.39 -7.555,12.692 -14.945,11.833c-7.389,-0.859 -12.691,-7.556 -11.832,-14.946Zm-58.187,4.981c0.261,-2.243 2.293,-3.851 4.535,-3.591c2.242,0.261 3.85,2.293 3.59,4.535c-0.261,2.242 -2.293,3.851 -4.535,3.59c-2.242,-0.261 -3.85,-2.292 -3.59,-4.534Zm32.449,-3.339c0.424,-3.642 3.724,-6.256 7.367,-5.832c3.642,0.423 6.255,3.724 5.832,7.366c-0.424,3.642 -3.724,6.256 -7.367,5.832c-3.642,-0.423 -6.255,-3.724 -5.832,-7.366Zm56.809,3.428c0.222,-1.913 1.956,-3.286 3.869,-3.063c1.914,0.222 3.286,1.956 3.064,3.869c-0.222,1.913 -1.956,3.286 -3.87,3.064c-1.913,-0.223 -3.285,-1.956 -3.063,-3.87Zm8.344,-10.984c0.332,-2.859 2.924,-4.911 5.784,-4.579c2.859,0.332 4.911,2.924 4.579,5.784c-0.333,2.86 -2.924,4.912 -5.784,4.579c-2.86,-0.332 -4.912,-2.924 -4.579,-5.784Zm85.426,-3.405c0.34,-2.922 2.987,-5.017 5.908,-4.678c2.921,0.34 5.017,2.987 4.678,5.908c-0.34,2.921 -2.987,5.017 -5.908,4.677c-2.921,-0.339 -5.017,-2.986 -4.678,-5.907Zm-52.997,0.225c0.261,-2.242 2.293,-3.85 4.535,-3.59c2.242,0.261 3.85,2.293 3.59,4.535c-0.261,2.242 -2.293,3.85 -4.535,3.59c-2.242,-0.261 -3.851,-2.293 -3.59,-4.535Z" style="fill:#262626;fill-rule:nonzero;"/><g id="title--1" serif:id="title #1"><g><path d="M169.642,488.835l2.759,0c0.542,0 1.084,-0.345 1.232,-0.887l7.489,-26.359l7.588,26.359c0.147,0.542 0.689,0.887 1.231,0.887l2.759,0c0.542,0 1.084,-0.345 1.232,-0.887l9.608,-32.321c0.148,-0.542 -0.247,-1.035 -0.789,-1.035l-2.562,0c-0.443,0 -0.837,0.296 -0.936,0.69l-7.932,27.69l-7.933,-27.69c-0.098,-0.394 -0.492,-0.69 -0.936,-0.69l-2.562,0c-0.443,0 -0.837,0.296 -0.936,0.69l-7.932,27.69l-7.933,-27.69c-0.098,-0.394 -0.492,-0.69 -0.936,-0.69l-2.562,0c-0.542,0 -0.985,0.493 -0.788,1.035l9.608,32.321c0.147,0.542 0.689,0.887 1.231,0.887Z" style="fill:#262626;fill-rule:nonzero;"/><path d="M220.784,489.475c6.651,0 12.071,-5.37 12.071,-12.022l0,-11.479c0,-6.652 -5.42,-12.022 -12.071,-12.022c-6.651,0 -12.071,5.37 -12.071,12.022l0,11.479c0,6.652 5.42,12.022 12.071,12.022Zm0,-3.793c-4.434,0 -8.031,-3.794 -8.031,-8.229l0,-11.479c0,-4.435 3.597,-8.228 8.031,-8.228c4.434,0 8.031,3.793 8.031,8.228l0,11.479c0,4.435 -3.597,8.229 -8.031,8.229Z" style="fill:#262626;fill-rule:nonzero;"/><path d="M241.674,488.835l2.661,0c0.394,0 0.69,-0.296 0.69,-0.69l0,-13.697l3.843,0l8.622,13.943c0.148,0.296 0.394,0.444 0.739,0.444l2.513,0c0.739,0 1.182,-0.739 0.788,-1.38l-8.179,-13.204c4.582,-0.936 7.982,-4.878 7.982,-9.706c0,-5.518 -4.434,-9.953 -10.002,-9.953l-8.573,0c-0.985,0 -1.773,0.789 -1.773,1.774l0,31.779c0,0.394 0.295,0.69 0.689,0.69Zm3.351,-18.181l0,-12.268l6.011,0c3.547,0 6.158,2.611 6.158,6.208c0,3.449 -2.611,6.06 -6.158,6.06l-6.011,0Z" style="fill:#262626;fill-rule:nonzero;"/><path d="M270.448,488.835l8.77,0c7.095,0 12.859,-5.765 12.859,-13.007l0,-8.228c0,-7.243 -5.764,-13.008 -12.859,-13.008l-8.77,0c-0.986,0 -1.774,0.789 -1.774,1.774l0,30.695c0,0.985 0.788,1.774 1.774,1.774Zm2.266,-3.794l0,-26.655l6.504,0c4.878,0 8.819,3.892 8.819,8.819l0,8.967c0,4.927 -3.941,8.869 -8.819,8.869l-6.504,0Z" style="fill:#262626;fill-rule:nonzero;"/><path d="M310.997,489.475c3.547,0 6.602,-1.281 8.868,-3.547c0.345,-0.345 0.345,-0.788 0,-1.232c-0.345,-0.394 -0.739,-0.887 -1.33,-1.478c-0.394,-0.296 -0.985,-0.345 -1.429,0.099c-1.576,1.527 -3.646,2.365 -6.06,2.365c-4.286,0 -7.735,-3.794 -7.735,-8.229l0,-11.529c0,-4.434 3.449,-8.228 7.735,-8.228c2.414,0 4.484,0.838 6.06,2.365c0.444,0.444 1.035,0.394 1.429,0.099c0.591,-0.591 0.985,-1.084 1.33,-1.478c0.345,-0.444 0.345,-0.887 0,-1.232c-2.266,-2.266 -5.321,-3.547 -8.868,-3.547c-6.504,0 -11.776,5.37 -11.776,12.021l0,11.529c0,6.652 5.272,12.022 11.776,12.022Z" style="fill:#262626;fill-rule:nonzero;"/><path d="M325.778,488.835l2.414,0c0.394,0 0.837,-0.247 0.936,-0.641l2.759,-8.573l12.81,0l2.759,8.573c0.148,0.394 0.542,0.641 0.936,0.641l2.415,0c0.591,0 0.936,-0.493 0.739,-1.084l-10.692,-32.518c-0.148,-0.394 -0.542,-0.641 -0.936,-0.641l-3.252,0c-0.394,0 -0.788,0.247 -0.936,0.641l-10.691,32.518c-0.197,0.591 0.147,1.084 0.739,1.084Zm7.242,-12.81l5.272,-16.309l5.272,16.309l-10.544,0Z" style="fill:#262626;fill-rule:nonzero;"/><path d="M375.244,489.475l2.464,0c0.394,0 0.788,-0.246 0.936,-0.64l9.46,-27.296l3.252,26.458c0.098,0.542 0.492,0.838 0.985,0.838l2.365,0c0.493,0 0.837,-0.444 0.788,-0.887l-4.237,-32.518c-0.049,-0.542 -0.493,-0.838 -0.985,-0.838l-3.4,0c-0.246,0 -0.493,0.148 -0.591,0.444l-9.805,28.33l-9.706,-28.133c-0.099,-0.394 -0.542,-0.641 -0.936,-0.641l-3.449,0c-0.296,0 -0.542,0.247 -0.591,0.542l-4.287,32.814c-0.049,0.443 0.247,0.887 0.789,0.887l2.315,0c0.493,0 0.887,-0.296 0.986,-0.838l3.251,-26.556l9.46,27.394c0.148,0.394 0.542,0.64 0.936,0.64Z" style="fill:#262626;fill-rule:nonzero;"/><path d="M403.821,488.835l2.66,0c0.394,0 0.69,-0.296 0.69,-0.69l0,-12.367l6.011,0c5.962,0 10.741,-4.73 10.741,-10.593c0,-5.863 -4.779,-10.593 -10.741,-10.593l-8.277,0c-0.986,0 -1.774,0.789 -1.774,1.774l0,31.779c0,0.394 0.296,0.69 0.69,0.69Zm3.35,-16.85l0,-13.599l5.765,0c3.793,0 6.848,3.055 6.848,6.799c0,3.745 -3.055,6.8 -6.848,6.8l-5.765,0Z" style="fill:#262626;fill-rule:nonzero;"/></g><g><g><path d="M162.414,531.19l3.751,0c0.562,0 0.984,-0.422 0.984,-0.985l0,-10.925l4.642,0c6.049,0 10.926,-4.829 10.926,-10.831c0,-5.955 -4.877,-10.785 -10.926,-10.785l-8.346,0c-1.125,0 -2.016,0.891 -2.016,2.016l0,30.525c0,0.563 0.422,0.985 0.985,0.985Zm4.735,-17.302l0,-10.831l4.408,0c3.001,0 5.439,2.438 5.439,5.392c0,3.001 -2.438,5.439 -5.439,5.439l-4.408,0Z" style="fill:#262626;fill-rule:nonzero;"/><path d="M184.733,531.19l3.282,0c0.657,0 1.266,-0.422 1.454,-1.078l2.11,-6.752l10.972,0l2.11,6.752c0.188,0.656 0.797,1.078 1.454,1.078l3.376,0c0.656,0 1.125,-0.469 1.125,-1.078c0,-0.094 0,-0.235 -0.047,-0.375l-10.175,-31.276c-0.188,-0.609 -0.797,-1.031 -1.454,-1.031l-3.657,0c-0.656,0 -1.266,0.422 -1.453,1.031l-10.175,31.276c-0.047,0.14 -0.047,0.281 -0.047,0.375c0,0.609 0.469,1.078 1.125,1.078Zm8.487,-13.129l3.845,-12.519l3.845,12.519l-7.69,0Z" style="fill:#262626;fill-rule:nonzero;"/><path d="M216.946,531.19l3.751,0c0.563,0 0.985,-0.422 0.985,-0.985l0,-12.191l2.297,0l7.784,12.52c0.281,0.422 0.75,0.656 1.219,0.656l3.845,0c0.657,0 1.079,-0.422 1.079,-0.985c0,-0.234 -0.047,-0.422 -0.188,-0.656l-7.784,-12.051c4.22,-1.312 7.268,-5.064 7.268,-9.659c0,-5.626 -4.642,-10.175 -10.456,-10.175l-8.768,0c-1.126,0 -2.017,0.891 -2.017,2.016l0,30.525c0,0.563 0.422,0.985 0.985,0.985Zm4.736,-18.568l0,-9.565l4.783,0c2.86,0 4.923,2.016 4.923,4.829c0,2.72 -2.063,4.736 -4.923,4.736l-4.783,0Z" style="fill:#262626;fill-rule:nonzero;"/><path d="M243.532,531.19l13.692,0c0.563,0 0.985,-0.422 0.985,-0.985l0,-3.235c0,-0.563 -0.422,-0.985 -0.985,-0.985l-3.986,0l0,-23.116l3.986,0c0.563,0 0.985,-0.422 0.985,-0.985l0,-3.235c0,-0.563 -0.422,-0.985 -0.985,-0.985l-13.692,0c-0.562,0 -0.984,0.422 -0.984,0.985l0,3.235c0,0.563 0.422,0.985 0.984,0.985l3.986,0l0,23.116l-3.986,0c-0.562,0 -0.984,0.422 -0.984,0.985l0,3.235c0,0.563 0.422,0.985 0.984,0.985Z" style="fill:#262626;fill-rule:nonzero;"/><path d="M272.698,531.753c6.517,0 10.972,-4.126 10.972,-9.988c0,-6.564 -5.533,-8.299 -9.284,-9.846c-3.658,-1.501 -5.627,-2.861 -5.627,-5.44c0,-2.344 1.688,-4.079 4.548,-4.079c1.454,0 3.798,0.469 6.471,2.204c0.328,0.187 0.469,0.187 0.703,0.187c0.328,0 0.703,-0.187 0.891,-0.562l1.547,-2.954c0.188,-0.375 0,-0.938 -0.281,-1.126c-2.626,-1.969 -6.096,-3.094 -9.378,-3.094c-6.049,0 -10.175,3.938 -10.175,9.706c0,6.236 4.783,8.487 7.549,9.659c4.408,1.829 7.362,2.673 7.362,5.674c0,2.485 -1.969,4.313 -5.345,4.313c-1.688,0 -3.798,-0.468 -6.565,-2.203c-0.328,-0.188 -0.469,-0.188 -0.703,-0.188c-0.328,0 -0.704,0.188 -0.891,0.563l-1.641,2.954c-0.188,0.375 0,0.938 0.281,1.125c2.767,1.923 6.096,3.095 9.566,3.095Z" style="fill:#262626;fill-rule:nonzero;"/></g><path d="M291.453,514.051l25.227,0c0.375,0 0.656,-0.281 0.656,-0.656l0,-2.157c0,-0.375 -0.281,-0.656 -0.656,-0.656l-6.049,0l0,-6.987c0,-0.375 -0.281,-0.656 -0.656,-0.656l-2.157,0c-0.375,0 -0.657,0.281 -0.657,0.656l0,6.987l-6.189,0l0,-6.987c0,-0.375 -0.282,-0.656 -0.657,-0.656l-2.157,0c-0.375,0 -0.656,0.281 -0.656,0.656l0,6.987l-6.049,0c-0.375,0 -0.656,0.281 -0.656,0.656l0,2.157c0,0.375 0.281,0.656 0.656,0.656Zm6.705,15.427l2.157,0c0.375,0 0.657,-0.281 0.657,-0.656l0,-6.987l6.189,0l0,6.987c0,0.375 0.282,0.656 0.657,0.656l2.157,0c0.375,0 0.656,-0.281 0.656,-0.656l0,-6.987l6.049,0c0.375,0 0.656,-0.281 0.656,-0.656l0,-2.157c0,-0.375 -0.281,-0.657 -0.656,-0.657l-25.227,0c-0.375,0 -0.656,0.282 -0.656,0.657l0,2.157c0,0.375 0.281,0.656 0.656,0.656l6.049,0l0,6.987c0,0.375 0.281,0.656 0.656,0.656Z" style="fill:#262626;fill-rule:nonzero;"/><g><path d="M326.411,531.189l15.729,0c0.563,0 0.986,-0.422 0.986,-0.986l0,-3.474c0,-0.564 -0.423,-0.986 -0.986,-0.986l-12.208,0l0,-1.362c0,-3.991 3.569,-5.352 7.466,-7.841c4.695,-3.005 6.855,-5.587 6.855,-10.048c0,-5.822 -3.709,-9.484 -10.001,-9.484c-3.381,0 -6.667,1.033 -9.109,2.676c-0.282,0.188 -0.422,0.47 -0.422,0.798c0,0.141 0.046,0.329 0.14,0.47l1.55,2.817c0.188,0.376 0.516,0.516 0.845,0.516c0.188,0 0.423,-0.046 0.61,-0.14c2.16,-1.268 4.226,-1.785 5.869,-1.785c3.099,0 4.884,1.691 4.884,4.32c0,1.925 -0.94,3.475 -3.24,4.836c-8.264,4.836 -10.987,6.433 -10.987,13.945l0,3.756c0,1.08 0.892,1.972 2.019,1.972Z" style="fill:#262626;fill-rule:nonzero;"/><path d="M361.156,531.8c7.794,0 11.832,-5.916 11.832,-17.42c0,-11.409 -4.038,-17.372 -11.832,-17.372c-7.794,0 -11.879,6.01 -11.879,17.372c0,11.457 4.085,17.42 11.879,17.42Zm0,-5.353c-4.32,0 -6.057,-3.427 -6.057,-11.879c0,-8.733 1.69,-12.161 6.01,-12.161c4.366,0 6.057,3.334 6.057,11.973c0,8.687 -1.691,12.067 -6.01,12.067Z" style="fill:#262626;fill-rule:nonzero;"/><path d="M378.81,531.189l16.105,0c0.563,0 0.986,-0.422 0.986,-0.986l0,-3.333c0,-0.564 -0.423,-0.986 -0.986,-0.986l-5.306,0l0,-27.092c0,-0.751 -0.61,-1.362 -1.361,-1.362l-1.832,0l-7.606,3.944l0,2.254c0,0.751 0.61,1.362 1.362,1.362l3.944,0l0,20.894l-5.306,0c-0.563,0 -0.986,0.422 -0.986,0.986l0,3.333c0,0.564 0.423,0.986 0.986,0.986Z" style="fill:#262626;fill-rule:nonzero;"/><path d="M403.93,531.189l1.127,0c6.667,0 12.536,-3.85 14.884,-10.094c1.408,-3.663 1.643,-7.982 1.643,-12.631c0,-6.432 -5.024,-11.456 -11.457,-11.456c-6.291,0 -11.503,5.165 -11.503,11.456c0,6.433 4.883,11.504 11.034,11.504c1.831,0 4.179,-0.658 5.963,-2.113c-1.127,5.305 -5.587,8.029 -10.564,8.029l-1.127,0c-0.564,0 -0.986,0.422 -0.986,0.986l0,3.333c0,0.564 0.422,0.986 0.986,0.986Zm6.197,-16.574c-3.192,0 -5.916,-2.817 -5.916,-6.151c0,-3.333 2.677,-6.104 5.916,-6.104c3.334,0 5.823,2.63 5.823,6.104c0,3.522 -2.489,6.151 -5.823,6.151Z" style="fill:#262626;fill-rule:nonzero;"/></g></g></g></g></svg>